<svg width="92" height="81" viewBox="0 0 92 81" fill="none" xmlns="http://www.w3.org/2000/svg">
<path d="M90.9803 69.6195L52.647 3.807C51.3207 1.53394 48.8392 0 46 0C43.1608 0 40.6793 1.53394 39.353 3.807L1.01967 69.6195C0.373111 70.7332 0 72.0267 0 73.4062C0 77.598 3.43467 81 7.66667 81H84.3333C88.5653 81 92 77.598 92 73.4062C92 72.0267 91.6294 70.7332 90.9803 69.6195ZM7.66156 73.4138L45.9923 7.59375H46L46.0051 7.60134L84.3333 73.4062L7.66156 73.4138ZM46 55.6875C43.1787 55.6875 40.8889 57.9555 40.8889 60.75C40.8889 63.547 43.1761 65.8125 46 65.8125C48.8239 65.8125 51.1111 63.5445 51.1111 60.75C51.1111 57.9555 48.8239 55.6875 46 55.6875ZM40.8889 32.9062C40.8889 33.1948 40.9144 33.4808 40.9604 33.7567L43.4777 48.5191C43.6847 49.7163 44.735 50.625 46 50.625C47.265 50.625 48.3153 49.7163 48.5198 48.519L51.037 33.7566C51.0856 33.4808 51.1111 33.1948 51.1111 32.9062C51.1111 30.1117 48.8239 27.8437 46 27.8437C43.1787 27.8437 40.8889 30.1117 40.8889 32.9062Z" fill="white"/>
</svg>
