<svg width="464" height="308" viewBox="0 0 464 308" fill="none" xmlns="http://www.w3.org/2000/svg">
<path d="M166.437 177.257C182.338 149.317 212.67 127.864 244.78 129.931C221.095 155.657 207.284 188.921 205.79 223.839C205.263 237.307 206.081 252.342 197.127 262.427C191.557 268.703 183.042 271.742 174.67 272.379C166.297 273.017 157.927 271.506 149.666 270.001L147.662 270.616C146.899 238.486 150.536 205.196 166.437 177.257Z" fill="#F0F0F0"/>
<path d="M244.827 130.603C221.083 142.021 200.837 161.089 188.408 184.343C185.721 189.371 183.433 194.705 182.435 200.344C181.437 205.986 182.134 211.357 184.064 216.715C185.828 221.614 188.2 226.421 188.74 231.663C189.311 237.188 187.275 242.354 183.612 246.454C179.129 251.471 173.109 254.58 167.116 257.415C160.462 260.564 153.501 263.729 148.788 269.605C148.217 270.317 147.145 269.39 147.715 268.679C155.914 258.456 169.95 256.534 179.683 248.299C184.224 244.456 187.634 239.223 187.418 233.091C187.23 227.729 184.788 222.77 182.96 217.825C181.039 212.633 180.082 207.412 180.77 201.877C181.475 196.214 183.559 190.78 186.105 185.705C191.848 174.262 199.708 163.756 208.712 154.674C219.059 144.235 231.119 135.641 244.368 129.263C245.188 128.869 245.642 130.212 244.827 130.603Z" fill="white"/>
<path d="M192.049 176.571C188.409 173.913 185.833 170.049 184.782 165.668C183.731 161.288 184.274 156.678 186.312 152.66C186.727 151.849 188.009 152.455 187.593 153.268C185.688 157.005 185.184 161.3 186.171 165.377C187.158 169.454 189.571 173.044 192.975 175.499C193.715 176.034 192.784 177.103 192.049 176.571Z" fill="white"/>
<path d="M182.842 214.349C191.963 213.018 200.247 208.302 206.041 201.141C206.615 200.431 207.688 201.358 207.115 202.067C201.071 209.507 192.441 214.398 182.946 215.762C182.041 215.892 181.942 214.478 182.842 214.349V214.349Z" fill="white"/>
<path d="M219.76 145.978C220.954 147.3 222.458 148.304 224.136 148.902C225.815 149.5 227.616 149.672 229.378 149.403C230.281 149.262 230.379 150.675 229.482 150.815C227.534 151.104 225.545 150.912 223.689 150.255C221.833 149.599 220.166 148.498 218.833 147.05C218.696 146.924 218.613 146.751 218.599 146.565C218.585 146.38 218.643 146.196 218.76 146.051C218.883 145.91 219.058 145.823 219.245 145.809C219.432 145.795 219.617 145.856 219.76 145.978Z" fill="white"/>
<path d="M308.667 218.07C308.106 218.174 307.544 218.278 306.978 218.393C299.438 219.829 292.028 221.875 284.82 224.511C284.26 224.705 283.695 224.911 283.141 225.122C265.844 231.656 249.911 241.34 236.153 253.683C230.683 258.6 225.595 263.925 220.934 269.613C214.497 277.468 208.144 286.497 199.732 291.619C198.861 292.163 197.956 292.653 197.024 293.085L148.568 273.01C148.481 272.909 148.389 272.819 148.301 272.718L146.33 272.005C146.55 271.695 146.784 271.378 147.004 271.068C147.131 270.887 147.269 270.711 147.395 270.531C147.483 270.412 147.572 270.293 147.644 270.181C147.674 270.141 147.703 270.102 147.728 270.073C147.8 269.961 147.88 269.864 147.948 269.763C149.255 267.988 150.577 266.219 151.914 264.456C151.918 264.445 151.918 264.445 151.934 264.439C162.153 251.032 173.583 238.36 186.575 227.824C186.966 227.507 187.361 227.179 187.774 226.871C193.656 222.154 199.915 217.926 206.487 214.227C210.093 212.214 213.798 210.384 217.588 208.744C227.391 204.527 237.796 201.877 248.423 200.889C269.609 198.924 291.187 203.749 307.436 217.042C307.851 217.383 308.256 217.719 308.667 218.07Z" fill="#F0F0F0"/>
<path d="M308.303 218.639C282.463 213.476 254.803 216.525 230.862 227.619C225.687 230.017 220.645 232.9 216.449 236.803C212.251 240.707 209.57 245.415 207.881 250.853C206.336 255.826 205.332 261.09 202.605 265.601C199.729 270.355 194.99 273.256 189.594 274.327C182.991 275.636 176.31 274.498 169.816 273.158C162.606 271.671 155.14 270.012 147.835 271.869C146.95 272.094 146.652 270.709 147.536 270.485C160.245 267.253 172.61 274.159 185.345 273.436C191.288 273.099 197.164 270.971 200.689 265.946C203.77 261.551 204.81 256.123 206.33 251.075C207.927 245.775 210.309 241.031 214.196 237.025C218.171 232.927 223.111 229.841 228.203 227.321C239.686 221.638 252.294 217.976 264.957 216.139C279.512 214.027 294.321 214.417 308.744 217.293C309.637 217.471 309.19 218.816 308.303 218.639V218.639Z" fill="white"/>
<path d="M238.454 223.603C237.15 219.291 237.423 214.657 239.224 210.528C241.025 206.398 244.237 203.043 248.286 201.061C249.107 200.663 249.765 201.918 248.944 202.317C245.169 204.155 242.178 207.281 240.508 211.13C238.839 214.978 238.602 219.296 239.84 223.304C240.108 224.175 238.72 224.469 238.454 223.603Z" fill="white"/>
<path d="M208.331 248.229C216.417 252.652 225.873 253.868 234.816 251.635C235.702 251.413 236 252.798 235.116 253.019C225.805 255.326 215.966 254.04 207.563 249.42C206.762 248.979 207.535 247.791 208.331 248.229Z" fill="white"/>
<path d="M279.021 215.84C279.177 217.613 279.772 219.32 280.752 220.807C281.732 222.294 283.067 223.514 284.636 224.358C285.442 224.789 284.668 225.977 283.867 225.549C282.138 224.608 280.666 223.258 279.58 221.618C278.493 219.977 277.825 218.096 277.635 216.139C277.601 215.956 277.639 215.767 277.74 215.611C277.841 215.454 277.997 215.342 278.178 215.297C278.362 215.258 278.554 215.294 278.711 215.395C278.869 215.497 278.98 215.657 279.021 215.84Z" fill="white"/>
<path d="M216.362 251.19C209.576 218.417 201.094 207.49 201.094 207.49L197.853 204.98L193.956 201.956L193.975 201.568L193.05 201.254L192.833 201.085L192.477 200.812L192.42 200.874L192.299 200.999L174.665 195.012L152.292 187.421L141.932 173.971C140.245 171.78 138.073 170.01 135.586 168.798C133.099 167.587 130.365 166.967 127.598 166.987L94.5118 167.232C90.0381 167.265 85.7387 168.968 82.4587 172.007L60.7117 192.156L26.8256 208.32L26.7684 208.263L26.4126 208.517L21.1769 211.018L21.393 212.141L18.1524 214.477C18.1524 214.477 9.66976 224.644 2.88364 255.139C1.15733 262.899 0.307577 279.544 0.000861935 300.055C-0.0145444 301.092 0.176718 302.123 0.563522 303.086C0.950326 304.049 1.52496 304.926 2.25401 305.665C2.98305 306.404 3.85197 306.991 4.81023 307.392C5.7685 307.793 6.79699 308 7.83591 308H188.828V308H211.418C212.456 308 213.484 307.793 214.442 307.393C215.399 306.992 216.268 306.406 216.997 305.667C217.726 304.929 218.3 304.053 218.688 303.091C219.075 302.129 219.267 301.1 219.253 300.063C218.954 277.744 218.104 259.605 216.362 251.19Z" fill="#3F3D56"/>
<path d="M239.584 28.5813C232.543 28.5813 225.789 31.3753 220.81 36.3487C215.831 41.3221 213.034 48.0674 213.034 55.1009C213.034 62.1343 215.831 68.8796 220.81 73.853C225.789 78.8264 232.543 81.6204 239.584 81.6204H437.449C444.491 81.6204 451.244 78.8264 456.223 73.853C461.203 68.8796 464 62.1343 464 55.1009C464 48.0674 461.203 41.3221 456.223 36.3487C451.244 31.3753 444.491 28.5813 437.449 28.5813H239.584Z" fill="#E5E5E5"/>
<path d="M239.584 33.9482C233.968 33.9482 228.581 36.1768 224.61 40.1437C220.638 44.1105 218.407 49.4908 218.407 55.1008C218.407 60.7108 220.638 66.091 224.61 70.0578C228.581 74.0247 233.968 76.2533 239.584 76.2533H437.449C443.066 76.2533 448.452 74.0247 452.424 70.0578C456.396 66.091 458.627 60.7108 458.627 55.1008C458.627 49.4908 456.396 44.1105 452.424 40.1437C448.452 36.1768 443.066 33.9482 437.449 33.9482H239.584Z" fill="white"/>
<path d="M116.251 154.572C140.19 154.572 159.597 135.188 159.597 111.276C159.597 87.365 140.19 67.981 116.251 67.981C92.3114 67.981 72.9047 87.365 72.9047 111.276C72.9047 135.188 92.3114 154.572 116.251 154.572Z" fill="#9E616A"/>
<path d="M105.162 152.452C104.977 152.045 104.792 151.636 104.608 151.226C104.679 151.228 104.749 151.239 104.82 151.24L105.162 152.452Z" fill="#2F2E41"/>
<path d="M71.6992 69.9497C73.8915 68.2029 76.4538 66.5956 79.2568 66.686C82.0597 66.7762 84.9021 69.3048 84.3214 72.0452C89.4698 62.9401 97.6646 55.9372 107.467 52.2658C117.27 48.5944 128.054 48.489 137.927 51.9681C144.893 54.4231 151.725 59.3344 153.325 66.5379C153.736 68.3871 153.824 70.4146 154.98 71.9162C156.438 73.8094 159.226 74.2377 161.522 73.5717C161.545 73.565 161.568 73.5583 161.591 73.5514C161.979 73.4191 162.398 73.4061 162.793 73.5141C163.188 73.6221 163.542 73.8461 163.809 74.1571C164.075 74.4681 164.242 74.8519 164.288 75.2587C164.334 75.6656 164.257 76.0768 164.066 76.4392L162.095 80.1111C164.579 80.6643 167.161 80.6094 169.62 79.9512C170.029 79.8442 170.46 79.866 170.856 80.0137C171.251 80.1614 171.592 80.4278 171.83 80.7762C172.068 81.1246 172.192 81.538 172.185 81.9598C172.179 82.3815 172.042 82.791 171.793 83.1319C165.294 92.0451 154.435 97.8008 143.354 97.7331C135.478 97.6851 127.521 94.974 119.856 96.783C116.891 97.4828 114.12 98.8369 111.747 100.746C109.374 102.655 107.459 105.07 106.142 107.815C104.826 110.559 104.141 113.563 104.139 116.607C104.136 119.65 104.816 122.655 106.128 125.402C103.773 122.83 99.2213 123.439 96.8126 125.961C94.404 128.483 93.7804 132.248 94.0232 135.725C94.3943 141.044 96.4804 146.055 98.6797 150.932C80.2408 150.353 62.8006 137.433 56.9302 119.959C51.0351 102.412 57.2133 81.492 71.6992 69.9497Z" fill="#2F2E41"/>
<path opacity="0.2" d="M42.6638 241.295L54.8214 307.365L62.1162 308L42.6638 241.295Z" fill="black"/>
<path opacity="0.2" d="M176.582 236.313L164.425 307.318L157.13 308L176.582 236.313Z" fill="black"/>
<path d="M82.0687 47.7142C79.7377 48.6864 77.3053 47.6209 76.2852 45.1808C75.2495 42.7034 76.2168 40.1886 78.5853 39.2008C80.9539 38.2129 83.3429 39.281 84.3953 41.7983C85.4319 44.2779 84.4751 46.7105 82.0687 47.7142ZM77.6034 34.3245L75.75 35.0975C75.2869 35.2883 74.7691 35.2986 74.2988 35.1263C73.8286 34.9541 73.4402 34.6118 73.2105 34.1672L73.1188 33.9881C71.1245 30.3956 70.8962 26.0295 72.4437 21.0179C73.8773 16.5222 74.4728 13.3604 73.2753 10.496C71.8908 7.18416 68.9343 6.14673 65.1642 7.64957C63.702 8.25943 63.2367 8.24971 62.0859 9.3899C61.8356 9.64093 61.5373 9.83905 61.2086 9.97243C60.88 10.1058 60.5279 10.1717 60.1732 10.1663C59.8304 10.1622 59.4918 10.0893 59.1778 9.95173C58.8638 9.8142 58.5807 9.61491 58.3454 9.36575C57.8922 8.88558 57.6383 8.25152 57.6349 7.5916C57.6316 6.93168 57.8791 6.29508 58.3275 5.81037C60.2616 3.78805 62.5945 2.18814 65.1788 1.11159C73.2792 -2.26691 77.357 2.72096 79.223 7.18464C81.0483 11.5506 80.0215 15.6015 78.3718 20.8479C76.9894 25.2072 77.0699 28.4375 78.6403 31.6493C78.7537 31.8922 78.8168 32.1554 78.8258 32.4231C78.8347 32.6909 78.7895 32.9577 78.6926 33.2076C78.5958 33.4575 78.4494 33.6852 78.2622 33.8771C78.075 34.069 77.851 34.2212 77.6034 34.3245L77.6034 34.3245Z" fill="#0181FF"/>
<path d="M283.29 67.7488H243.922C243.797 67.7496 243.673 67.7257 243.558 67.6785C243.442 67.6313 243.336 67.5617 243.248 67.4737C243.159 67.3856 243.089 67.2809 243.04 67.1656C242.992 67.0503 242.968 66.9266 242.968 66.8016C242.968 66.6767 242.992 66.553 243.04 66.4377C243.089 66.3224 243.159 66.2177 243.248 66.1296C243.336 66.0416 243.442 65.972 243.558 65.9248C243.673 65.8775 243.797 65.8537 243.922 65.8545H283.29C283.541 65.8562 283.78 65.9567 283.957 66.1342C284.133 66.3116 284.232 66.5516 284.232 66.8016C284.232 67.0517 284.133 67.2917 283.957 67.4691C283.78 67.6465 283.541 67.7471 283.29 67.7488Z" fill="#0181FF"/>
<path d="M333.231 68.0647H293.863C293.738 68.0655 293.614 68.0417 293.498 67.9945C293.382 67.9472 293.277 67.8776 293.188 67.7896C293.099 67.7015 293.029 67.5968 292.981 67.4815C292.933 67.3662 292.908 67.2425 292.908 67.1176C292.908 66.9926 292.933 66.8689 292.981 66.7536C293.029 66.6383 293.099 66.5336 293.188 66.4455C293.277 66.3575 293.382 66.2879 293.498 66.2407C293.614 66.1935 293.738 66.1696 293.863 66.1704H333.231C333.356 66.1696 333.48 66.1935 333.595 66.2407C333.711 66.2879 333.817 66.3575 333.905 66.4455C333.994 66.5336 334.064 66.6383 334.113 66.7536C334.161 66.8689 334.185 66.9926 334.185 67.1176C334.185 67.2425 334.161 67.3662 334.113 67.4815C334.064 67.5968 333.994 67.7015 333.905 67.7896C333.817 67.8776 333.711 67.9472 333.595 67.9945C333.48 68.0417 333.356 68.0655 333.231 68.0647Z" fill="#0181FF"/>
<path d="M383.171 68.3801H343.803C343.553 68.3784 343.313 68.2779 343.137 68.1004C342.96 67.923 342.861 67.6831 342.861 67.433C342.861 67.1829 342.96 66.943 343.137 66.7655C343.313 66.5881 343.553 66.4876 343.803 66.4859H383.171C383.296 66.485 383.42 66.5089 383.536 66.5561C383.652 66.6033 383.757 66.6729 383.846 66.761C383.934 66.849 384.005 66.9537 384.053 67.069C384.101 67.1844 384.126 67.3081 384.126 67.433C384.126 67.5579 384.101 67.6816 384.053 67.7969C384.005 67.9123 383.934 68.017 383.846 68.105C383.757 68.193 383.652 68.2627 383.536 68.3099C383.42 68.3571 383.296 68.381 383.171 68.3801H383.171Z" fill="#0181FF"/>
<path d="M433.111 68.696H393.744C393.493 68.6943 393.254 68.5938 393.077 68.4163C392.901 68.2389 392.802 67.999 392.802 67.7489C392.802 67.4988 392.901 67.2589 393.077 67.0814C393.254 66.904 393.493 66.8035 393.744 66.8018H433.111C433.362 66.8035 433.601 66.904 433.778 67.0814C433.954 67.2589 434.053 67.4988 434.053 67.7489C434.053 67.999 433.954 68.2389 433.778 68.4163C433.601 68.5938 433.362 68.6943 433.111 68.696Z" fill="#0181FF"/>
<path d="M263.52 59.0325C267.561 59.0325 270.836 55.7605 270.836 51.7243C270.836 47.688 267.561 44.416 263.52 44.416C259.479 44.416 256.203 47.688 256.203 51.7243C256.203 55.7605 259.479 59.0325 263.52 59.0325Z" fill="#0181FF"/>
<path d="M313.762 59.0325C317.803 59.0325 321.079 55.7605 321.079 51.7243C321.079 47.688 317.803 44.416 313.762 44.416C309.721 44.416 306.445 47.688 306.445 51.7243C306.445 55.7605 309.721 59.0325 313.762 59.0325Z" fill="#0181FF"/>
<path d="M364.004 59.0325C368.045 59.0325 371.321 55.7605 371.321 51.7243C371.321 47.688 368.045 44.416 364.004 44.416C359.963 44.416 356.687 47.688 356.687 51.7243C356.687 55.7605 359.963 59.0325 364.004 59.0325Z" fill="#0181FF"/>
<path d="M414.246 59.0325C418.287 59.0325 421.563 55.7605 421.563 51.7243C421.563 47.688 418.287 44.416 414.246 44.416C410.205 44.416 406.929 47.688 406.929 51.7243C406.929 55.7605 410.205 59.0325 414.246 59.0325Z" fill="#0181FF"/>
</svg>
