<svg width="276" height="421" viewBox="0 0 276 421" fill="none" xmlns="http://www.w3.org/2000/svg">
<mask id="mask0_1227_688" style="mask-type:alpha" maskUnits="userSpaceOnUse" x="0" y="0" width="276" height="421">
<rect width="276" height="421" fill="#C4C4C4"/>
</mask>
<g mask="url(#mask0_1227_688)">
<path d="M87.8806 394.335C87.7806 393.635 86.6806 393.635 85.7806 392.835C80.0806 388.535 97.2806 387.735 98.8806 387.635C104.581 387.535 110.481 388.335 116.181 387.935C130.681 386.935 145.081 383.435 159.681 383.935C172.181 384.335 184.781 387.735 197.081 385.235C199.681 384.735 202.381 383.935 204.781 384.935C207.181 385.935 208.481 389.635 206.381 391.135C216.581 391.735 226.881 392.435 237.081 393.035C237.981 393.135 238.981 393.235 239.581 393.935C240.181 394.735 239.781 396.035 238.981 396.635C238.181 397.235 237.081 397.435 236.081 397.635C224.981 399.435 213.881 401.135 202.781 402.935C210.581 403.535 218.281 405.835 225.181 409.635C226.581 410.435 228.181 411.635 227.781 413.135C227.481 414.635 225.581 415.235 224.081 415.435C207.681 417.735 190.781 416.835 174.681 412.935C176.481 414.235 175.681 417.235 173.781 418.335C171.881 419.435 169.581 419.135 167.381 418.835C160.081 417.735 152.781 416.735 145.481 415.635C146.681 418.135 144.481 421.135 141.781 421.835C139.081 422.535 136.281 421.835 133.581 421.335C119.581 419.035 105.881 425.035 91.8806 425.335C89.4806 425.335 86.9806 425.335 84.7806 424.235C79.4806 421.735 79.5806 415.335 83.8806 411.935C85.8806 410.435 88.1806 409.735 90.3806 408.735C89.1806 409.335 84.9806 408.135 83.5806 408.035C80.9806 407.835 78.3806 407.735 75.7806 407.435C70.7806 406.935 65.8806 406.035 61.0806 404.835C60.0806 404.635 59.0806 404.335 58.3806 403.535C56.4806 401.235 60.3806 399.435 61.9806 399.135C66.8806 398.035 71.8806 397.535 76.8806 397.035C79.2806 396.835 81.7806 397.035 84.1806 396.435C85.0806 396.235 87.3806 395.735 87.7806 394.835C87.7806 394.735 87.8806 394.535 87.8806 394.335Z" fill="white"/>
<path d="M140.881 362.535C140.181 363.035 138.981 362.935 138.381 362.235C137.781 361.535 137.581 360.535 137.981 359.635C138.381 358.835 139.181 358.235 140.081 358.035C141.081 357.835 142.281 358.235 142.981 359.035C143.781 359.835 141.781 361.835 140.881 362.535Z" fill="white"/>
<path d="M138.481 338.535C139.281 338.035 140.181 337.935 141.081 338.035C141.481 338.035 141.781 338.135 142.181 338.235C146.281 339.535 144.381 342.335 141.181 342.235C139.181 342.235 134.981 340.635 138.481 338.535Z" fill="white"/>
<path d="M55.5805 405.935C54.1805 406.235 52.7805 406.235 51.3805 405.935C49.9805 405.635 48.5805 405.035 47.3805 404.335C46.7805 403.935 46.1805 403.535 45.6805 402.735C45.4805 402.335 45.3805 401.735 45.4805 401.235C45.6805 400.735 45.9805 400.335 46.3805 400.135C47.0805 399.735 47.9805 399.735 48.5805 399.735C49.2805 399.735 49.8805 399.735 50.4805 399.435C50.0805 400.035 49.2805 400.335 48.5805 400.435C47.9805 400.535 47.4805 400.635 46.9805 401.035C46.5805 401.435 46.5805 401.635 46.7805 402.035C46.9805 402.435 47.5805 402.735 48.0805 403.135C50.3805 404.535 52.8805 405.435 55.5805 405.935Z" fill="white"/>
<path d="M44.2805 405.035C43.6805 405.435 42.8805 405.635 42.0805 405.535C41.2805 405.435 40.5805 405.135 39.8805 404.735C39.2805 404.335 38.6805 403.635 38.3805 403.035C38.0805 402.335 37.8805 401.535 38.0805 400.835C38.8805 402.135 39.6805 402.935 40.7805 403.635C41.7805 404.235 42.8805 404.735 44.2805 405.035Z" fill="white"/>
<path d="M73.9805 417.435C73.2805 417.835 72.4805 417.835 71.6805 417.635C70.8805 417.435 70.1805 416.935 69.6805 416.235C69.1805 415.535 68.9805 414.735 68.9805 413.935C68.9805 413.135 69.3805 412.335 69.9805 411.835C69.8805 412.635 69.9805 413.235 70.0805 413.835C70.1805 414.435 70.4805 414.935 70.7805 415.435C71.0805 415.935 71.4805 416.335 72.0805 416.635C72.6805 416.935 73.2805 417.235 73.9805 417.435Z" fill="white"/>
<path d="M183.281 420.835C185.281 421.035 187.281 421.135 189.281 421.235C191.281 421.335 193.281 421.435 195.281 421.435C197.281 421.435 199.281 421.335 201.281 421.235C203.281 421.135 205.281 420.935 207.281 420.835C205.381 421.535 203.381 422.035 201.381 422.335C199.381 422.635 197.281 422.835 195.281 422.835C193.281 422.835 191.181 422.635 189.181 422.335C187.181 422.035 185.181 421.535 183.281 420.835Z" fill="white"/>
<path d="M227.381 419.135L227.181 419.035C229.681 418.535 232.181 417.735 234.281 416.535C235.381 415.935 236.381 415.235 237.281 414.435C238.181 413.635 238.881 412.635 238.481 411.835C238.281 411.035 237.081 410.535 235.881 410.135C234.681 409.735 233.381 409.435 232.181 409.135C229.681 408.535 227.181 407.935 224.681 407.335C227.281 407.335 229.881 407.535 232.381 408.035C233.681 408.235 234.881 408.535 236.181 408.835C236.781 409.035 237.481 409.235 238.181 409.535C238.781 409.835 239.481 410.435 239.781 411.335C240.081 412.135 239.881 413.135 239.481 413.735C239.081 414.435 238.581 414.935 238.081 415.335C236.981 416.135 235.881 416.835 234.681 417.435C232.281 418.535 229.681 419.135 227.081 419.035L227.381 419.135Z" fill="white"/>
<path d="M236.38 399.935C237.88 399.235 239.38 398.535 240.98 398.035C242.48 397.435 244.381 397.135 244.781 396.135C245.281 395.335 243.68 394.135 242.48 393.335C241.18 392.535 239.68 391.935 237.98 391.435C239.68 391.235 241.38 391.635 242.98 392.335C243.78 392.735 244.48 393.135 245.18 393.735C245.58 394.035 245.881 394.435 246.081 394.935C246.281 395.435 246.281 396.135 246.081 396.635C245.581 397.735 244.581 398.235 243.781 398.435C242.881 398.635 242.18 398.835 241.38 399.035C239.68 399.435 237.98 399.735 236.38 399.935Z" fill="white"/>
<path d="M199.781 382.435C201.881 381.335 204.481 381.235 206.781 381.935C207.981 382.235 208.981 382.835 209.981 383.535C210.981 384.235 211.781 385.135 212.281 386.235C210.381 384.935 208.481 383.935 206.381 383.335C204.281 382.535 202.081 382.335 199.781 382.435Z" fill="white"/>
<path d="M183.581 390.435C184.881 390.435 186.181 390.435 187.481 390.435C188.781 390.335 189.981 390.235 191.281 390.035C191.881 389.935 192.481 389.835 193.181 389.635C193.781 389.535 194.381 389.335 194.781 389.135C195.081 388.935 195.181 388.535 194.781 388.135C194.481 387.735 193.781 387.535 193.181 387.435C193.781 387.335 194.581 387.235 195.281 387.635C195.581 387.835 195.881 388.235 195.981 388.735C196.081 389.235 195.881 389.735 195.581 390.035C194.981 390.735 194.181 390.835 193.581 391.035C192.881 391.235 192.281 391.335 191.581 391.535C188.881 391.835 185.981 391.635 183.581 390.435Z" fill="#BFDFFF"/>
<path d="M175.48 390.835C177.88 391.735 180.28 392.435 182.78 392.835C183.98 393.035 185.28 393.135 186.48 393.135C187.68 393.135 188.98 393.135 190.28 393.035C189.08 393.635 187.88 394.035 186.48 394.235C185.18 394.435 183.78 394.435 182.48 394.235C179.88 393.735 177.28 392.635 175.48 390.835Z" fill="#BFDFFF"/>
<path d="M98.6771 400.251C98.2493 400.326 97.9964 400.662 98.0288 400.948C97.9185 401.259 98.0302 401.604 98.2052 401.864C98.555 402.386 99.1268 402.941 99.6193 403.437C100.604 404.43 101.732 405.397 102.78 406.306C103.828 407.214 105.082 408.014 106.256 408.754C107.431 409.495 108.748 410.21 110.065 410.925C108.591 410.748 107.084 410.284 105.72 409.796C104.339 409.165 103.085 408.365 101.895 407.482C100.767 406.514 99.703 405.463 98.7652 404.243C98.3359 403.663 97.9067 403.083 97.5877 402.192C97.476 401.847 97.4746 401.191 97.7274 400.855C97.9009 400.46 98.3757 400.158 98.6771 400.251Z" fill="#BFDFFF"/>
<path d="M189.081 409.335C190.081 409.435 191.081 409.535 192.081 409.635C193.081 409.735 193.981 409.835 194.981 409.835C195.981 409.935 196.881 409.935 197.881 410.035C198.381 410.035 198.781 410.035 199.081 409.835C199.481 409.635 199.781 409.335 199.781 408.835C200.081 409.335 199.881 410.035 199.481 410.435C199.081 410.835 198.481 411.035 197.881 411.135C196.881 411.335 195.781 411.335 194.781 411.335C192.881 411.035 190.781 410.535 189.081 409.335Z" fill="#BFDFFF"/>
<path d="M186.38 406.435C186.88 405.935 187.581 405.535 188.281 405.235C188.981 404.935 189.68 404.735 190.38 404.635C191.08 404.535 191.881 404.535 192.581 404.635C193.281 404.735 193.98 404.935 194.68 405.335C193.98 405.535 193.281 405.635 192.581 405.735C191.881 405.835 191.281 405.935 190.581 406.035C189.881 406.135 189.281 406.235 188.581 406.235C187.781 406.335 187.08 406.435 186.38 406.435Z" fill="#BFDFFF"/>
<path d="M123.881 391.735C126.981 390.735 130.181 390.335 133.381 390.135C136.581 389.935 139.881 389.935 143.081 390.035C149.581 390.235 155.981 390.835 162.381 392.135C165.581 392.735 168.681 393.535 171.881 394.335C173.481 394.735 174.981 395.235 176.581 395.735C177.381 396.035 178.181 396.235 178.981 396.635C179.381 396.835 179.781 397.235 180.081 397.735C180.381 398.235 180.381 398.835 180.281 399.335C180.081 400.335 179.381 401.135 178.581 401.635C177.781 402.135 176.981 402.335 176.281 402.635C174.781 403.135 173.181 403.735 171.681 404.135C168.581 405.035 165.381 405.835 162.181 406.535C155.781 407.835 149.281 408.435 142.781 408.435C136.281 408.435 129.781 407.835 123.381 406.735C120.181 406.235 116.981 405.535 113.881 404.835C112.281 404.535 110.681 404.135 109.181 403.535C108.381 403.235 107.681 402.935 107.081 402.335C106.981 402.135 106.781 402.035 106.681 401.835C106.581 401.635 106.481 401.435 106.381 401.235C106.281 400.835 106.381 400.335 106.581 400.035C107.081 399.335 107.781 398.935 108.481 398.535C109.181 398.135 109.981 397.835 110.681 397.535C112.181 396.935 113.581 396.135 115.081 395.435C117.881 394.035 120.781 392.635 123.881 391.735ZM123.881 391.735C120.781 392.735 117.881 394.235 115.081 395.635C113.681 396.335 112.281 397.135 110.681 397.735C109.981 398.035 109.181 398.335 108.481 398.735C107.781 399.135 107.081 399.535 106.681 400.235C106.181 400.935 106.581 401.735 107.181 402.235C107.781 402.735 108.481 403.035 109.281 403.335C110.781 403.835 112.381 404.135 113.981 404.435C117.181 404.935 120.381 405.635 123.581 406.035C129.981 406.935 136.381 407.435 142.781 407.235C149.181 407.135 155.581 406.435 161.881 405.135C164.981 404.535 168.181 403.735 171.281 402.835C172.781 402.335 174.381 401.935 175.881 401.335C176.681 401.035 177.381 400.835 177.981 400.435C178.581 400.035 178.981 399.535 179.081 398.935C179.181 398.335 178.981 397.835 178.381 397.535C177.781 397.135 177.081 396.935 176.281 396.635C174.781 396.135 173.281 395.535 171.681 395.135C168.581 394.135 165.481 393.335 162.381 392.635C156.081 391.235 149.681 390.335 143.181 390.035C139.981 389.935 136.681 389.935 133.481 390.035C130.181 390.335 126.981 390.735 123.881 391.735Z" fill="#BFDFFF"/>
<path d="M120.781 399.135C120.581 398.235 121.081 397.335 121.881 396.835C122.681 396.335 123.581 396.235 124.481 396.135C135.181 394.735 145.981 393.235 156.781 394.335C157.881 394.435 159.081 394.635 159.981 395.135C160.981 395.635 161.781 396.735 161.681 397.835C161.581 399.535 159.781 400.435 158.181 400.935C151.381 403.335 144.081 404.335 136.881 403.735C133.581 403.435 121.781 402.935 120.781 399.135Z" fill="#BFDFFF"/>
<path d="M132.281 398.235C134.181 398.535 136.281 397.535 137.281 395.835C137.681 395.135 137.881 394.235 138.381 393.535C138.881 392.835 139.681 392.235 140.481 392.435C141.281 392.635 141.681 393.335 141.981 394.035C142.281 394.735 142.481 395.535 142.981 396.135C143.881 397.235 145.481 397.335 146.881 397.235C147.981 397.135 153.381 397.435 150.681 399.035" fill="#BFDFFF"/>
<path d="M132.281 398.235C134.481 398.235 136.381 396.935 136.981 395.135C137.181 394.635 137.381 394.135 137.581 393.635C137.881 393.135 138.281 392.535 138.781 392.135C139.281 391.735 140.181 391.535 140.981 391.935C141.681 392.235 142.081 392.835 142.381 393.335C142.881 394.435 143.081 395.435 143.681 395.935C144.281 396.435 145.281 396.635 146.281 396.635C147.381 396.635 148.481 396.735 149.581 397.035C150.081 397.135 150.681 397.335 151.181 397.635C151.281 397.735 151.481 397.835 151.481 398.035C151.481 398.235 151.381 398.435 151.281 398.535C151.081 398.735 150.781 398.835 150.581 398.935C150.781 398.735 150.981 398.535 151.081 398.335C151.181 398.135 151.081 398.035 150.881 397.935C150.481 397.735 149.881 397.735 149.381 397.635C148.281 397.535 147.281 397.535 146.281 397.735C145.181 397.835 143.881 397.735 142.781 397.035C142.281 396.635 141.881 396.035 141.681 395.435C141.481 394.935 141.281 394.335 141.081 394.035C140.881 393.635 140.581 393.335 140.381 393.235C140.081 393.135 139.781 393.135 139.481 393.335C138.781 393.735 138.381 394.635 137.881 395.635C136.981 397.735 134.381 398.835 132.281 398.235Z" fill="#BFDFFF"/>
<path d="M142.805 306.216C141.498 307.141 139.256 306.956 138.136 305.661C137.015 304.366 136.642 302.515 137.389 300.85C138.136 299.369 139.63 298.259 141.311 297.889C143.179 297.519 145.42 298.259 146.727 299.739C148.035 301.22 144.299 304.921 142.805 306.216Z" fill="white"/>
<path d="M138.369 254.804C139.777 253.86 141.361 253.671 142.944 253.86C143.648 253.86 144.176 254.049 144.88 254.238C152.095 256.692 148.751 261.978 143.12 261.79C139.601 261.79 132.211 258.769 138.369 254.804Z" fill="white"/>
<path d="M132 200.001C132 195.787 134.314 191.573 138.052 189.465C141.79 187.358 146.595 187.183 150.511 189.29C153.181 190.695 155.317 193.329 154.961 196.314C154.783 198.245 153.359 200.001 151.757 201.406C150.155 202.811 148.553 204.04 147.129 205.621C144.993 208.43 143.57 214.225 138.942 212.469C135.026 211.064 132 203.865 132 200.001Z" fill="white"/>
<path d="M125.526 135.913C109.118 127.349 97.3886 109.821 96.7427 91.0574C96.0967 72.2941 105.131 53.3183 121.253 42.4291C132.121 34.9399 146.695 32.0171 157.598 39.4624C164.758 44.077 168.716 53.162 170.946 62.223C173.176 71.2839 174.723 79.988 177.996 88.7162C184.616 102.701 204.298 119.992 188.104 134.354C174.716 146.67 140.567 143.763 125.526 135.913Z" fill="white"/>
<path d="M62.3716 5.52854C22.54 -15.2605 -5.93343 -57.8117 -7.50141 -103.36C-9.0694 -148.909 12.861 -194.974 51.9983 -221.408C78.3811 -239.588 113.76 -246.683 140.227 -228.61C157.609 -217.407 167.216 -195.353 172.63 -173.357C178.044 -151.362 181.798 -130.232 189.745 -109.044C205.815 -75.0964 253.594 -33.1194 214.281 1.74285C181.783 31.6415 98.8839 24.5851 62.3716 5.52854Z" fill="white"/>
</g>
</svg>
