<svg width="32" height="32" viewBox="0 0 32 32" fill="none" xmlns="http://www.w3.org/2000/svg">
<circle cx="16" cy="16" r="16" fill="#0181FF"/>
<path d="M13.7083 23.9909C13.7083 21.322 13.7083 18.6757 13.7083 16.0023C13.1314 16.0023 12.5724 16.0023 12 16.0023C12 15.096 12 14.2169 12 13.3107C12.0754 13.3061 12.1509 13.2971 12.2307 13.2971C12.6434 13.2971 13.0605 13.288 13.4731 13.3016C13.655 13.3061 13.7171 13.2563 13.7127 13.066C13.7038 12.3772 13.7038 11.693 13.7083 11.0042C13.7127 10.2294 13.9257 9.52705 14.467 8.96517C14.9906 8.42141 15.6606 8.12688 16.3882 8.08156C17.5596 8.01359 18.7354 8.02266 19.9113 8C19.9246 8 19.9379 8.01359 19.9645 8.02719C19.9645 8.93798 19.9645 9.8533 19.9645 10.7913C19.8802 10.7958 19.8003 10.8003 19.7249 10.8003C19.1925 10.8003 18.66 10.8003 18.1276 10.8003C17.5907 10.8049 17.2757 11.1311 17.2757 11.6703C17.2757 12.1824 17.2757 12.699 17.2801 13.211C17.2801 13.2246 17.289 13.2382 17.3023 13.288C18.1808 13.288 19.0682 13.288 20 13.288C19.8846 14.2079 19.7781 15.0869 19.6628 15.9977C18.8597 15.9977 18.0743 15.9977 17.2668 15.9977C17.2668 18.6803 17.2668 21.3356 17.2668 24C16.0732 23.9909 14.9107 23.9909 13.7083 23.9909Z" fill="white"/>
</svg>
