<svg width="185" height="525" viewBox="0 0 185 525" fill="none" xmlns="http://www.w3.org/2000/svg">
<path d="M101.805 438.422C100.498 439.347 98.2564 439.162 97.1358 437.867C96.0151 436.571 95.6416 434.721 96.3887 433.055C97.1358 431.575 98.6299 430.464 100.311 430.094C102.179 429.724 104.42 430.464 105.727 431.945C107.035 433.425 103.299 437.126 101.805 438.422Z" fill="white"/>
<path d="M97.3694 395.01C98.7771 394.066 100.361 393.877 101.944 394.066C102.648 394.066 103.176 394.255 103.88 394.443C111.095 396.898 107.751 402.184 102.12 401.995C98.6011 401.995 91.2105 398.974 97.3694 395.01Z" fill="white"/>
<path d="M91 345.207C91 340.993 93.3139 336.778 97.0518 334.671C100.79 332.564 105.595 332.388 109.511 334.495C112.181 335.9 114.317 338.534 113.961 341.519C113.783 343.451 112.359 345.207 110.757 346.612C109.155 348.017 107.553 349.246 106.129 350.826C103.993 353.636 102.57 359.431 97.9417 357.675C94.0259 356.27 91 349.07 91 345.207Z" fill="white"/>
<path d="M73.0954 457.249C77.121 460.788 82.3207 462.979 87.6882 463.148C91.0428 463.316 94.5652 462.642 96.7457 460.114C99.5972 456.912 99.2617 451.688 102.113 448.485C104.126 446.294 107.481 445.452 110.332 446.632C113.016 447.811 114.861 450.845 114.693 453.879C114.525 455.901 113.519 457.923 114.358 459.777C115.196 461.8 117.712 462.642 119.893 462.305C122.073 461.968 123.919 460.451 125.596 459.103C129.621 456.238 133.815 453.541 138.344 451.182C140.021 450.339 141.866 449.497 143.879 449.497C145.724 449.497 147.904 450.508 148.408 452.362C148.911 453.879 148.24 455.564 148.743 457.081C149.414 459.103 151.93 459.946 154.111 459.777C156.291 459.609 158.136 458.429 160.317 457.923C162.329 457.249 164.845 457.249 166.355 458.597C168.536 460.451 168.032 464.328 166.02 466.35C164.007 468.372 161.155 469.384 158.304 470.058C142.537 474.271 126.602 477.979 110.332 479.327C94.062 480.676 77.4564 479.664 61.8572 474.777C59.3412 473.934 56.6575 473.091 54.477 471.406C53.3028 470.563 49.7804 467.361 50.9546 465.507C51.7932 464.159 56.8252 464.833 58.3348 464.496C63.87 463.654 69.0698 461.126 73.0954 457.249Z" fill="#236FBD"/>
<path d="M33.5103 478.147C30.9943 477.979 27.9751 477.81 27.1365 475.451C26.2978 473.26 28.3106 471.069 30.6589 470.395C32.8394 469.889 35.1877 470.563 37.5359 470.732C39.8842 471.069 42.4002 470.732 43.7421 468.878C45.4194 466.687 44.2453 462.979 41.897 461.294C39.5487 459.608 36.5295 459.271 33.6781 458.934C30.8266 458.597 27.8074 458.26 25.6269 456.575C23.4463 454.889 22.2722 451.182 24.285 448.991C25.4591 447.642 27.4719 447.305 29.317 447.305C35.6909 447.137 41.897 450.002 46.2581 454.721C48.6063 457.418 50.4514 460.62 52.7997 463.316C55.1479 466.013 58.3349 468.372 61.8573 468.372C65.3797 468.372 69.0698 465.17 68.5666 461.631C68.0634 458.26 64.3733 456.406 61.1863 455.227C57.9994 453.878 54.477 451.687 54.477 448.317C54.477 445.452 56.993 443.261 59.6767 442.755C62.3605 442.249 65.2119 442.924 67.8957 443.766C72.089 445.114 76.6178 446.8 79.1338 450.508C81.6498 454.215 81.8175 459.271 84.1658 463.148C86.6818 467.698 91.8815 470.226 97.0812 470.732C102.281 471.237 107.313 470.058 112.345 468.541C126.938 464.159 140.692 457.08 152.601 447.811C154.781 446.126 157.297 444.103 159.981 443.935C162.833 443.766 165.852 446.294 165.013 449.159C164.342 451.519 161.491 452.193 159.31 452.867C153.272 454.721 147.737 458.26 143.711 463.316C143.04 464.159 142.201 465.507 142.705 466.518C143.208 467.53 144.717 467.698 145.892 467.193C147.066 466.687 147.904 465.844 148.911 465.339C153.607 463.316 158.136 468.878 163.168 469.552C167.026 470.058 170.548 467.53 174.239 466.013C177.929 464.496 183.128 464.496 184.638 468.035C185.812 470.732 183.967 474.102 181.451 475.619C176.084 478.653 169.542 475.956 163.336 475.788C154.446 475.451 145.556 481.012 142.201 489.271C140.692 492.81 140.189 496.686 137.673 499.72C134.653 503.428 129.789 504.607 125.093 505.45C112.513 508.146 99.9327 510.675 87.185 510.506C77.121 510.337 65.8829 508.315 57.3285 502.753C54.1415 500.731 53.8061 498.54 53.1351 495.001C52.2965 490.787 50.1159 487.248 47.2645 484.215C43.4066 481.012 38.5423 478.484 33.5103 478.147Z" fill="white"/>
<path d="M170.716 470.9C171.387 469.889 172.226 469.215 173.232 468.709C174.239 468.204 175.077 467.698 176.251 467.361C177.258 467.024 178.432 466.855 179.774 467.024C180.445 467.193 180.948 467.361 181.619 467.698C181.954 467.867 182.122 468.204 182.29 468.372C182.457 468.709 182.457 469.046 182.457 469.215C181.451 468.541 180.612 468.709 179.774 468.878C178.935 469.046 177.929 469.383 176.922 469.721C174.909 470.058 173.064 470.732 170.716 470.9Z" fill="#BFDFFF"/>
<path d="M25.9623 451.519C27.3042 450.676 28.8138 450.17 30.3234 450.002C31.833 449.833 33.5103 449.833 35.0199 450.339C36.5295 450.676 38.0391 451.35 39.2133 452.361C40.5551 453.204 41.5615 454.552 42.2325 455.901C40.8906 455.227 39.5487 454.552 38.2069 454.047C36.865 453.541 35.6909 453.036 34.349 452.698C31.833 451.856 28.9815 451.687 25.9623 451.519Z" fill="#BFDFFF"/>
<path d="M60.8509 446.126C62.1927 445.957 63.5346 446.126 64.7087 446.463C66.0506 446.8 67.2247 447.137 68.3989 447.811C69.573 448.317 70.7471 449.159 71.7535 450.002C72.7599 450.845 73.7663 452.025 73.934 453.373C72.9276 452.53 71.7535 452.025 70.7471 451.519L67.3925 450.002C65.2119 448.822 63.0314 447.811 60.8509 446.126Z" fill="#BFDFFF"/>
<path d="M52.1287 496.181C48.9418 496.855 46.0903 498.372 44.0775 500.563C43.5743 501.068 43.2389 501.742 42.9034 502.248C42.7357 502.754 42.7357 503.259 42.9034 503.596C43.4066 504.439 44.7485 505.113 46.2581 505.619C47.7677 506.124 49.2773 506.63 50.7869 507.135L53.1351 507.81C53.9738 507.978 54.9802 508.484 55.6511 509.158C55.9866 509.495 56.3221 510.169 56.4898 510.506C56.6575 511.012 56.6575 511.349 56.8253 511.686C56.993 512.36 57.3285 512.866 57.9994 513.203C59.1735 514.045 60.8508 514.045 62.5282 514.045C61.0186 514.551 59.3413 514.888 57.4962 514.214C56.6575 513.877 55.8189 513.203 55.4834 512.191C55.1479 511.349 54.9802 510.675 54.6447 510.338C53.8061 509.663 52.1287 509.495 50.4514 509.158C48.7741 508.821 47.2645 508.315 45.7549 507.641C44.9162 507.304 44.2453 506.967 43.4066 506.461C42.5679 505.956 41.7293 505.282 41.2261 504.27C40.7229 503.259 40.7229 501.911 41.2261 501.068C41.7293 500.057 42.2325 499.383 42.9034 498.877C45.2517 497.023 48.7741 495.844 52.1287 496.181Z" fill="white"/>
<path d="M72.7599 519.27C82.8239 520.955 92.8879 522.135 102.952 522.472C105.468 522.472 107.984 522.472 110.332 521.966C111.506 521.798 112.68 521.292 113.687 520.787C114.693 520.281 115.867 519.607 117.041 519.101C119.39 517.753 121.906 517.079 124.589 516.742C127.105 516.405 129.789 516.405 132.305 516.405C127.273 517.247 122.241 518.09 118.048 520.787C117.041 521.461 115.867 522.135 114.693 522.809C113.519 523.483 112.177 523.989 110.835 524.326C108.152 525 105.468 525 102.952 525C92.5524 524.494 82.3207 522.809 72.7599 519.27Z" fill="white"/>
<path d="M137.337 512.191C139.518 512.023 141.531 511.517 143.376 510.675C144.382 510.169 145.221 509.663 146.059 509.158C146.898 508.652 147.737 507.809 147.737 507.304C147.737 506.967 147.569 506.798 147.569 506.798C147.569 506.798 147.401 506.798 147.066 506.63C146.898 506.461 146.395 506.461 146.059 505.956C145.556 505.619 145.388 504.776 145.556 504.102C145.724 503.428 146.059 503.259 146.395 502.922C147.066 502.416 147.737 502.248 148.24 502.079L154.278 500.057C155.285 499.72 156.459 499.383 157.297 499.046C157.633 498.877 157.968 498.709 158.304 498.54C158.472 498.372 158.639 498.034 158.639 497.866C158.639 497.697 158.639 497.529 158.304 497.36C158.136 497.192 157.633 497.023 157.13 496.855C156.291 496.686 155.117 496.518 154.111 496.349C149.917 495.675 145.724 495.169 141.363 494.664C145.724 494.158 150.085 493.99 154.278 494.495C155.452 494.664 156.459 494.664 157.633 494.832C158.304 495.001 158.807 495.169 159.478 495.506C160.149 495.844 160.652 496.686 160.82 497.697C160.82 499.551 159.31 500.731 158.136 501.237C156.962 501.742 156.123 501.911 154.949 502.248L148.743 504.102C148.24 504.27 147.737 504.439 147.569 504.607C147.401 504.607 147.401 504.776 147.401 504.607C147.401 504.439 147.401 504.27 147.401 504.27C147.401 504.27 147.401 504.27 147.737 504.439C147.904 504.607 148.408 504.607 148.743 504.944C149.414 505.619 149.582 506.63 149.414 507.304C149.246 508.147 148.743 508.652 148.24 509.158C147.737 509.663 147.233 509.832 146.73 510.169C145.724 510.675 144.717 511.18 143.711 511.517C141.698 512.36 139.35 512.528 137.337 512.191Z" fill="white"/>
<path d="M73.0954 501.911C71.5858 500.9 70.2439 499.888 69.0698 498.709C67.8956 497.529 66.5538 496.349 65.7151 494.664C64.8765 493.147 64.3732 490.956 65.5474 489.271C66.0506 488.428 67.057 487.754 68.0634 487.585C69.0698 487.417 70.0762 487.585 70.9148 487.922C72.5922 488.597 74.1018 489.776 75.4436 490.619L79.637 493.484C82.4884 495.338 85.3399 497.36 88.0236 499.383L86.3463 500.394C86.0108 498.54 85.8431 496.349 87.0172 494.327C87.5204 493.315 88.5268 492.473 89.701 492.136C90.7074 491.799 92.0492 491.63 93.2234 492.304C94.3975 492.978 94.9007 494.158 95.4039 495.001C95.7394 495.844 96.0748 496.686 96.4103 496.855C96.7458 497.192 97.0812 497.192 97.7522 497.023C98.2554 496.855 98.9263 496.181 99.4295 495.675C100.436 494.495 101.275 492.641 102.616 491.293C103.958 489.776 106.139 488.597 108.655 489.102C109.829 489.439 110.835 490.282 111.506 491.293C111.842 491.799 112.009 492.473 112.009 493.147C112.009 493.821 111.674 494.495 111.339 495.001C111.003 495.506 110.668 495.844 110.5 496.012C110.332 496.181 110.332 496.518 110.332 496.518C110.332 496.686 110.332 496.518 110.164 496.518C110.164 496.518 110.332 496.518 110.668 496.349C111.171 496.012 111.842 495.169 112.68 494.664C113.351 493.99 114.022 493.484 114.861 492.978C116.371 491.799 117.88 490.787 119.39 489.945C122.577 488.091 125.931 486.574 129.454 485.394C130.292 485.057 131.131 484.72 132.137 484.72C132.641 484.72 133.144 484.72 133.647 484.72C134.15 484.889 134.821 485.226 135.157 485.731C135.492 486.237 135.66 486.911 135.492 487.417C135.492 487.922 135.157 488.428 134.989 488.934C134.486 489.776 133.815 490.45 133.312 491.125C130.796 493.821 128.112 496.349 125.093 498.372C127.944 496.012 130.46 493.484 132.641 490.619C133.144 489.945 133.815 489.271 134.15 488.428C134.486 487.754 134.653 486.911 134.15 486.406C133.815 485.9 132.976 485.731 132.305 485.9C131.467 486.068 130.628 486.406 129.789 486.743C126.435 487.922 123.248 489.608 120.228 491.63C118.719 492.641 117.377 493.653 115.867 494.832C115.196 495.338 114.525 496.012 113.855 496.518C113.184 497.023 112.68 497.697 111.674 498.372C111.171 498.709 110.668 499.046 109.661 498.877C109.158 498.877 108.823 498.54 108.487 498.203C108.152 497.866 107.984 497.36 107.984 497.023C107.984 496.181 108.152 495.506 108.487 495.001C108.823 494.495 109.158 494.158 109.326 493.821C109.661 493.315 109.661 492.978 109.326 492.304C108.99 491.799 108.487 491.293 107.984 491.293C106.81 490.956 105.3 491.63 104.294 492.81C103.791 493.315 103.287 494.158 102.784 494.832C102.281 495.506 101.778 496.349 101.107 497.192C100.436 498.034 99.5972 498.709 98.5908 499.214C98.0876 499.383 97.4167 499.551 96.7458 499.551C96.0748 499.551 95.4039 499.214 94.9007 498.709C93.8943 497.697 93.5588 496.686 93.2234 495.844C92.8879 495.001 92.5524 494.495 92.217 494.327C91.3783 493.821 89.5332 494.327 89.03 495.506C88.1914 496.855 88.0236 498.54 88.3591 500.225C88.5268 500.731 88.0236 501.405 87.5204 501.405C87.185 501.405 87.0172 501.405 86.6818 501.237C83.8303 499.214 81.1466 497.192 78.4628 495.169L74.2695 492.136C72.9276 491.125 71.5858 489.945 70.0762 489.439C69.4052 489.102 68.5666 488.934 67.8956 489.102C67.2247 489.102 66.5538 489.608 66.2183 490.113C65.3797 491.293 65.3797 493.147 66.2183 494.495C66.8892 496.012 68.0634 497.192 69.2375 498.54C70.4116 499.551 71.5858 500.731 73.0954 501.911Z" fill="#BFDFFF"/>
<path d="M1.64101 465.17C2.98288 463.99 4.99568 463.653 6.84074 463.653C13.3823 463.99 14.5565 472.08 8.35034 474.271C3.31834 476.125 -3.05552 469.384 1.64101 465.17Z" fill="white"/>
<path d="M13.0469 433.317C20.5948 429.778 26.9687 442.081 18.2466 443.935C11.8727 445.452 5.66659 436.856 13.0469 433.317Z" fill="white"/>
<path d="M32.8394 431.632C34.0135 430.283 35.6909 429.609 37.3682 429.272C39.5487 428.766 42.0647 428.766 44.2453 429.609C52.1287 432.643 50.2837 443.429 42.4002 444.946C36.0263 445.957 27.472 437.53 32.8394 431.632Z" fill="white"/>
<path d="M33.1749 416.295C39.5487 418.486 33.8458 424.89 28.9815 423.711C22.6077 421.857 27.4719 414.441 33.1749 416.295Z" fill="white"/>
<path d="M176.419 431.126C183.632 431.126 184.47 439.553 178.096 441.744C174.574 442.924 168.703 442.081 168.536 437.362C168.368 433.149 172.897 431.126 176.419 431.126Z" fill="white"/>
<path d="M76.7338 246.87C66.1231 241.332 58.538 229.997 58.1203 217.863C57.7027 205.729 63.5447 193.458 73.9705 186.417C80.9986 181.573 90.4232 179.683 97.4737 184.498C102.104 187.482 104.663 193.357 106.106 199.217C107.548 205.076 108.548 210.705 110.665 216.349C114.946 225.392 127.673 236.575 117.201 245.862C108.544 253.826 86.4603 251.946 76.7338 246.87Z" fill="white"/>
<path d="M54.5272 42.1626C70.2265 27.6061 93.8605 21.6073 114.528 28.1529C135.195 34.6986 152.329 51.8656 157.907 73.6261C161.829 88.3524 159.342 105.35 147.001 114.344C139.195 120.357 127.77 121.156 117.044 120.084C106.318 119.011 96.2456 117.333 85.4755 117.525C67.6849 119.33 41.2155 134.079 31.8875 110.898C23.6927 91.5641 40.1362 55.506 54.5272 42.1626Z" fill="white"/>
</svg>
