<svg width="187" height="218" viewBox="0 0 187 218" fill="none" xmlns="http://www.w3.org/2000/svg">
<path d="M147.022 218H39.979C29.3799 217.988 19.2181 213.777 11.7231 206.29C4.2282 198.802 0.0121821 188.651 0 178.062V129.03C0.0121093 118.441 4.22799 108.289 11.7229 100.802C19.2178 93.314 29.3797 89.1021 39.979 89.09H147.022C157.621 89.1023 167.783 93.3143 175.277 100.802C182.772 108.29 186.988 118.441 187 129.03V178.062C186.988 188.65 182.772 198.802 175.277 206.289C167.783 213.777 157.621 217.988 147.022 218ZM39.979 93.2719C30.4894 93.2827 21.3916 97.0536 14.6815 103.757C7.9713 110.461 4.19679 119.55 4.18594 129.03V178.062C4.19686 187.542 7.97141 196.631 14.6816 203.334C21.3918 210.037 30.4895 213.808 39.9789 213.818H147.022C156.511 213.808 165.609 210.037 172.319 203.334C179.029 196.631 182.803 187.542 182.814 178.062V129.03C182.803 119.55 179.029 110.461 172.319 103.757C165.609 97.0537 156.511 93.2828 147.022 93.2719L39.979 93.2719Z" fill="#0181FF"/>
<path d="M33.6389 191.385H128.65C133.582 191.385 138.465 190.414 143.021 188.529C147.578 186.644 151.717 183.88 155.205 180.396C158.692 176.913 161.458 172.777 163.345 168.225C165.232 163.673 166.204 158.795 166.204 153.868V112.836C166.196 108.286 165.357 103.775 163.727 99.5264C168.362 103.013 172.123 107.528 174.713 112.716C177.303 117.903 178.651 123.62 178.651 129.417V170.449C178.651 175.376 177.68 180.254 175.793 184.806C173.906 189.358 171.139 193.493 167.652 196.977C164.165 200.461 160.025 203.225 155.469 205.11C150.913 206.995 146.03 207.966 141.098 207.966H46.0866C38.4722 207.962 31.0392 205.644 24.7743 201.32C18.5094 196.996 13.7091 190.871 11.0106 183.758C17.5142 188.707 25.4637 191.386 33.6389 191.385Z" fill="#0181FF" fill-opacity="0.25"/>
<path d="M95.3786 5.75079C75.5354 5.75079 57.8623 10.8619 47.9866 24.3331C58.5443 16.657 75.7467 10.3364 88.8038 10.4425C118.62 10.0845 137.645 29.2095 140.075 53.6066V67.6818H150.875C150.875 67.6818 150.875 68.5606 150.875 49.8234C150.875 31.0862 126.107 5.75079 95.3786 5.75079Z" fill="#0181FF" fill-opacity="0.25"/>
<path d="M158.296 93.8294H28.7036V55.7369C28.7036 25.0036 57.7711 0 93.4998 0C129.229 0 158.296 25.0036 158.296 55.7369V93.8294ZM32.8895 89.6475H154.11V55.7369C154.11 27.309 126.921 4.1819 93.4998 4.1819C60.0787 4.1819 32.8895 27.309 32.8895 55.7369V89.6475Z" fill="#0181FF"/>
<path d="M126.689 79.2868H60.3107C57.3244 79.2834 54.4615 78.0967 52.35 75.987C50.2385 73.8774 49.0508 71.017 49.0477 68.0337V52.8743C49.0477 31.7381 68.9892 14.543 93.4998 14.543C118.01 14.543 137.952 31.7382 137.952 52.8743V68.0337C137.949 71.0171 136.761 73.8774 134.65 75.987C132.538 78.0967 129.675 79.2834 126.689 79.2868ZM93.4998 18.7249C71.2967 18.7249 53.2336 34.0435 53.2336 52.8742V68.0336C53.2355 69.9083 53.9817 71.7057 55.3084 73.0313C56.6352 74.357 58.4342 75.1027 60.3107 75.1049H126.689C128.565 75.1027 130.364 74.357 131.691 73.0313C133.018 71.7057 133.764 69.9083 133.766 68.0336V52.8742C133.766 34.0435 115.703 18.7249 93.4998 18.7249Z" fill="#0181FF"/>
<path fill-rule="evenodd" clip-rule="evenodd" d="M116.277 154.01C116.277 166.059 106.5 175.827 94.4394 175.827C82.3788 175.827 72.6017 166.059 72.6017 154.01C72.6017 141.961 82.3788 132.193 94.4394 132.193C106.5 132.193 116.277 141.961 116.277 154.01ZM123.556 154.01C123.556 170.075 110.52 183.099 94.4394 183.099C78.3585 183.099 65.3224 170.075 65.3224 154.01C65.3224 137.945 78.3585 124.921 94.4394 124.921C110.52 124.921 123.556 137.945 123.556 154.01ZM94.4394 168.554C102.48 168.554 108.998 162.043 108.998 154.01C108.998 145.977 102.48 139.466 94.4394 139.466C86.399 139.466 79.8809 145.977 79.8809 154.01C79.8809 162.043 86.399 168.554 94.4394 168.554Z" fill="#0181FF"/>
</svg>
