<svg width="82" height="30" viewBox="0 0 82 30" fill="none" xmlns="http://www.w3.org/2000/svg">
<path d="M3.50814 3.01895V3.10364H1.88055V3.01895H1.98386C2.07415 3.01895 2.14684 3.00293 2.20194 2.97089C2.24173 2.94952 2.27234 2.9129 2.29376 2.86102C2.3106 2.8244 2.31902 2.72827 2.31902 2.57263V0.531006C2.31902 0.372314 2.3106 0.273132 2.29376 0.233459C2.27693 0.193787 2.24249 0.159454 2.19046 0.130463C2.13996 0.0999451 2.07109 0.0846863 1.98386 0.0846863H1.88055V0H3.50814V0.0846863H3.40484C3.31454 0.0846863 3.24185 0.100708 3.18675 0.132751C3.14696 0.154114 3.11559 0.190735 3.09263 0.242615C3.0758 0.279236 3.06738 0.375366 3.06738 0.531006V2.57263C3.06738 2.73132 3.0758 2.83051 3.09263 2.87018C3.111 2.90985 3.14543 2.94495 3.19594 2.97546C3.24797 3.00446 3.3176 3.01895 3.40484 3.01895H3.50814Z" fill="#066BFF"/>
<path d="M10.7191 0H13.405V0.842285H13.3178C13.2887 0.686646 13.2397 0.559998 13.1709 0.462341C13.102 0.363159 13.0201 0.295258 12.9252 0.258636C12.8303 0.22049 12.685 0.201416 12.4891 0.201416H11.9197V1.40991H12.3307C12.7745 1.40991 13.0966 1.48773 13.2971 1.64337C13.4976 1.79901 13.5978 2.00653 13.5978 2.26593C13.5978 2.44293 13.5466 2.59552 13.444 2.72369C13.343 2.85187 13.2152 2.94724 13.0607 3.0098C12.9076 3.07236 12.6834 3.10364 12.3881 3.10364H10.7191V3.01895C10.912 3.0159 11.0352 2.99072 11.0887 2.94342C11.1438 2.89459 11.1714 2.78931 11.1714 2.62756V0.50354C11.1714 0.328064 11.1438 0.214386 11.0887 0.162506C11.0336 0.110626 10.9104 0.0846863 10.7191 0.0846863V0ZM11.9197 1.61133V2.54745C11.9197 2.69547 11.9404 2.79999 11.9817 2.86102C12.0231 2.92053 12.0996 2.95029 12.2113 2.95029C12.3903 2.95029 12.525 2.89001 12.6153 2.76947C12.7071 2.64893 12.7531 2.49863 12.7531 2.31857C12.7531 2.14462 12.7117 1.9989 12.6291 1.88141C12.5464 1.76239 12.4539 1.68762 12.3513 1.6571C12.2503 1.62659 12.1065 1.61133 11.9197 1.61133Z" fill="#066BFF"/>
<path d="M20.5921 0.0366211H22.2128V0.121307H22.16C22.0069 0.121307 21.9044 0.149536 21.8524 0.205994C21.8019 0.260925 21.7766 0.366211 21.7766 0.521851V1.44882C21.9909 1.44882 22.1301 1.44196 22.1944 1.42822C22.2587 1.41296 22.3184 1.371 22.3735 1.30234C22.4286 1.23215 22.4814 1.09787 22.5319 0.899506C22.5915 0.667572 22.6489 0.493622 22.704 0.377655C22.7607 0.261688 22.8379 0.170136 22.9359 0.102997C23.0354 0.0343323 23.1593 0 23.3078 0C23.4547 0 23.5725 0.0419617 23.6613 0.125885C23.7501 0.208282 23.7944 0.310516 23.7944 0.432587C23.7944 0.527191 23.7646 0.601959 23.7049 0.656891C23.6452 0.711823 23.571 0.739288 23.4822 0.739288C23.3078 0.739288 23.2137 0.63858 23.1999 0.437164C23.1938 0.336456 23.1586 0.286102 23.0943 0.286102C23.0254 0.286102 22.9665 0.325012 22.9175 0.402832C22.8685 0.480652 22.8157 0.62027 22.7591 0.821686C22.704 1.01852 22.6566 1.16653 22.6168 1.26572C22.577 1.36337 22.5204 1.44577 22.4469 1.51291C22.5449 1.53732 22.6199 1.56937 22.6719 1.60904C22.7255 1.64871 22.7737 1.70059 22.8165 1.76468C22.8594 1.82724 22.9512 1.98746 23.092 2.24533L23.4088 2.80838C23.4578 2.8923 23.5159 2.95486 23.5832 2.99606C23.6521 3.03574 23.7348 3.05557 23.8312 3.05557V3.14026H22.789L22.1485 1.95007C22.075 1.8158 22.0207 1.73492 21.9855 1.70746C21.9518 1.67847 21.8822 1.66168 21.7766 1.6571V2.70767C21.7766 2.85721 21.8072 2.95258 21.8684 2.99377C21.9312 3.03497 22.046 3.05557 22.2128 3.05557V3.14026H20.5921V3.05557C20.7711 3.05252 20.8882 3.02658 20.9433 2.97775C20.9999 2.9274 21.0282 2.82059 21.0282 2.65732V0.58136C21.0282 0.39978 21.006 0.27771 20.9617 0.215149C20.9173 0.152588 20.8163 0.121307 20.6586 0.121307H20.5921V0.0366211Z" fill="#066BFF"/>
<path d="M32.8602 6.44896V8.12895H32.6949C32.597 7.74138 32.4883 7.46367 32.369 7.29582C32.2496 7.12492 32.0858 6.98912 31.8777 6.88841C31.7614 6.83348 31.5579 6.80601 31.2671 6.80601H30.8034V11.5942C30.8034 11.9116 30.8202 12.11 30.8539 12.1893C30.8906 12.2687 30.9595 12.3388 31.0605 12.3999C31.1645 12.4579 31.3053 12.4869 31.4829 12.4869H31.6895V12.6562H28.4297V12.4869H28.6363C28.8169 12.4869 28.9623 12.4548 29.0725 12.3907C29.1521 12.348 29.2148 12.2748 29.2607 12.171C29.2944 12.0978 29.3112 11.9055 29.3112 11.5942V6.80601H28.8613C28.4419 6.80601 28.1374 6.89451 27.9476 7.07152C27.6813 7.31871 27.513 7.67119 27.4426 8.12895H27.2681V6.44896H32.8602Z" fill="#066BFF"/>
<path d="M35.7619 6.80601V9.33287H35.8858C36.2807 9.33287 36.5669 9.20927 36.7444 8.96208C36.9219 8.71489 37.0352 8.3502 37.0841 7.86802H37.2586V11.1181H37.0841C37.0474 10.7641 36.9694 10.4742 36.85 10.2484C36.7337 10.0226 36.5975 9.8715 36.4414 9.79521C36.2853 9.71586 36.0588 9.67619 35.7619 9.67619V11.4248C35.7619 11.7666 35.7756 11.9757 35.8032 12.052C35.8338 12.1283 35.8889 12.1908 35.9685 12.2397C36.0481 12.2885 36.1766 12.3129 36.3541 12.3129H36.726C37.3076 12.3129 37.7728 12.1786 38.1218 11.9101C38.4738 11.6415 38.7263 11.2326 38.8793 10.6833H39.0492L38.7691 12.6562H33.3882V12.4869H33.5948C33.7754 12.4869 33.9208 12.4548 34.031 12.3907C34.1106 12.348 34.1718 12.2748 34.2146 12.171C34.2483 12.0978 34.2651 11.9055 34.2651 11.5942V7.51097C34.2651 7.23021 34.2575 7.05778 34.2422 6.9937C34.2116 6.88688 34.1549 6.80449 34.0723 6.7465C33.956 6.66105 33.7968 6.61833 33.5948 6.61833H33.3882V6.44896H38.5992V8.28459H38.4248C38.336 7.83598 38.2105 7.51402 38.0483 7.31871C37.8891 7.1234 37.6626 6.97996 37.3688 6.88841C37.1974 6.83348 36.876 6.80601 36.4046 6.80601H35.7619Z" fill="#066BFF"/>
<path d="M42.0105 9.84556V11.5668C42.0105 11.9024 42.0304 12.1145 42.0702 12.203C42.1131 12.2885 42.1865 12.3572 42.2906 12.409C42.3977 12.4609 42.5921 12.4869 42.8737 12.4869V12.6562H39.7103V12.4869C39.998 12.4869 40.1924 12.4609 40.2934 12.409C40.3975 12.3541 40.4694 12.2839 40.5092 12.1985C40.552 12.113 40.5735 11.9024 40.5735 11.5668V7.53843C40.5735 7.20274 40.552 6.99217 40.5092 6.90672C40.4694 6.81822 40.3975 6.74803 40.2934 6.69615C40.1893 6.64427 39.995 6.61833 39.7103 6.61833V6.44896H42.4237C43.3175 6.44896 43.9587 6.60765 44.3474 6.92503C44.7362 7.24241 44.9305 7.63914 44.9305 8.11522C44.9305 8.51805 44.805 8.8629 44.554 9.14976C44.3031 9.43663 43.9572 9.63194 43.5164 9.7357C43.2195 9.80894 42.7176 9.84556 42.0105 9.84556ZM42.0105 6.80601V9.48851C42.1115 9.49461 42.188 9.49766 42.2401 9.49766C42.6135 9.49766 42.9012 9.3878 43.1032 9.16807C43.3052 8.94529 43.4062 8.60197 43.4062 8.1381C43.4062 7.67729 43.3052 7.34007 43.1032 7.12645C42.9012 6.91282 42.5997 6.80601 42.1988 6.80601H42.0105Z" fill="#066BFF"/>
<path d="M49.9763 7.47435C49.9732 7.13865 49.9319 6.91282 49.8523 6.79686C49.7758 6.67784 49.5814 6.61833 49.2692 6.61833H49.0626V6.44896H52.4004V6.61833H52.1846C51.8969 6.61833 51.7056 6.67326 51.6107 6.78312C51.5189 6.89299 51.473 7.13408 51.473 7.50639V11.5896C51.473 11.9711 51.5204 12.2168 51.6153 12.3266C51.7102 12.4335 51.9 12.4869 52.1846 12.4869H52.4004V12.6562H49.0626V12.4869H49.2692C49.56 12.4869 49.7498 12.4304 49.8385 12.3175C49.9304 12.2015 49.9763 11.9589 49.9763 11.5896V8.2205L47.7817 11.6537C47.7817 11.9498 47.8184 12.1634 47.8919 12.2946C47.9653 12.4228 48.1643 12.4869 48.4887 12.4869H48.7045V12.6562H45.3667V12.4869H45.5733C45.8641 12.4869 46.0554 12.4304 46.1472 12.3175C46.239 12.2015 46.2849 11.9589 46.2849 11.5896V7.50639C46.2849 7.13408 46.2482 6.89299 46.1747 6.78312C46.1013 6.67326 45.9008 6.61833 45.5733 6.61833H45.3667V6.44896H48.7045V6.61833H48.4887C48.2071 6.61833 48.0189 6.67936 47.924 6.80143C47.8291 6.92045 47.7817 7.15544 47.7817 7.50639V10.9076L49.9763 7.47435Z" fill="#066BFF"/>
<path d="M58.47 6.44896V8.12895H58.3047C58.2068 7.74138 58.0981 7.46367 57.9788 7.29582C57.8594 7.12492 57.6956 6.98912 57.4875 6.88841C57.3712 6.83348 57.1676 6.80601 56.8769 6.80601H56.4132V11.5942C56.4132 11.9116 56.43 12.11 56.4637 12.1893C56.5004 12.2687 56.5693 12.3388 56.6703 12.3999C56.7743 12.4579 56.9151 12.4869 57.0927 12.4869H57.2993V12.6562H54.0395V12.4869H54.2461C54.4267 12.4869 54.5721 12.4548 54.6823 12.3907C54.7618 12.348 54.8246 12.2748 54.8705 12.171C54.9042 12.0978 54.921 11.9055 54.921 11.5942V6.80601H54.4711C54.0517 6.80601 53.7472 6.89451 53.5574 7.07152C53.2911 7.31871 53.1228 7.67119 53.0524 8.12895H52.8779V6.44896H58.47Z" fill="#066BFF"/>
<path d="M62.3129 6.36198C63.3046 6.32536 64.1096 6.61375 64.7278 7.22715C65.3492 7.84056 65.6599 8.60808 65.6599 9.52971C65.6599 10.3171 65.4288 11.0098 64.9666 11.608C64.3544 12.4014 63.4897 12.7981 62.3725 12.7981C61.2523 12.7981 60.3861 12.4197 59.7739 11.6629C59.2903 11.0647 59.0485 10.3552 59.0485 9.53428C59.0485 8.61265 59.3622 7.84514 59.9897 7.23173C60.6202 6.61528 61.3946 6.32536 62.3129 6.36198ZM62.368 6.65495C61.7986 6.65495 61.3655 6.94487 61.0686 7.5247C60.8268 8.00078 60.7059 8.68437 60.7059 9.57548C60.7059 10.6344 60.8926 11.4172 61.2661 11.9238C61.5262 12.2778 61.8905 12.4548 62.3588 12.4548C62.674 12.4548 62.9373 12.3785 63.1485 12.2259C63.4178 12.0306 63.6275 11.7193 63.7775 11.2921C63.9274 10.8618 64.0024 10.3018 64.0024 9.6121C64.0024 8.79118 63.9259 8.17778 63.7729 7.77189C63.6198 7.36296 63.4239 7.07457 63.1852 6.90672C62.9495 6.73887 62.6771 6.65495 62.368 6.65495Z" fill="#066BFF"/>
<path d="M68.5385 9.84556V11.5668C68.5385 11.9024 68.5584 12.1145 68.5982 12.203C68.6411 12.2885 68.7145 12.3572 68.8186 12.409C68.9257 12.4609 69.1201 12.4869 69.4017 12.4869V12.6562H66.2384V12.4869C66.5261 12.4869 66.7204 12.4609 66.8214 12.409C66.9255 12.3541 66.9974 12.2839 67.0372 12.1985C67.0801 12.113 67.1015 11.9024 67.1015 11.5668V7.53843C67.1015 7.20274 67.0801 6.99217 67.0372 6.90672C66.9974 6.81822 66.9255 6.74803 66.8214 6.69615C66.7174 6.64427 66.523 6.61833 66.2384 6.61833V6.44896H68.9518C69.8455 6.44896 70.4868 6.60765 70.8755 6.92503C71.2642 7.24241 71.4586 7.63914 71.4586 8.11522C71.4586 8.51805 71.3331 8.8629 71.0821 9.14976C70.8311 9.43663 70.4852 9.63194 70.0445 9.7357C69.7476 9.80894 69.2456 9.84556 68.5385 9.84556ZM68.5385 6.80601V9.48851C68.6396 9.49461 68.7161 9.49766 68.7681 9.49766C69.1415 9.49766 69.4292 9.3878 69.6313 9.16807C69.8333 8.94529 69.9343 8.60197 69.9343 8.1381C69.9343 7.67729 69.8333 7.34007 69.6313 7.12645C69.4292 6.91282 69.1278 6.80601 68.7268 6.80601H68.5385Z" fill="#066BFF"/>
<path d="M75.1912 12.4869V12.6562H71.936V12.4869H72.1427C72.3232 12.4869 72.4686 12.4548 72.5788 12.3907C72.6584 12.348 72.7196 12.2748 72.7625 12.171C72.7961 12.0978 72.813 11.9055 72.813 11.5942V7.51097C72.813 7.19359 72.7961 6.99522 72.7625 6.91588C72.7288 6.83653 72.6599 6.76787 72.5559 6.70988C72.4549 6.64885 72.3171 6.61833 72.1427 6.61833H71.936V6.44896H75.1912V6.61833H74.9846C74.804 6.61833 74.6586 6.65037 74.5484 6.71446C74.4689 6.75718 74.4061 6.83043 74.3602 6.93419C74.3265 7.00743 74.3097 7.19969 74.3097 7.51097V11.5942C74.3097 11.9116 74.3265 12.11 74.3602 12.1893C74.3969 12.2687 74.4658 12.3388 74.5668 12.3999C74.6709 12.4579 74.8101 12.4869 74.9846 12.4869H75.1912Z" fill="#066BFF"/>
<path d="M79.6768 9.82725V11.5668C79.6768 11.9024 79.6554 12.1145 79.6126 12.203C79.5728 12.2885 79.5008 12.3572 79.3968 12.409C79.2927 12.4609 79.0983 12.4869 78.8137 12.4869V12.6562H82V12.4869C81.7123 12.4869 81.5164 12.4609 81.4123 12.409C81.3113 12.3541 81.2394 12.2839 81.1965 12.1985C81.1567 12.113 81.1368 11.9024 81.1368 11.5668V7.53843C81.1368 7.20274 81.1567 6.99217 81.1965 6.90672C81.2394 6.81822 81.3128 6.74803 81.4169 6.69615C81.521 6.64427 81.7153 6.61833 82 6.61833V6.44896H79.1075C78.3546 6.44896 77.8036 6.50084 77.4547 6.6046C77.1058 6.70836 76.8211 6.90062 76.6007 7.18138C76.3803 7.45909 76.2702 7.78563 76.2702 8.16099C76.2702 8.61876 76.4354 8.99717 76.766 9.29625C76.9772 9.48546 77.2726 9.62736 77.6521 9.72197L76.1554 11.8231C75.9595 12.0947 75.8202 12.2641 75.7376 12.3312C75.6121 12.4258 75.4667 12.4777 75.3014 12.4869V12.6562H77.2619L79.2682 9.82725H79.6768ZM79.6768 6.78312V9.50224H79.4151C78.9897 9.50224 78.6714 9.46409 78.4602 9.3878C78.249 9.30845 78.0822 9.16807 77.9597 8.96666C77.8403 8.76219 77.7807 8.49669 77.7807 8.17015C77.7807 7.69713 77.8909 7.3477 78.1112 7.12187C78.3347 6.89604 78.6928 6.78312 79.1856 6.78312H79.6768Z" fill="#066BFF"/>
<path d="M27.2681 17.9544H32.6398V19.639H32.4654C32.4072 19.3277 32.3093 19.0744 32.1715 18.8791C32.0338 18.6807 31.8701 18.5449 31.6803 18.4717C31.4905 18.3954 31.1997 18.3572 30.808 18.3572H29.6693V20.7742H30.4912C31.3788 20.7742 32.0231 20.9299 32.4241 21.2411C32.825 21.5524 33.0255 21.9675 33.0255 22.4863C33.0255 22.8403 32.923 23.1454 32.7179 23.4018C32.5159 23.6581 32.2603 23.8489 31.9512 23.974C31.6451 24.0991 31.1967 24.1617 30.6059 24.1617H27.2681V23.9923C27.6538 23.9862 27.9002 23.9359 28.0073 23.8412C28.1175 23.7436 28.1726 23.533 28.1726 23.2095V18.9615C28.1726 18.6105 28.1175 18.3832 28.0073 18.2794C27.8971 18.1757 27.6507 18.1238 27.2681 18.1238V17.9544ZM29.6693 21.1771V23.0493C29.6693 23.3453 29.7107 23.5544 29.7933 23.6765C29.8759 23.7955 30.029 23.855 30.2524 23.855C30.6105 23.855 30.8799 23.7344 31.0605 23.4933C31.2441 23.2523 31.3359 22.9517 31.3359 22.5916C31.3359 22.2437 31.2533 21.9522 31.088 21.7172C30.9227 21.4792 30.7376 21.3297 30.5325 21.2686C30.3305 21.2076 30.0428 21.1771 29.6693 21.1771Z" fill="#066BFF"/>
<path d="M35.8904 18.3115V20.8383H36.0144C36.4092 20.8383 36.6954 20.7147 36.8729 20.4675C37.0505 20.2203 37.1637 19.8557 37.2127 19.3735H37.3872V22.6236H37.2127C37.176 22.2696 37.0979 21.9797 36.9785 21.7538C36.8622 21.528 36.726 21.377 36.5699 21.3007C36.4138 21.2213 36.1873 21.1816 35.8904 21.1816V22.9303C35.8904 23.2721 35.9042 23.4811 35.9317 23.5574C35.9624 23.6337 36.0175 23.6963 36.097 23.7451C36.1766 23.7939 36.3052 23.8184 36.4827 23.8184H36.8546C37.4361 23.8184 37.9014 23.6841 38.2503 23.4155C38.6023 23.147 38.8548 22.738 39.0079 22.1887H39.1777L38.8977 24.1617H33.5168V23.9923H33.7234C33.904 23.9923 34.0494 23.9603 34.1595 23.8962C34.2391 23.8535 34.3003 23.7802 34.3432 23.6765C34.3769 23.6032 34.3937 23.4109 34.3937 23.0997V19.0164C34.3937 18.7357 34.386 18.5632 34.3707 18.4991C34.3401 18.3923 34.2835 18.3099 34.2009 18.252C34.0845 18.1665 33.9254 18.1238 33.7234 18.1238H33.5168V17.9544H38.7278V19.79H38.5533C38.4646 19.3414 38.3391 19.0195 38.1769 18.8242C38.0177 18.6288 37.7912 18.4854 37.4974 18.3939C37.3259 18.3389 37.0046 18.3115 36.5332 18.3115H35.8904Z" fill="#066BFF"/>
<path d="M40.2108 19.7214V17.8125H40.3806C40.4143 18.0322 40.4985 18.1421 40.6332 18.1421C40.6944 18.1421 40.8015 18.1116 40.9545 18.0505C41.3616 17.8918 41.7503 17.8125 42.1207 17.8125C42.7574 17.8125 43.2486 17.9697 43.5945 18.284C43.9434 18.5983 44.1179 18.96 44.1179 19.3689C44.1179 19.5612 44.0735 19.7565 43.9847 19.9548C43.899 20.1501 43.7521 20.3287 43.544 20.4904C43.3389 20.6491 43.0083 20.788 42.5523 20.907C43.2165 21.0168 43.6832 21.2305 43.9526 21.5479C44.222 21.8622 44.3566 22.2009 44.3566 22.5641C44.3566 22.8784 44.2633 23.1744 44.0766 23.4521C43.8929 23.7268 43.6251 23.9374 43.2731 24.0839C42.9242 24.2303 42.4819 24.3036 41.9462 24.3036C41.429 24.3036 41.0188 24.2334 40.7158 24.093C40.4158 23.9526 40.1465 23.7222 39.9077 23.4018L40.1006 23.2095C40.526 23.6673 40.9729 23.8962 41.4412 23.8962C41.8269 23.8962 42.1299 23.7726 42.3503 23.5254C42.5737 23.2751 42.6854 22.9501 42.6854 22.5504C42.6854 22.2452 42.615 21.9812 42.4742 21.7584C42.3334 21.5326 42.1636 21.3846 41.9646 21.3144C41.7657 21.2411 41.4703 21.2 41.0785 21.1908V20.788C41.1856 20.791 41.2744 20.7925 41.3448 20.7925C41.7733 20.7925 42.0763 20.675 42.2538 20.4401C42.4344 20.202 42.5247 19.8557 42.5247 19.4009C42.5247 18.9676 42.4329 18.6578 42.2493 18.4717C42.0656 18.2825 41.8483 18.1879 41.5973 18.1879C41.2576 18.1879 40.9806 18.3221 40.7663 18.5907C40.5551 18.8562 40.4373 19.2331 40.4128 19.7214H40.2108Z" fill="#066BFF"/>
<path d="M48.5714 24.1617V23.9923H48.7688C49.0718 23.9923 49.26 23.9282 49.3335 23.8C49.407 23.6719 49.4437 23.4369 49.4437 23.0951V18.3572H47.2445V23.0951C47.2445 23.4949 47.2935 23.7451 47.3914 23.8458C47.4894 23.9435 47.673 23.9923 47.9424 23.9923H48.1306V24.1617H44.8754V23.9923H45.0729C45.3453 23.9923 45.5259 23.9404 45.6146 23.8367C45.7034 23.7329 45.7478 23.4857 45.7478 23.0951V19.0164C45.7478 18.6472 45.7064 18.4061 45.6238 18.2932C45.5412 18.1802 45.3575 18.1238 45.0729 18.1238H44.8754V17.9544H51.8219V18.1238H51.6567C51.3628 18.1238 51.17 18.1818 51.0782 18.2977C50.9863 18.4137 50.9404 18.6533 50.9404 19.0164V23.0951C50.9404 23.4949 50.9925 23.7451 51.0965 23.8458C51.2006 23.9435 51.3934 23.9923 51.675 23.9923H51.8219V24.1617H48.5714Z" fill="#066BFF"/>
<path d="M54.5675 18.3115V20.8383H54.6914C55.0863 20.8383 55.3725 20.7147 55.55 20.4675C55.7275 20.2203 55.8408 19.8557 55.8898 19.3735H56.0642V22.6236H55.8898C55.853 22.2696 55.775 21.9797 55.6556 21.7538C55.5393 21.528 55.4031 21.377 55.247 21.3007C55.0909 21.2213 54.8644 21.1816 54.5675 21.1816V22.9303C54.5675 23.2721 54.5813 23.4811 54.6088 23.5574C54.6394 23.6337 54.6945 23.6963 54.7741 23.7451C54.8537 23.7939 54.9822 23.8184 55.1598 23.8184H55.5316C56.1132 23.8184 56.5784 23.6841 56.9274 23.4155C57.2794 23.147 57.5319 22.738 57.6849 22.1887H57.8548L57.5747 24.1617H52.1938V23.9923H52.4004C52.581 23.9923 52.7264 23.9603 52.8366 23.8962C52.9162 23.8535 52.9774 23.7802 53.0202 23.6765C53.0539 23.6032 53.0707 23.4109 53.0707 23.0997V19.0164C53.0707 18.7357 53.0631 18.5632 53.0478 18.4991C53.0172 18.3923 52.9606 18.3099 52.8779 18.252C52.7616 18.1665 52.6024 18.1238 52.4004 18.1238H52.1938V17.9544H57.4049V19.79H57.2304C57.1416 19.3414 57.0161 19.0195 56.8539 18.8242C56.6947 18.6288 56.4682 18.4854 56.1744 18.3939C56.003 18.3389 55.6816 18.3115 55.2103 18.3115H54.5675Z" fill="#066BFF"/>
<path d="M58.47 17.9544H61.7114V18.1238H61.6058C61.2997 18.1238 61.0947 18.1802 60.9906 18.2932C60.8896 18.403 60.8391 18.6136 60.8391 18.9249V20.7788C61.2676 20.7788 61.5461 20.7651 61.6747 20.7376C61.8032 20.7071 61.9226 20.6232 62.0328 20.4858C62.143 20.3455 62.2486 20.0769 62.3496 19.6802C62.469 19.2163 62.5837 18.8684 62.6939 18.6365C62.8072 18.4045 62.9618 18.2214 63.1576 18.0872C63.3566 17.9498 63.6045 17.8812 63.9014 17.8812C64.1953 17.8812 64.4309 17.9651 64.6085 18.1329C64.786 18.2977 64.8748 18.5022 64.8748 18.7463C64.8748 18.9355 64.8151 19.0851 64.6957 19.1949C64.5763 19.3048 64.4279 19.3597 64.2504 19.3597C63.9014 19.3597 63.7132 19.1583 63.6856 18.7555C63.6734 18.5541 63.603 18.4534 63.4744 18.4534C63.3367 18.4534 63.2189 18.5312 63.1209 18.6868C63.023 18.8425 62.9174 19.1217 62.8041 19.5245C62.6939 19.9182 62.599 20.2142 62.5195 20.4126C62.4399 20.6079 62.3266 20.7727 62.1797 20.907C62.3756 20.9558 62.5256 21.0199 62.6297 21.0992C62.7368 21.1786 62.8332 21.2823 62.9189 21.4105C63.0046 21.5356 63.1883 21.8561 63.4698 22.3718L64.1034 23.4979C64.2014 23.6658 64.3177 23.7909 64.4524 23.8733C64.5901 23.9526 64.7554 23.9923 64.9482 23.9923V24.1617H62.8638L61.5829 21.7813C61.4359 21.5128 61.3273 21.351 61.2569 21.2961C61.1895 21.2381 61.0503 21.2045 60.8391 21.1954V23.2965C60.8391 23.5956 60.9003 23.7863 61.0227 23.8687C61.1482 23.9511 61.3778 23.9923 61.7114 23.9923V24.1617H58.47V23.9923C58.8281 23.9862 59.0623 23.9343 59.1725 23.8367C59.2857 23.736 59.3423 23.5223 59.3423 23.1958V19.0439C59.3423 18.6807 59.298 18.4366 59.2092 18.3115C59.1204 18.1863 58.9184 18.1238 58.6032 18.1238H58.47V17.9544Z" fill="#066BFF"/>
<path d="M69.8562 18.9798C69.8532 18.6441 69.8118 18.4183 69.7323 18.3023C69.6557 18.1833 69.4614 18.1238 69.1492 18.1238H68.9426V17.9544H72.2804V18.1238H72.0646C71.7769 18.1238 71.5856 18.1787 71.4907 18.2886C71.3989 18.3984 71.353 18.6395 71.353 19.0118V23.0951C71.353 23.4766 71.4004 23.7222 71.4953 23.8321C71.5902 23.9389 71.7799 23.9923 72.0646 23.9923H72.2804V24.1617H68.9426V23.9923H69.1492C69.44 23.9923 69.6297 23.9359 69.7185 23.8229C69.8103 23.707 69.8562 23.4644 69.8562 23.0951V19.726L67.6616 23.1592C67.6616 23.4552 67.6984 23.6688 67.7718 23.8C67.8453 23.9282 68.0442 23.9923 68.3687 23.9923H68.5845V24.1617H65.2466V23.9923H65.4533C65.744 23.9923 65.9353 23.9359 66.0272 23.8229C66.119 23.707 66.1649 23.4644 66.1649 23.0951V19.0118C66.1649 18.6395 66.1282 18.3984 66.0547 18.2886C65.9812 18.1787 65.7808 18.1238 65.4533 18.1238H65.2466V17.9544H68.5845V18.1238H68.3687C68.0871 18.1238 67.8988 18.1848 67.804 18.3069C67.7091 18.4259 67.6616 18.6609 67.6616 19.0118V22.413L69.8562 18.9798Z" fill="#066BFF"/>
<path fill-rule="evenodd" clip-rule="evenodd" d="M23.9772 9.67402V4.21875H0V9.67402H0.572043C0.802867 8.18757 1.35484 7.043 2.22796 6.24032C2.85018 5.66556 3.84874 5.37818 5.22365 5.37818H6.69892V20.9264C6.69892 21.9372 6.64372 22.5615 6.53333 22.7994C6.38279 23.1363 6.17706 23.3741 5.91613 23.5129C5.55484 23.721 5.07813 23.825 4.48602 23.825H3.8086V24.375H14.1042H14.4968H20.9182C22.1242 24.375 23.0396 24.2474 23.6645 23.9923C24.2956 23.7372 24.8173 23.3483 25.2297 22.8256C25.6484 22.303 25.8577 21.6807 25.8577 20.9589C25.8577 19.9011 25.4484 19.0549 24.6299 18.4202C23.8113 17.7855 22.496 17.4682 20.6839 17.4682H19.0062V12.5401H21.3306C22.1305 12.5401 22.7241 12.6179 23.1115 12.7734C23.4989 12.9228 23.8332 13.1997 24.1144 13.6041C24.3956 14.0024 24.5955 14.5188 24.7142 15.1535H25.0704V11.7188H14.1042V12.0641C14.8853 12.0641 15.3883 12.1699 15.6132 12.3814C15.8382 12.593 15.9507 13.0566 15.9507 13.7721V22.4336C15.9507 23.0932 15.8382 23.5225 15.6132 23.7217C15.4211 23.8911 15.0096 23.8957 14.3788 23.9027C14.2915 23.9037 14.1999 23.9047 14.1042 23.9062H13.8691C13.2871 23.9062 12.7756 23.7309 12.4344 23.5426C12.1032 23.3444 11.8774 23.1165 11.757 22.8588C11.6466 22.6012 11.5914 21.957 11.5914 20.9264V5.37818H18.7535C19.7069 5.37818 20.3743 5.46737 20.7557 5.64574C21.4381 5.97276 21.975 6.41374 22.3664 6.96868C22.7578 7.51371 23.1141 8.41549 23.4352 9.67402H23.9772ZM19.0062 22.107V18.2895C19.7685 18.2895 20.3559 18.3518 20.7683 18.4762C21.1869 18.6007 21.565 18.9056 21.9024 19.3909C22.2398 19.87 22.4085 20.4643 22.4085 21.1736C22.4085 21.9078 22.2211 22.5207 21.8462 23.0123C21.4775 23.5039 20.9276 23.7497 20.1965 23.7497C19.7404 23.7497 19.428 23.6283 19.2593 23.3856C19.0905 23.1368 19.0062 22.7105 19.0062 22.107Z" fill="#066BFF"/>
<rect y="25.3125" width="25.3876" height="0.9375" fill="#2F2E41"/>
<rect y="27.1875" width="20.6862" height="0.9375" fill="#2F2E41"/>
<rect y="29.0625" width="15.0445" height="0.9375" fill="#2F2E41"/>
</svg>
