<svg width="147" height="30" viewBox="0 0 147 30" fill="none" xmlns="http://www.w3.org/2000/svg">
<path d="M17.9758 1.85501V5.34115H11.052V24.0192H6.92377V5.34115H0V1.85501H17.9758Z" fill="#066BFF"/>
<path d="M17.7208 13.113H26.4649V16.6631H17.7208V13.113Z" fill="#066BFF"/>
<path d="M33.9878 21.2367C35.0279 21.2367 35.7864 21.1194 36.2632 20.8849C36.7399 20.629 36.9783 20.2026 36.9783 19.6055C36.9783 19.0512 36.7183 18.5928 36.1982 18.2303C35.6997 17.8678 34.8654 17.4733 33.6952 17.0469C32.9801 16.791 32.3191 16.5245 31.7123 16.2473C31.1272 15.9488 30.618 15.6077 30.1846 15.2239C29.7511 14.8401 29.4044 14.3817 29.1444 13.8486C28.906 13.2942 28.7868 12.6226 28.7868 11.8337C28.7868 10.2985 29.3611 9.09382 30.5096 8.21962C31.6582 7.32409 33.2184 6.87633 35.1905 6.87633C36.1873 6.87633 37.1408 6.97228 38.051 7.16418C38.9612 7.33475 39.6438 7.50533 40.0989 7.67591L39.3837 10.8102C38.9503 10.6183 38.3977 10.4478 37.7259 10.2985C37.0541 10.1279 36.274 10.0426 35.3855 10.0426C34.5837 10.0426 33.9336 10.1812 33.4352 10.4584C32.9367 10.7143 32.6875 11.1194 32.6875 11.6738C32.6875 11.951 32.7309 12.1962 32.8175 12.4094C32.9259 12.6226 33.0993 12.8252 33.3376 13.0171C33.576 13.1876 33.8902 13.3689 34.2803 13.5608C34.6704 13.7313 35.1471 13.9126 35.7106 14.1045C36.6424 14.4456 37.4334 14.7868 38.0835 15.1279C38.7336 15.4478 39.2646 15.8209 39.6763 16.2473C40.1097 16.6525 40.4239 17.1215 40.619 17.6546C40.814 18.1876 40.9115 18.8273 40.9115 19.5736C40.9115 21.1727 40.3047 22.3881 39.0912 23.2196C37.8993 24.0298 36.1873 24.435 33.9552 24.435C32.46 24.435 31.2573 24.307 30.3471 24.0512C29.4369 23.8166 28.7976 23.6247 28.4292 23.4755L29.1119 20.2452C29.697 20.4797 30.3904 20.7036 31.1922 20.9168C32.0157 21.1301 32.9476 21.2367 33.9878 21.2367Z" fill="#066BFF"/>
<path d="M43.643 15.7356C43.643 14.2644 43.8597 12.9744 44.2932 11.8657C44.7482 10.7569 45.3442 9.84009 46.081 9.11514C46.8178 8.36887 47.6629 7.8145 48.6164 7.45203C49.57 7.06823 50.5451 6.87633 51.542 6.87633C53.8824 6.87633 55.7027 7.59062 57.003 9.01919C58.3249 10.4478 58.9858 12.58 58.9858 15.4158C58.9858 15.629 58.975 15.8742 58.9533 16.1514C58.9533 16.4073 58.9425 16.6418 58.9208 16.855H47.7063C47.8146 18.1983 48.2914 19.2431 49.1365 19.9893C50.0034 20.7143 51.2494 21.0768 52.8747 21.0768C53.8282 21.0768 54.6951 20.9915 55.4752 20.8209C56.277 20.6503 56.9055 20.4691 57.3605 20.2772L57.8806 23.4435C57.6639 23.5501 57.3605 23.6674 56.9705 23.7953C56.6021 23.9019 56.1687 23.9979 55.6702 24.0832C55.1935 24.1898 54.6734 24.2751 54.1099 24.339C53.5465 24.403 52.9722 24.435 52.3871 24.435C50.8919 24.435 49.5916 24.2218 48.4864 23.7953C47.3812 23.3476 46.4711 22.7399 45.7559 21.9723C45.0408 21.1834 44.5099 20.2665 44.1631 19.2217C43.8164 18.1557 43.643 16.9936 43.643 15.7356ZM55.0526 14.0085C55.0526 13.4755 54.9768 12.9744 54.8251 12.5053C54.6734 12.0149 54.4458 11.5991 54.1425 11.258C53.8607 10.8955 53.5032 10.6183 53.0698 10.4264C52.658 10.2132 52.1596 10.1066 51.5745 10.1066C50.9677 10.1066 50.4368 10.2239 49.9817 10.4584C49.5266 10.6716 49.1365 10.9595 48.8115 11.322C48.5081 11.6844 48.2697 12.1002 48.0963 12.5693C47.923 13.0384 47.8038 13.5181 47.7388 14.0085H55.0526Z" fill="#066BFF"/>
<path d="M62.2133 15.6716C62.2133 14.435 62.4084 13.2836 62.7984 12.2175C63.1885 11.1301 63.7411 10.1919 64.4562 9.40299C65.193 8.61407 66.0815 7.99574 67.1217 7.54797C68.1619 7.10021 69.3321 6.87633 70.6324 6.87633C72.236 6.87633 73.7529 7.16418 75.1832 7.73987L74.338 10.9062C73.883 10.7143 73.3629 10.5544 72.7778 10.4264C72.2143 10.2985 71.6075 10.2345 70.9574 10.2345C69.4188 10.2345 68.2486 10.7143 67.4468 11.6738C66.645 12.6119 66.2441 13.9446 66.2441 15.6716C66.2441 17.3348 66.6233 18.6567 67.3818 19.6375C68.1402 20.597 69.4188 21.0768 71.2175 21.0768C71.8893 21.0768 72.5502 21.0128 73.2003 20.8849C73.8505 20.7569 74.4139 20.597 74.8906 20.4051L75.4432 23.6034C75.0098 23.8166 74.3489 24.0085 73.4604 24.1791C72.5936 24.3497 71.6942 24.435 70.7624 24.435C69.3105 24.435 68.0427 24.2218 66.9592 23.7953C65.8973 23.3476 65.0088 22.7399 64.2937 21.9723C63.6002 21.1834 63.0801 20.2559 62.7334 19.1898C62.3867 18.1023 62.2133 16.9296 62.2133 15.6716Z" fill="#066BFF"/>
<path d="M92.4334 23.5075C91.675 23.6994 90.689 23.8913 89.4754 24.0832C88.2618 24.2964 86.9291 24.403 85.4772 24.403C84.1119 24.403 82.9634 24.2111 82.0315 23.8273C81.1214 23.4435 80.3846 22.9104 79.8211 22.2281C79.2794 21.5458 78.8893 20.7356 78.6509 19.7974C78.4125 18.838 78.2934 17.7932 78.2934 16.6631V7.29211H82.2266V16.0554C82.2266 17.8465 82.4866 19.1258 83.0067 19.8934C83.5485 20.661 84.4803 21.0448 85.8022 21.0448C86.279 21.0448 86.7774 21.0235 87.2975 20.9808C87.8393 20.9382 88.2402 20.8849 88.5002 20.8209V7.29211H92.4334V23.5075Z" fill="#066BFF"/>
<path d="M107.126 10.7783C106.801 10.6716 106.346 10.565 105.761 10.4584C105.198 10.3305 104.537 10.2665 103.778 10.2665C103.345 10.2665 102.879 10.3092 102.381 10.3945C101.904 10.4797 101.568 10.5544 101.373 10.6183V24.0192H97.4396V8.09168C98.1981 7.8145 99.1408 7.55864 100.268 7.3241C101.416 7.06823 102.684 6.9403 104.071 6.9403C104.331 6.9403 104.634 6.96162 104.981 7.00427C105.328 7.02559 105.674 7.06823 106.021 7.1322C106.368 7.17484 106.704 7.23881 107.029 7.3241C107.354 7.38806 107.614 7.45203 107.809 7.51599L107.126 10.7783Z" fill="#066BFF"/>
<path d="M114.516 24.0192H110.582V7.29211H114.516V24.0192ZM114.938 2.39872C114.938 3.12367 114.7 3.69936 114.223 4.1258C113.746 4.55224 113.183 4.76546 112.533 4.76546C111.861 4.76546 111.287 4.55224 110.81 4.1258C110.333 3.69936 110.095 3.12367 110.095 2.39872C110.095 1.65245 110.333 1.0661 110.81 0.63966C111.287 0.21322 111.861 0 112.533 0C113.183 0 113.746 0.21322 114.223 0.63966C114.7 1.0661 114.938 1.65245 114.938 2.39872Z" fill="#066BFF"/>
<path d="M119.338 2.87847L123.272 2.23881V7.29211H129.318V10.5224H123.272V17.3348C123.272 18.678 123.488 19.6375 123.922 20.2132C124.355 20.7889 125.092 21.0768 126.132 21.0768C126.847 21.0768 127.476 21.0021 128.018 20.8529C128.581 20.7036 129.025 20.565 129.35 20.4371L130 23.5075C129.545 23.6994 128.949 23.8913 128.213 24.0832C127.476 24.2964 126.609 24.403 125.612 24.403C124.399 24.403 123.38 24.2431 122.557 23.9232C121.755 23.6034 121.115 23.145 120.639 22.548C120.162 21.9296 119.826 21.194 119.631 20.3412C119.436 19.467 119.338 18.4755 119.338 17.3667V2.87847Z" fill="#066BFF"/>
<path d="M147 7.29211C145.245 13.6461 143.208 19.403 140.889 24.5629C140.455 25.5224 140.011 26.3433 139.556 27.0256C139.101 27.7079 138.592 28.2729 138.028 28.7207C137.465 29.1684 136.836 29.4883 136.143 29.6802C135.45 29.8934 134.648 30 133.738 30C133.131 30 132.524 29.936 131.917 29.8081C131.332 29.6802 130.888 29.5416 130.584 29.3923L131.3 26.29C132.08 26.5885 132.849 26.7377 133.608 26.7377C134.626 26.7377 135.417 26.4925 135.98 26.0021C136.566 25.533 137.075 24.7974 137.508 23.7953C136.273 21.4499 135.081 18.8913 133.933 16.1194C132.806 13.3475 131.798 10.4051 130.91 7.29211H135.103C135.32 8.18763 135.58 9.15778 135.883 10.2026C136.208 11.2473 136.555 12.3134 136.923 13.4009C137.292 14.467 137.682 15.533 138.093 16.5991C138.505 17.6652 138.917 18.6567 139.329 19.5736C140.022 17.6759 140.672 15.661 141.279 13.5288C141.886 11.3753 142.438 9.29638 142.937 7.29211H147Z" fill="#066BFF"/>
</svg>
