<svg width="574" height="476" viewBox="0 0 574 476" fill="none" xmlns="http://www.w3.org/2000/svg">
<path d="M288.443 118.209C306.719 113.316 322.41 103.696 334.676 87.8154C335.611 87.1991 336.281 86.2089 336.538 85.062C336.796 83.9152 336.62 82.7054 336.049 81.6981L314.711 44.1356C314.139 43.1296 313.218 42.4092 312.152 42.1324C311.086 41.8555 309.961 42.0449 309.025 42.659L262.791 73.0531C261.856 73.6694 261.187 74.6596 260.929 75.8064C260.672 76.9532 260.848 78.163 261.419 79.1704L282.756 116.733C283.329 117.739 284.249 118.459 285.316 118.736C286.382 119.013 287.506 118.824 288.443 118.209Z" fill="#E6E6E6"/>
<path d="M300.77 106.148C310.393 105.018 320.394 96.7442 330.494 86.6079C331.37 86.0307 331.997 85.1033 332.238 84.0293C332.479 82.9553 332.314 81.8223 331.779 80.8788L313.441 48.597C312.905 47.6549 312.043 46.9801 311.044 46.7208C310.046 46.4615 308.993 46.6388 308.116 47.2139L266.974 74.2606C266.098 74.8378 265.471 75.7652 265.23 76.8392C264.989 77.9133 265.154 79.0464 265.689 79.9898L277.049 99.9877C279.438 104.184 283.278 107.19 287.725 108.345C292.173 109.5 296.864 108.71 300.77 106.148Z" fill="white"/>
<path d="M211.516 177.977C229.792 173.083 245.483 163.464 257.75 147.583C258.685 146.967 259.355 145.977 259.612 144.83C259.869 143.683 259.693 142.473 259.122 141.466L237.785 103.904C237.212 102.898 236.291 102.177 235.225 101.9C234.159 101.623 233.035 101.813 232.098 102.427L185.865 132.821C184.93 133.437 184.26 134.427 184.003 135.574C183.745 136.721 183.921 137.931 184.492 138.938L205.83 176.501C206.402 177.507 207.323 178.227 208.389 178.504C209.455 178.781 210.58 178.591 211.516 177.977Z" fill="#E6E6E6"/>
<path d="M223.844 165.916C233.467 164.786 243.468 156.512 253.567 146.376C254.443 145.799 255.07 144.871 255.311 143.797C255.552 142.723 255.387 141.59 254.853 140.647L236.515 108.365C235.978 107.423 235.116 106.748 234.118 106.489C233.119 106.229 232.066 106.407 231.189 106.982L190.047 134.028C189.172 134.606 188.544 135.533 188.303 136.607C188.063 137.681 188.227 138.814 188.762 139.758L200.122 159.756C202.512 163.952 206.352 166.958 210.799 168.112C215.246 169.267 219.937 168.477 223.844 165.916Z" fill="white"/>
<path d="M272.203 201.885C290.479 196.991 306.17 187.371 318.436 171.49C319.371 170.874 320.041 169.884 320.298 168.737C320.556 167.59 320.38 166.38 319.809 165.373L298.471 127.811C297.899 126.805 296.978 126.084 295.912 125.807C294.846 125.531 293.721 125.72 292.785 126.334L246.551 156.728C245.616 157.344 244.947 158.335 244.689 159.481C244.432 160.628 244.608 161.838 245.179 162.845L266.516 200.408C267.089 201.414 268.01 202.134 269.076 202.411C270.142 202.688 271.266 202.499 272.203 201.885Z" fill="#E6E6E6"/>
<path d="M284.53 189.823C294.153 188.693 304.154 180.419 314.254 170.283C315.129 169.706 315.757 168.778 315.998 167.704C316.239 166.63 316.074 165.497 315.539 164.554L297.201 132.272C296.665 131.33 295.803 130.655 294.804 130.396C293.806 130.137 292.753 130.314 291.876 130.889L250.734 157.936C249.858 158.513 249.231 159.44 248.99 160.514C248.749 161.588 248.914 162.721 249.449 163.665L260.809 183.663C263.198 187.859 267.038 190.865 271.485 192.02C275.933 193.175 280.624 192.385 284.53 189.823Z" fill="white"/>
<path d="M500.35 455.942C500.841 455.966 501.328 455.827 501.744 455.544C502.159 455.261 502.484 454.847 502.674 454.359C502.864 453.871 502.909 453.331 502.805 452.814C502.7 452.297 502.45 451.827 502.089 451.468L501.925 450.764C501.946 450.708 501.968 450.652 501.99 450.596C502.485 449.337 503.315 448.265 504.375 447.512C505.435 446.76 506.678 446.361 507.948 446.366C509.218 446.371 510.458 446.78 511.513 447.541C512.568 448.302 513.39 449.381 513.876 450.643C515.821 455.68 518.296 460.726 518.905 466.052C519.174 468.406 519.06 470.793 518.571 473.105C523.137 462.39 525.508 450.743 525.523 438.956C525.524 435.998 525.371 433.042 525.066 430.103C524.813 427.693 524.462 425.3 524.014 422.924C521.566 410.035 516.312 397.954 508.681 387.673C504.988 385.505 502.002 382.172 500.124 378.122C499.444 376.666 498.963 375.112 498.696 373.508C499.113 373.567 500.267 366.741 499.953 366.322C500.534 365.375 501.573 364.903 502.207 363.979C505.36 359.379 509.705 360.182 511.973 366.433C516.819 369.063 516.865 373.426 513.892 377.622C512.001 380.292 511.741 383.904 510.081 386.762C510.252 386.997 510.43 387.225 510.6 387.46C513.722 391.777 516.442 396.414 518.722 401.302C518.168 395.826 518.83 390.286 520.654 385.138C522.502 380.341 525.967 376.301 529.018 372.153C532.683 367.172 540.198 369.346 540.844 375.661C540.85 375.722 540.856 375.783 540.862 375.844C540.409 376.119 539.966 376.411 539.532 376.72C538.986 377.112 538.564 377.672 538.319 378.327C538.075 378.981 538.02 379.7 538.162 380.389C538.304 381.078 538.636 381.704 539.114 382.187C539.593 382.669 540.196 382.985 540.844 383.092L540.91 383.103C540.749 384.86 540.463 386.602 540.057 388.312C543.971 404.597 535.52 410.528 523.454 410.794C523.187 410.941 522.928 411.088 522.661 411.228C524.953 418.213 526.39 425.489 526.937 432.872C527.246 437.229 527.228 441.605 526.882 445.958L526.903 445.803C527.777 440.963 530.177 436.595 533.698 433.438C538.928 428.817 546.316 427.115 551.958 423.4C552.557 422.986 553.254 422.765 553.967 422.763C554.679 422.761 555.378 422.979 555.979 423.39C556.58 423.801 557.06 424.388 557.361 425.083C557.663 425.777 557.773 426.55 557.679 427.31C557.672 427.364 557.664 427.418 557.656 427.472C556.815 427.841 555.996 428.265 555.205 428.743C554.751 429.018 554.308 429.31 553.874 429.619C553.328 430.011 552.906 430.571 552.661 431.226C552.417 431.88 552.362 432.599 552.504 433.288C552.646 433.977 552.978 434.603 553.456 435.086C553.935 435.568 554.538 435.884 555.186 435.991L555.252 436.002C555.3 436.01 555.341 436.017 555.389 436.024C553.952 439.715 551.935 443.113 549.427 446.068C546.979 460.284 536.467 461.632 525.223 457.493H525.216C523.982 463.26 522.194 468.874 519.882 474.244H500.827C500.759 474.016 500.697 473.781 500.636 473.553C502.4 473.673 504.17 473.559 505.909 473.215C504.495 471.349 503.081 469.468 501.667 467.602C501.636 467.567 501.606 467.53 501.578 467.492C500.861 466.537 500.137 465.589 499.42 464.634L499.42 464.633C499.382 461.705 499.694 458.784 500.349 455.942L500.35 455.942Z" fill="#F2F2F2"/>
<path d="M367.942 114.846C365.469 114.846 363.464 112.697 363.464 110.046C363.464 107.395 365.469 105.247 367.942 105.247C370.415 105.247 372.42 107.395 372.42 110.046C372.42 112.697 370.415 114.846 367.942 114.846Z" fill="#E6E6E6"/>
<path d="M516.546 450.915L509.039 456.164L486.644 427.519L497.721 419.77L516.546 450.915Z" fill="#FFB6B6"/>
<path d="M521.901 459.153L498.82 475.298L498.631 474.984C497.081 472.421 496.542 469.301 497.131 466.31C497.72 463.319 499.39 460.703 501.772 459.036L501.773 459.035L503.909 452.645L513.855 450.584L515.87 449.174L521.901 459.153Z" fill="#2F2E41"/>
<path d="M387.916 464.672L378.963 464.671L374.704 427.522L387.918 427.523L387.916 464.672Z" fill="#FFB6B6"/>
<path d="M388.231 474.719L360.7 474.718V474.344C360.7 471.286 361.829 468.354 363.839 466.192C365.848 464.031 368.574 462.816 371.416 462.816H371.417L376.445 458.712L385.828 462.817L388.232 462.817L388.231 474.719Z" fill="#2F2E41"/>
<path d="M480.587 235.436L400.303 237.335L392.345 248.036C392.345 248.036 393.033 244.263 392.42 248.407C391.808 252.551 376.32 335.173 379.247 337.944C382.175 340.715 373.696 359.847 373.073 361.014C372.45 362.181 365.738 419.77 373.073 424.505L375.828 444.607H388.649C388.649 444.607 401.493 428.617 398.908 425.719C396.324 422.82 403.716 413.182 403.999 408.013C404.282 402.845 406.981 379.403 404.889 375.644C402.798 371.885 399.971 357.78 405.276 352.311C410.582 346.843 435.325 279.643 435.325 279.643C435.325 279.643 442.515 358.424 442.498 364.61C442.476 372.654 447.387 368.673 447.387 375.735C447.387 377.162 463.377 413.834 474.123 425.297L496.347 443.687L506.603 435.412V423.458C506.603 423.458 497.098 401.279 493.782 397.712C490.467 394.145 478.223 383.226 478.223 378.232C478.223 373.239 472.46 371.499 476.336 364.878C480.213 358.257 478.887 355.403 477.56 352.55C476.234 349.696 478.749 232.775 478.749 232.775L480.587 235.436Z" fill="#2F2E41"/>
<path d="M465.386 72.3235L430.552 70.523L421.638 86.2545C421.638 86.2545 395.603 89.0656 399.326 99.5998C403.049 110.134 408.796 182.365 403.532 191.398C400.755 196.164 396.053 212.116 392.231 226.122C391.491 228.838 391.361 231.704 391.85 234.485C392.34 237.266 393.435 239.882 395.047 242.119C396.658 244.357 398.74 246.151 401.121 247.355C403.502 248.559 406.115 249.138 408.744 249.045C433.521 248.166 470.317 246.083 474.67 241.401C481.301 234.266 487.27 228.559 483.291 226.419C479.312 224.279 473.621 193.237 473.621 193.237C473.621 193.237 500.04 103.712 493.144 101.074C486.249 98.4374 466.999 86.2545 466.999 86.2545L465.386 72.3235Z" fill="#3F3D56"/>
<path d="M447.11 62.0676C433.712 62.0676 422.85 50.383 422.85 35.9693C422.85 21.5556 433.712 9.871 447.11 9.871C460.508 9.871 471.37 21.5556 471.37 35.9693C471.37 50.383 460.508 62.0676 447.11 62.0676Z" fill="#FFB6B6"/>
<path d="M572.987 475.717L303.439 476C303.17 475.998 302.912 475.882 302.723 475.677C302.533 475.472 302.426 475.194 302.426 474.905C302.426 474.616 302.533 474.338 302.723 474.133C302.912 473.928 303.17 473.812 303.439 473.81L572.987 473.528C573.256 473.529 573.514 473.645 573.704 473.85C573.893 474.055 574 474.333 574 474.623C574 474.912 573.893 475.19 573.704 475.395C573.514 475.6 573.256 475.716 572.987 475.717Z" fill="#CACACA"/>
<path d="M466.491 245.411L473.32 223.296L485.608 225.73L477.614 248.835C478.1 250.189 478.226 251.661 477.976 253.087C477.727 254.514 477.113 255.837 476.202 256.908C475.292 257.979 474.123 258.756 472.825 259.151C471.527 259.546 470.152 259.544 468.855 259.145C467.558 258.746 466.39 257.965 465.483 256.891C464.576 255.817 463.965 254.492 463.72 253.065C463.474 251.638 463.603 250.166 464.093 248.814C464.583 247.462 465.413 246.283 466.491 245.411Z" fill="#FFB6B6"/>
<path d="M491.161 101.266L491.485 101.412C494.498 102.763 497.159 104.884 499.238 107.592C501.317 110.299 502.752 113.51 503.417 116.948C505.159 125.916 506.873 138.887 505.518 151.033C503.125 172.484 501.53 181.923 498.339 188.787C495.149 195.652 494.351 193.077 495.149 198.226C495.947 203.374 499.935 199.084 495.947 205.948C491.958 212.813 489.566 211.097 491.161 214.529C492.756 217.961 495.149 217.961 491.958 222.251C488.768 226.541 488.768 228.258 487.97 229.974C487.173 231.69 484.78 244.56 484.78 244.56C484.78 244.56 472.018 240.27 464.84 241.986C464.84 241.986 471.221 229.974 469.625 227.399C468.03 224.825 465.637 223.967 468.03 221.393C470.423 218.819 474.411 219.677 470.423 217.103C466.435 214.529 473.614 187.929 473.614 187.929L491.161 101.266Z" fill="#3F3D56"/>
<path d="M299.301 150.136L320.3 144.418L325.01 156.867L302.609 162.063C301.81 163.232 300.724 164.139 299.473 164.681C298.221 165.223 296.854 165.378 295.525 165.13C294.196 164.882 292.958 164.24 291.949 163.276C290.941 162.313 290.202 161.065 289.816 159.675C289.431 158.284 289.413 156.805 289.766 155.405C290.119 154.004 290.828 152.737 291.813 151.746C292.799 150.755 294.021 150.079 295.344 149.795C296.667 149.51 298.037 149.629 299.301 150.136H299.301Z" fill="#FFB6B6"/>
<path d="M425.491 94.8791L425.552 95.2509C426.116 98.7099 425.887 102.264 424.886 105.607C423.885 108.95 422.142 111.979 419.808 114.434C413.721 120.842 404.484 129.38 394.241 134.692C376.15 144.074 367.898 147.711 360.803 148.515C353.709 149.32 355.295 147.21 351.692 150.706C348.089 154.201 353.597 155.506 346.073 155.587C338.549 155.668 338.604 152.575 336.775 155.869C334.946 159.164 336.234 161.333 331.156 160.751C326.077 160.169 324.733 161.093 322.959 161.294C321.186 161.495 309.816 166.257 309.816 166.257C309.816 166.257 306.304 152.378 301.094 146.795C301.094 146.795 313.94 146.111 315.097 143.279C316.254 140.446 315.638 137.815 318.943 138.598C322.247 139.381 323.723 143.458 323.592 138.457C323.46 133.456 409.515 88.4131 409.515 88.4131L425.491 94.8791Z" fill="#3F3D56"/>
<path d="M418.063 31.4036C420.678 32.2772 423.2 32.7921 424.901 30.4841C426.601 28.1762 426.157 25.5372 428.687 24.4246C430.803 23.6613 433.108 23.7761 435.149 24.7464C435.516 24.8935 435.875 25.059 436.226 25.2245C436.422 25.0406 436.619 24.866 436.833 24.7004C438.441 23.4702 440.426 22.9502 442.38 23.2476C440.952 23.9897 439.777 25.1959 439.021 26.6957C439.722 27.0727 440.431 27.4497 441.149 27.7716C444.166 29.0994 447.43 29.6527 450.68 29.3878C453.931 29.1228 457.08 28.0469 459.876 26.2452C457.073 34.1897 459.252 37.0218 463.364 44.2767L463.526 44.6997C463.116 42.7963 468.492 40.5987 468.492 43.3572C468.256 46.1834 467.681 48.9649 466.783 51.6328C472.056 43.0905 475.168 33.0955 473.125 23.5051C472.689 21.4913 472.492 19.3305 471.304 17.6938C470.116 16.0663 467.928 15.11 466.201 16.0295C465.987 12.911 464.992 9.91317 463.321 7.35473C461.649 4.79629 459.365 2.77287 456.71 1.49956C454.055 0.226253 451.129 -0.249345 448.243 0.123347C445.357 0.496038 442.619 1.70309 440.32 3.61615C438.183 5.3908 436.499 7.71714 434.593 9.78603C432.687 11.8549 430.431 13.7399 427.764 14.2548C426.072 14.5767 424.165 14.3836 422.815 15.5329C421.251 16.8662 421.234 19.211 421.242 21.4638C422.773 21.4168 424.282 21.8618 425.576 22.7418C423.992 22.7847 422.46 23.3638 421.2 24.3969C421.175 24.413 421.152 24.4315 421.131 24.4521C420.67 28.2405 420.858 29.0405 418.063 31.4036Z" fill="#2F2E41"/>
<path d="M306.367 48.2472C303.894 48.2472 301.889 46.0983 301.889 43.4476C301.889 40.7969 303.894 38.648 306.367 38.648C308.84 38.648 310.845 40.7969 310.845 43.4476C310.845 46.0983 308.84 48.2472 306.367 48.2472Z" fill="#E6E6E6"/>
<path d="M258.197 53.8885C255.724 53.8885 253.719 51.7396 253.719 49.0889C253.719 46.4381 255.724 44.2893 258.197 44.2893C260.67 44.2893 262.675 46.4381 262.675 49.0889C262.675 51.7396 260.67 53.8885 258.197 53.8885Z" fill="#E6E6E6"/>
<path d="M222.901 89.6072C220.428 89.6072 218.423 87.4584 218.423 84.8076C218.423 82.1569 220.428 80.0081 222.901 80.0081C225.375 80.0081 227.38 82.1569 227.38 84.8076C227.38 87.4584 225.375 89.6072 222.901 89.6072Z" fill="#E6E6E6"/>
<path d="M239.46 186.283C236.986 186.283 234.982 184.135 234.982 181.484C234.982 178.833 236.986 176.684 239.46 176.684C241.933 176.684 243.938 178.833 243.938 181.484C243.938 184.135 241.933 186.283 239.46 186.283Z" fill="#E6E6E6"/>
<path d="M282.857 208.444C280.384 208.444 278.379 206.295 278.379 203.644C278.379 200.994 280.384 198.845 282.857 198.845C285.33 198.845 287.335 200.994 287.335 203.644C287.335 206.295 285.33 208.444 282.857 208.444Z" fill="#E6E6E6"/>
<path d="M328.198 199.444C325.725 199.444 323.72 197.295 323.72 194.644C323.72 191.994 325.725 189.845 328.198 189.845C330.671 189.845 332.676 191.994 332.676 194.644C332.676 197.295 330.671 199.444 328.198 199.444Z" fill="#E6E6E6"/>
<path d="M359.515 163.725C357.042 163.725 355.037 161.576 355.037 158.926C355.037 156.275 357.042 154.126 359.515 154.126C361.988 154.126 363.993 156.275 363.993 158.926C363.993 161.576 361.988 163.725 359.515 163.725Z" fill="#E6E6E6"/>
<path d="M348.35 71.0467C345.877 71.0467 343.872 68.8978 343.872 66.2471C343.872 63.5964 345.877 61.4476 348.35 61.4476C350.823 61.4476 352.828 63.5964 352.828 66.2471C352.828 68.8978 350.823 71.0467 348.35 71.0467Z" fill="#E6E6E6"/>
<path d="M334.915 116.046C332.442 116.046 330.437 113.897 330.437 111.246C330.437 108.595 332.442 106.447 334.915 106.447C337.389 106.447 339.394 108.595 339.394 111.246C339.394 113.897 337.389 116.046 334.915 116.046Z" fill="#E6E6E6"/>
<path d="M263.825 96.2461C261.352 96.2461 259.347 94.0973 259.347 91.4466C259.347 88.7958 261.352 86.647 263.825 86.647C266.298 86.647 268.303 88.7958 268.303 91.4466C268.303 94.0973 266.298 96.2461 263.825 96.2461Z" fill="#E6E6E6"/>
<path d="M253.189 140.045C250.716 140.045 248.711 137.896 248.711 135.246C248.711 132.595 250.716 130.446 253.189 130.446C255.662 130.446 257.667 132.595 257.667 135.246C257.667 137.896 255.662 140.045 253.189 140.045Z" fill="#E6E6E6"/>
<path d="M290.461 72.1625C269.577 65.1812 247.221 72.7311 226.224 66.2871C221.394 64.8658 216.829 62.5592 212.728 59.4686C209.23 56.6154 205.946 53.4712 202.906 50.0649C196.589 43.3441 189.73 36.2871 180.24 36.3649C167.743 36.4674 158.148 46.4537 149.819 55.2714C148.641 56.5177 146.827 54.5685 148.005 53.3209C155.659 45.2182 163.929 36.6702 174.823 34.2515C179.711 33.0855 184.812 33.5414 189.454 35.559C193.48 37.5273 197.159 40.2331 200.325 43.5558C203.68 46.8659 206.774 50.4697 210.175 53.7273C213.725 57.2017 217.815 59.9785 222.258 61.9315C231.884 66.0549 242.443 66.5523 252.681 66.4323C265.533 66.2817 278.691 65.3401 291.142 69.5025C292.713 70.0276 292.043 72.6914 290.461 72.1625V72.1625Z" fill="#3F3D56"/>
<path d="M145.239 36.6809L138.819 48.8549L135.713 54.7455C135.161 55.7924 134.594 56.8317 134.056 57.8872C133.726 58.5356 133.005 59.7051 133.694 60.3194C134.299 60.6374 134.979 60.7516 135.645 60.647C136.777 60.6496 137.909 60.6224 139.04 60.61L145.407 60.5406L158.564 60.3972C158.897 60.4096 159.211 60.5603 159.442 60.8176C159.673 61.0749 159.803 61.4187 159.803 61.7764C159.803 62.1342 159.673 62.478 159.442 62.7353C159.211 62.9926 158.897 63.1433 158.564 63.1557C150.926 63.2389 143.283 63.4125 135.645 63.4055C134.312 63.5426 132.979 63.1502 131.897 62.3024C131.367 61.735 131.016 61.0028 130.894 60.2093C130.772 59.4158 130.885 58.6011 131.217 57.8804C131.97 56.1125 132.836 54.4029 133.81 52.7641L136.605 47.4626L143.025 35.2886C143.202 34.9859 143.482 34.7694 143.805 34.6845C144.129 34.5997 144.47 34.6532 144.757 34.8338C145.044 35.0144 145.255 35.308 145.345 35.6526C145.435 35.9972 145.397 36.3659 145.239 36.6809V36.6809Z" fill="#3F3D56"/>
<path d="M301.889 91.4469C294.779 91.4469 289.014 85.2685 289.014 77.6471C289.014 70.0258 294.779 63.8474 301.889 63.8474C309 63.8474 314.764 70.0258 314.764 77.6471C314.764 85.2685 309 91.4469 301.889 91.4469Z" fill="#0181FF"/>
<path d="M60.3894 66.5108H119.393C119.716 66.5121 120.037 66.4447 120.336 66.3123C120.636 66.18 120.908 65.9854 121.137 65.7397C121.366 65.494 121.548 65.202 121.672 64.8805C121.796 64.559 121.86 64.2143 121.86 63.8662C121.86 63.5181 121.796 63.1734 121.672 62.8519C121.548 62.5304 121.366 62.2384 121.137 61.9927C120.908 61.747 120.636 61.5524 120.336 61.4201C120.037 61.2878 119.716 61.2203 119.393 61.2216H60.3893C60.0657 61.2203 59.745 61.2878 59.4457 61.4201C59.1464 61.5524 58.8743 61.747 58.645 61.9927C58.4157 62.2384 58.2338 62.5304 58.1097 62.8519C57.9856 63.1734 57.9217 63.5181 57.9217 63.8662C57.9217 64.2143 57.9856 64.559 58.1097 64.8805C58.2338 65.202 58.4157 65.494 58.645 65.7397C58.8743 65.9854 59.1464 66.18 59.4457 66.3123C59.745 66.4447 60.0657 66.5121 60.3893 66.5108H60.3894Z" fill="#0181FF"/>
<path d="M60.3894 109.11H119.393C119.716 109.111 120.037 109.044 120.336 108.911C120.636 108.779 120.908 108.585 121.137 108.339C121.366 108.093 121.548 107.801 121.672 107.48C121.796 107.158 121.86 106.813 121.86 106.465C121.86 106.117 121.796 105.772 121.672 105.451C121.548 105.129 121.366 104.838 121.137 104.592C120.908 104.346 120.636 104.152 120.336 104.019C120.037 103.887 119.716 103.819 119.393 103.821H60.3893C60.0657 103.819 59.745 103.887 59.4457 104.019C59.1464 104.152 58.8743 104.346 58.645 104.592C58.4157 104.838 58.2338 105.129 58.1097 105.451C57.9856 105.772 57.9217 106.117 57.9217 106.465C57.9217 106.813 57.9856 107.158 58.1097 107.48C58.2338 107.801 58.4157 108.093 58.645 108.339C58.8743 108.585 59.1464 108.779 59.4457 108.911C59.745 109.044 60.0657 109.111 60.3893 109.11H60.3894Z" fill="#E6E6E6"/>
<path d="M2.46775 87.8103H119.393C119.716 87.8116 120.037 87.7442 120.336 87.6119C120.636 87.4796 120.908 87.285 121.137 87.0393C121.366 86.7936 121.548 86.5016 121.672 86.1801C121.796 85.8586 121.86 85.5139 121.86 85.1658C121.86 84.8177 121.796 84.473 121.672 84.1515C121.548 83.83 121.366 83.538 121.137 83.2923C120.908 83.0466 120.636 82.852 120.336 82.7197C120.037 82.5874 119.716 82.5199 119.393 82.5212H2.46775C2.14413 82.5199 1.82345 82.5874 1.52411 82.7197C1.22478 82.852 0.952629 83.0466 0.723366 83.2923C0.494102 83.538 0.312187 83.83 0.188057 84.1515C0.0639343 84.473 3.8147e-05 84.8177 3.8147e-05 85.1658C3.8147e-05 85.5139 0.0639343 85.8586 0.188057 86.1801C0.312187 86.5016 0.494102 86.7936 0.723366 87.0393C0.952629 87.285 1.22478 87.4796 1.52411 87.6119C1.82345 87.7442 2.14413 87.8116 2.46775 87.8103Z" fill="#E6E6E6"/>
<path d="M87.2582 197.308H146.262C146.585 197.309 146.906 197.242 147.205 197.11C147.505 196.977 147.777 196.783 148.006 196.537C148.235 196.291 148.417 195.999 148.541 195.678C148.665 195.356 148.729 195.012 148.729 194.664C148.729 194.315 148.665 193.971 148.541 193.649C148.417 193.328 148.235 193.036 148.006 192.79C147.777 192.544 147.505 192.35 147.205 192.217C146.906 192.085 146.585 192.018 146.262 192.019H87.2582C86.9346 192.018 86.6139 192.085 86.3146 192.217C86.0153 192.35 85.7432 192.544 85.5139 192.79C85.2846 193.036 85.1027 193.328 84.9786 193.649C84.8545 193.971 84.7906 194.315 84.7906 194.664C84.7906 195.012 84.8545 195.356 84.9786 195.678C85.1027 195.999 85.2846 196.291 85.5139 196.537C85.7432 196.783 86.0153 196.977 86.3146 197.11C86.6139 197.242 86.9346 197.309 87.2582 197.308Z" fill="#0181FF"/>
<path d="M87.2582 239.907H146.262C146.585 239.909 146.906 239.841 147.205 239.709C147.505 239.576 147.777 239.382 148.006 239.136C148.235 238.89 148.417 238.598 148.541 238.277C148.665 237.955 148.729 237.611 148.729 237.263C148.729 236.915 148.665 236.57 148.541 236.248C148.417 235.927 148.235 235.635 148.006 235.389C147.777 235.143 147.505 234.949 147.205 234.817C146.906 234.684 146.585 234.617 146.262 234.618H87.2582C86.9346 234.617 86.6139 234.684 86.3146 234.817C86.0153 234.949 85.7432 235.143 85.5139 235.389C85.2846 235.635 85.1027 235.927 84.9786 236.248C84.8545 236.57 84.7906 236.915 84.7906 237.263C84.7906 237.611 84.8545 237.955 84.9786 238.277C85.1027 238.598 85.2846 238.89 85.5139 239.136C85.7432 239.382 86.0153 239.576 86.3146 239.709C86.6139 239.841 86.9346 239.909 87.2582 239.907Z" fill="#E6E6E6"/>
<path d="M29.3366 218.608H146.262C146.585 218.609 146.906 218.542 147.205 218.409C147.505 218.277 147.777 218.082 148.006 217.837C148.235 217.591 148.417 217.299 148.541 216.977C148.665 216.656 148.729 216.311 148.729 215.963C148.729 215.615 148.665 215.27 148.541 214.949C148.417 214.627 148.235 214.335 148.006 214.09C147.777 213.844 147.505 213.649 147.205 213.517C146.906 213.385 146.585 213.317 146.262 213.319H29.3366C29.013 213.317 28.6923 213.385 28.393 213.517C28.0937 213.649 27.8216 213.844 27.5923 214.09C27.3631 214.335 27.1811 214.627 27.057 214.949C26.9329 215.27 26.869 215.615 26.869 215.963C26.869 216.311 26.9329 216.656 27.057 216.977C27.1811 217.299 27.3631 217.591 27.5923 217.837C27.8216 218.082 28.0937 218.277 28.393 218.409C28.6923 218.542 29.013 218.609 29.3366 218.608Z" fill="#E6E6E6"/>
<path d="M349.23 243.507H408.234C408.557 243.509 408.878 243.441 409.177 243.309C409.477 243.176 409.749 242.982 409.978 242.736C410.207 242.49 410.389 242.198 410.513 241.877C410.637 241.555 410.701 241.211 410.701 240.863C410.701 240.515 410.637 240.17 410.513 239.848C410.389 239.527 410.207 239.235 409.978 238.989C409.749 238.743 409.477 238.549 409.177 238.417C408.878 238.284 408.557 238.217 408.234 238.218H349.23C348.907 238.217 348.586 238.284 348.287 238.417C347.987 238.549 347.715 238.743 347.486 238.989C347.257 239.235 347.075 239.527 346.951 239.848C346.826 240.17 346.763 240.515 346.763 240.863C346.763 241.211 346.826 241.555 346.951 241.877C347.075 242.198 347.257 242.49 347.486 242.736C347.715 242.982 347.987 243.176 348.287 243.309C348.586 243.441 348.907 243.509 349.23 243.507Z" fill="#0181FF"/>
<path d="M349.23 286.106H408.234C408.557 286.108 408.878 286.04 409.177 285.908C409.477 285.776 409.749 285.581 409.978 285.335C410.207 285.09 410.389 284.798 410.513 284.476C410.637 284.155 410.701 283.81 410.701 283.462C410.701 283.114 410.637 282.769 410.513 282.447C410.389 282.126 410.207 281.834 409.978 281.588C409.749 281.343 409.477 281.148 409.177 281.016C408.878 280.883 408.557 280.816 408.234 280.817H349.23C348.907 280.816 348.586 280.883 348.287 281.016C347.987 281.148 347.715 281.343 347.486 281.588C347.257 281.834 347.075 282.126 346.951 282.447C346.826 282.769 346.763 283.114 346.763 283.462C346.763 283.81 346.826 284.155 346.951 284.476C347.075 284.798 347.257 285.09 347.486 285.335C347.715 285.581 347.987 285.776 348.287 285.908C348.586 286.04 348.907 286.108 349.23 286.106Z" fill="#E6E6E6"/>
<path d="M291.309 264.807H408.234C408.557 264.808 408.878 264.741 409.177 264.608C409.477 264.476 409.749 264.281 409.978 264.036C410.207 263.79 410.389 263.498 410.513 263.176C410.637 262.855 410.701 262.51 410.701 262.162C410.701 261.814 410.637 261.469 410.513 261.148C410.389 260.826 410.207 260.534 409.978 260.289C409.749 260.043 409.477 259.848 409.177 259.716C408.878 259.584 408.557 259.516 408.234 259.518H291.309C290.985 259.516 290.664 259.584 290.365 259.716C290.066 259.848 289.794 260.043 289.564 260.289C289.335 260.534 289.153 260.826 289.029 261.148C288.905 261.469 288.841 261.814 288.841 262.162C288.841 262.51 288.905 262.855 289.029 263.176C289.153 263.498 289.335 263.79 289.564 264.036C289.794 264.281 290.066 264.476 290.365 264.608C290.664 264.741 290.985 264.808 291.309 264.807Z" fill="#E6E6E6"/>
<path d="M224.089 136.709L179.971 172.515L167.415 182.706C166.097 183.775 164.818 181.381 166.121 180.324L210.238 144.518L222.795 134.327C224.112 133.257 225.391 135.652 224.089 136.709H224.089Z" fill="#3F3D56"/>
<path d="M186.548 184.891C176.926 189.857 166.466 192.666 155.803 193.146C155.607 193.143 155.413 193.092 155.238 192.997C155.062 192.902 154.909 192.765 154.79 192.597C154.67 192.429 154.589 192.233 154.55 192.026C154.511 191.819 154.517 191.604 154.567 191.4L161.399 161.899C161.798 160.177 164.272 160.906 163.872 162.632L157.04 192.133L155.803 190.387C166.015 189.933 176.034 187.253 185.254 182.509C186.735 181.745 188.037 184.123 186.548 184.891V184.891Z" fill="#3F3D56"/>
<path d="M221.842 150.246C214.732 150.246 208.967 144.067 208.967 136.446C208.967 128.825 214.732 122.646 221.842 122.646C228.953 122.646 234.717 128.825 234.717 136.446C234.717 144.067 228.953 150.246 221.842 150.246Z" fill="#0181FF"/>
<path d="M287.32 161.611L319.021 210.384L327.956 224.131C328.904 225.589 326.682 226.969 325.742 225.523L294.041 176.75L285.106 163.003C284.158 161.545 286.38 160.165 287.32 161.611Z" fill="#3F3D56"/>
<path d="M330.751 203.725C335.006 214.215 337.219 225.531 337.254 236.976C337.252 237.187 337.204 237.395 337.116 237.584C337.028 237.773 336.9 237.938 336.744 238.066C336.588 238.194 336.406 238.283 336.213 238.324C336.02 238.366 335.821 238.359 335.631 238.306L308.4 229.82C308.082 229.713 307.816 229.478 307.657 229.163C307.497 228.849 307.458 228.481 307.546 228.136C307.635 227.791 307.844 227.496 308.131 227.314C308.417 227.132 308.758 227.077 309.081 227.16L336.313 235.646L334.69 236.976C334.677 226.016 332.583 215.175 328.537 205.118C327.885 203.506 330.094 202.1 330.751 203.725V203.725Z" fill="#3F3D56"/>
<path d="M285.656 176.045C278.545 176.045 272.781 169.867 272.781 162.246C272.781 154.624 278.545 148.446 285.656 148.446C292.766 148.446 298.531 154.624 298.531 162.246C298.531 169.867 292.766 176.045 285.656 176.045Z" fill="#0181FF"/>
</svg>
