<svg width="32" height="32" viewBox="0 0 32 32" fill="none" xmlns="http://www.w3.org/2000/svg">
<path d="M16 0C7.16406 0 0 7.16408 0 16C0 24.8358 7.16406 32 16 32C24.8359 32 31.9998 24.8357 31.9998 16C31.9999 7.16408 24.8359 0 16 0ZM24.449 23.3458L23.1679 24.6271C22.9392 24.8555 22.2695 24.998 22.248 24.998C18.1952 25.0334 14.293 23.4415 11.4258 20.5741C8.55087 17.6974 6.95711 13.7813 6.99991 9.71485C6.99991 9.713 7.14658 9.06246 7.3751 8.83612L8.65612 7.5549C9.1249 7.08395 10.0254 6.87112 10.6562 7.08217L10.9257 7.17206C11.5546 7.3829 12.215 8.07835 12.3888 8.71906L13.0332 11.0842C13.207 11.7267 12.9726 12.6409 12.5039 13.1097L11.6486 13.9652C12.4884 17.0742 14.9278 19.5141 18.0374 20.356L18.8924 19.5003C19.3634 19.0293 20.2772 18.7951 20.9183 18.9686L23.2831 19.6153C23.924 19.7914 24.6193 20.4476 24.8301 21.0764L24.92 21.3498C25.1289 21.9788 24.9177 22.8791 24.449 23.3458Z" fill="white"/>
</svg>
