<svg width="96" height="158" viewBox="0 0 96 158" fill="none" xmlns="http://www.w3.org/2000/svg">
<g clip-path="url(#clip0_1201_1492)">
<path d="M19.6195 118.326C22.0874 118.816 24.9254 118.571 27.1465 117.224C29.3676 115.877 30.9717 113.428 30.6015 110.857C30.2314 108.653 28.6272 106.816 27.6401 104.735C26.653 102.653 26.5296 99.7142 28.5039 98.6121C30.3548 97.6325 32.8226 99.1019 33.8098 100.939C34.7969 102.775 35.0437 105.102 36.0308 107.061C37.1414 109.388 39.2391 111.102 41.7069 111.837C44.1748 112.571 46.8895 112.204 49.1105 110.979C51.455 109.633 53.1825 107.184 54.1697 104.612C55.2802 102.041 55.7738 99.3468 56.5141 96.7754C57.1311 94.6938 57.8715 92.4897 59.7224 91.2652C61.5733 90.0407 64.6581 90.6529 65.0283 92.857C65.2751 94.0815 64.5347 95.4285 63.7943 96.408C61.9434 99.3468 59.9691 102.163 58.1182 105.102C57.2545 106.449 56.2673 107.918 56.2673 109.51C56.144 111.714 57.6247 113.673 59.4756 115.02C63.7943 118.326 70.2108 118.939 75.0231 116.367C75.8869 116 76.6272 115.388 77.6144 115.388C78.4781 115.265 79.5887 115.755 79.7121 116.735C79.8355 117.102 79.7121 117.592 79.4653 117.959C78.4781 121.143 77.491 124.326 76.3805 127.51C75.8869 128.857 75.5167 130.326 74.5296 131.428C73.6658 132.408 72.4319 133.02 71.1979 133.633C68.1131 135.224 64.9049 136.816 61.5733 137.428C55.6504 138.653 49.6041 137.061 43.928 135.102C37.018 132.653 30.4781 129.347 23.8149 126.041C20.6067 124.449 17.1517 122.735 14.5604 120.163C13.5733 119.184 12.4627 117.714 14.437 116.979C15.5476 116.612 18.2622 118.082 19.6195 118.326Z" fill="#236FBD"/>
<path d="M2.34447 114.286C1.48072 113.918 0.493573 113.428 0.123393 112.571C-0.493573 111.102 1.23393 109.51 2.83805 109.51C4.44216 109.51 5.92288 110.612 7.15681 111.592C11.1054 114.653 15.054 117.714 19.0026 120.775C20.3599 121.755 22.2108 122.857 23.5681 121.755C24.8021 120.653 24.0617 118.694 23.0746 117.224C20.1131 112.816 16.1645 108.898 11.7224 105.959C9.62468 104.612 7.4036 103.265 6.29306 101.183C5.18252 98.9794 5.67609 95.7957 8.02056 95.0611C9.87146 94.4488 11.8458 95.7957 13.3265 97.2651C20.7301 104.367 24.9254 113.918 30.3548 122.612C31.4653 124.326 33.0694 126.286 35.0437 125.796C36.401 125.551 37.2648 124.081 37.5116 122.735C37.635 121.388 37.2648 120.041 36.8946 118.694C32.946 105.959 28.3805 92.7345 18.6324 83.7957C16.6581 81.959 14.1902 79.7549 14.8072 77.061C15.4242 73.9998 19.9897 73.2651 22.581 74.9794C25.1722 76.6937 26.4062 79.9998 27.5167 82.9386C31.0951 92.4896 35.6607 101.796 40.9666 110.49C44.0514 115.388 47.8766 120.53 53.4293 122.122C57.7481 123.347 62.437 122.122 66.2622 119.918C70.0874 117.714 71.6915 113.428 74.036 109.755C78.108 103.632 82.1799 97.3876 86.1285 91.2651C86.7455 90.2855 87.3625 89.4284 88.3496 88.8162C89.3368 88.2039 90.6941 88.0815 91.4344 88.8162C92.9152 90.1631 91.8046 92.6121 90.4473 94.0815C86.3753 98.7345 83.1671 103.388 79.0951 108.041C74.8997 112.694 72.1851 119.184 70.3342 125.061C69.7172 126.775 67.9897 128 69.347 129.102C71.0745 130.326 73.5424 128.735 75.1465 127.265C78.8483 123.714 82.5501 120.286 86.2519 116.735C88.1028 115.02 89.9537 113.183 91.8046 111.469C92.545 110.735 93.5321 109.265 94.5193 109.02C99.2082 107.918 91.5578 116.49 91.0643 117.224C88.8432 119.918 86.7455 122.49 84.5244 125.183C84.5244 125.183 90.2005 123.469 90.6941 123.347C93.6555 122.735 95.383 125.184 94.5193 128.122C93.1619 132.898 85.8817 132.163 82.0565 133.143C75.3933 134.979 70.7044 141.224 67.3727 147.224C66.2622 149.184 65.3985 151.51 63.5476 152.857C61.5733 154.326 58.8586 154.571 56.3907 154.694C50.3445 154.816 44.0514 154.571 38.1285 153.224C34.4267 152.367 33.4396 150.163 32.2057 146.735C28.874 137.796 23.3213 129.714 16.0411 123.469C12.0925 119.673 7.4036 116.612 2.34447 114.286Z" fill="white"/>
<path d="M78.4781 128.122C79.5887 127.388 80.6992 126.775 81.9332 126.286C83.1671 125.796 84.401 125.428 85.635 125.184C86.8689 124.939 88.2262 124.816 89.5835 124.939C90.9409 125.061 92.2982 125.306 93.4087 126.041C92.0514 126.041 90.9409 126.163 89.7069 126.286C88.473 126.408 87.2391 126.653 86.0051 126.898C83.5373 127.388 81.0694 127.877 78.4781 128.122Z" fill="white"/>
<path d="M18.2622 77.4284C19.0026 76.8161 20.1131 76.5712 21.1003 76.8161C22.0874 77.061 23.0746 77.5508 23.6915 78.2855C24.4319 79.0202 24.9254 79.7549 25.2956 80.6121C25.6658 81.4692 25.9126 82.3263 25.9126 83.3059C25.5424 82.9386 25.2956 82.5712 25.0488 82.3263C24.8021 81.959 24.4319 81.7141 24.1851 81.3467C23.6915 80.7345 23.0745 80.1223 22.581 79.51C21.347 78.408 20.1131 77.5508 18.2622 77.4284Z" fill="white"/>
<path d="M38.7455 150.041C38.0051 148.081 37.3882 146 36.6478 144.041L35.6607 141.102C35.5373 140.612 35.2905 140.122 35.1671 139.632C35.0437 139.143 34.9203 138.408 35.2905 137.796C35.4139 137.428 35.7841 137.183 36.1542 137.061C36.5244 136.939 36.8946 136.939 37.2648 137.061C38.0051 137.183 38.4987 137.796 38.7455 138.285C39.3625 139.265 39.7326 140.245 40.2262 141.224L42.9409 146.857C43.1877 147.224 43.4344 147.592 43.6812 147.837C43.928 147.959 44.0514 147.959 44.1748 147.837C44.545 147.469 44.7918 146.245 45.0386 145.265L46.6427 139.143C46.7661 138.653 47.0129 137.918 47.5064 137.428C48 136.816 48.8637 136.449 49.7275 136.694C50.2211 136.816 50.5913 137.061 50.838 137.428C51.0848 137.796 51.2082 138.163 51.3316 138.408C51.455 139.02 51.455 139.51 51.5784 140.122L52.4422 146.367L51.455 145.632C51.9486 145.51 52.4422 145.143 52.8123 144.53C53.1825 143.918 53.5527 143.183 54.0463 142.449C54.2931 142.081 54.6632 141.714 55.1568 141.469C55.6504 141.224 56.144 140.979 56.7609 140.979C57.2545 140.979 57.9949 141.102 58.4884 141.592C58.982 142.081 59.1054 142.816 59.1054 143.306C58.982 144.408 58.365 145.265 57.8715 145.755C57.6247 146.122 57.5013 146.367 57.5013 146.612C57.5013 146.857 57.5013 147.102 57.6247 147.224C57.7481 147.469 57.8715 147.469 57.8715 147.469C57.9949 147.469 58.2416 147.224 58.4884 146.979L60.0925 145.143L61.6967 143.306C62.3136 142.694 62.6838 142.081 63.4242 141.469C63.7943 141.224 64.1645 140.979 64.6581 140.857C65.1517 140.734 65.7686 140.857 66.1388 141.102C66.6324 141.347 67.0026 141.837 67.0026 142.449C67.0026 143.061 66.6324 143.428 66.509 143.796C64.7815 146.49 63.054 149.306 61.2031 152C62.6838 149.183 64.2879 146.245 65.892 143.428C67.0026 142.081 65.0283 141.224 64.0411 142.326C63.5476 142.816 63.054 143.428 62.437 144.163L60.8329 146L59.2288 147.837C58.982 148.081 58.6118 148.571 57.8715 148.816C57.5013 148.939 57.1311 148.816 56.7609 148.694C56.3907 148.571 56.2674 148.326 56.0206 148.081C55.6504 147.592 55.527 146.979 55.6504 146.367C55.7738 145.877 56.0206 145.388 56.2673 145.02C56.7609 144.285 57.1311 143.673 57.1311 143.183C57.2545 142.326 55.7738 142.204 55.0334 143.428C54.6632 143.918 54.2931 144.653 53.7995 145.51C53.3059 146.245 52.5655 147.102 51.3316 147.347C50.838 147.469 50.4679 147.102 50.3445 146.734L49.9743 140.122C49.8509 139.632 49.8509 139.02 49.7275 138.653C49.6041 138.285 49.4807 138.163 49.3573 138.163C49.2339 138.163 48.8637 138.285 48.7404 138.408C48.4936 138.653 48.3702 139.02 48.2468 139.51L46.5193 145.632L46.1491 147.224C46.0257 147.714 45.7789 148.449 45.1619 148.939C44.7918 149.183 44.4216 149.428 43.928 149.428C43.4344 149.428 43.0643 149.306 42.6941 149.061C42.0771 148.571 41.7069 148.081 41.4602 147.592C40.5964 145.632 39.7326 143.673 38.8689 141.714C38.4987 140.734 38.0051 139.755 37.635 138.898C37.3882 138.53 37.1414 138.163 36.7712 138.041C36.401 137.918 36.0308 138.041 35.9075 138.285C35.5373 138.898 36.0308 140 36.2776 140.979L37.1414 144.041C37.7584 146 38.2519 148.081 38.7455 150.041Z" fill="#BFDFFF"/>
<path d="M35.2905 150.653C33.9332 150.653 32.5758 150.775 31.2185 150.775H29.2442C28.6273 150.775 28.0103 151.02 27.8869 151.388C27.7635 151.755 28.0103 152.245 28.3805 152.612C28.7506 152.979 29.3676 153.102 30.108 153.224C31.3419 153.592 32.6992 153.837 34.0566 154.204C39.2391 155.306 44.545 155.918 49.9743 156.163C55.2802 156.408 60.7095 156.408 66.0154 156.286C67.3727 156.286 68.7301 156.286 69.964 156.163C70.581 156.163 71.1979 156.041 71.9383 155.796C72.5553 155.673 73.1722 155.428 73.5424 155.061C74.4062 154.326 74.5296 152.857 73.7892 151.877C73.419 151.388 72.8021 151.143 72.1851 151.02L70.2108 150.408L72.1851 150.775C72.8021 150.898 73.5424 151.143 74.1594 151.632C75.2699 152.612 75.3933 154.571 74.2828 155.673C74.036 155.918 73.6658 156.163 73.2956 156.286C72.9254 156.408 72.6787 156.53 72.3085 156.653C71.6915 156.898 70.9512 157.02 70.2108 157.143C68.8535 157.388 67.4961 157.388 66.1388 157.51C60.7095 157.877 55.2802 158.122 49.8509 157.877C44.4216 157.632 38.9923 156.898 33.6864 155.551C32.329 155.184 31.0951 154.816 29.7378 154.326C29.1208 154.081 28.3805 153.959 27.7635 153.347C27.1465 152.857 26.653 151.877 27.1465 151.02C27.3933 150.653 27.7635 150.286 28.1337 150.163C28.5039 150.041 28.874 150.041 29.2442 150.041L31.2185 150.163C32.6992 150.408 34.0566 150.53 35.2905 150.653Z" fill="white"/>
</g>
<g clip-path="url(#clip1_1201_1492)">
<path d="M47.4247 67.2062C49.2329 66.8685 51.2055 68.3882 51.6986 70.2457C52.1918 72.1031 51.3699 74.2983 50.0548 75.4803C43.8082 81.3904 41.6712 68.2194 47.4247 67.2062Z" fill="white"/>
<path d="M44.3014 43.3969C44.4658 41.2017 44.9589 38.8377 46.9315 38.1623C48.9041 37.4868 51.0411 39.0066 51.5342 41.0329C52.1918 43.0592 51.6986 45.2544 51.0411 47.1118C50.5479 48.8004 48.5753 56.568 46.1096 55.8925C43.8082 55.2171 44.137 45.2544 44.3014 43.3969Z" fill="white"/>
<path d="M42.6575 9.28731C42.6575 7.42985 42.8219 5.40353 43.6438 3.71494C44.4658 2.02634 45.9452 0.337745 47.7534 0.168886C50.2192 -0.168834 52.5205 1.68862 53.3425 3.8838C54.3288 6.24783 54.1644 8.78073 53.8356 11.1448C53.1781 15.5351 52.3562 29.0439 46.1096 29.0439C40.0274 29.0439 42.4932 13.5088 42.6575 9.28731Z" fill="white"/>
</g>
<defs>
<clipPath id="clip0_1201_1492">
<rect width="96" height="84" fill="white" transform="translate(0 73.9999)"/>
</clipPath>
<clipPath id="clip1_1201_1492">
<rect width="12" height="77" fill="white" transform="translate(42)"/>
</clipPath>
</defs>
</svg>
