<svg width="185" height="370" viewBox="0 0 185 370" fill="none" xmlns="http://www.w3.org/2000/svg">
<path d="M101.805 283.422C100.498 284.347 98.2564 284.162 97.1358 282.867C96.0151 281.571 95.6416 279.721 96.3887 278.055C97.1358 276.575 98.6299 275.464 100.311 275.094C102.179 274.724 104.42 275.464 105.727 276.945C107.035 278.425 103.299 282.126 101.805 283.422Z" fill="white"/>
<path d="M97.3694 240.01C98.7771 239.066 100.361 238.877 101.944 239.066C102.648 239.066 103.176 239.254 103.88 239.443C111.095 241.898 107.751 247.184 102.12 246.995C98.6011 246.995 91.2105 243.974 97.3694 240.01Z" fill="white"/>
<path d="M91 136.207C91 131.993 93.3139 127.778 97.0518 125.671C100.79 123.564 105.595 123.388 109.511 125.495C112.181 126.9 114.317 129.534 113.961 132.519C113.783 134.451 112.359 136.207 110.757 137.612C109.155 139.017 107.553 140.246 106.129 141.826C103.993 144.636 102.57 150.431 97.9417 148.675C94.0259 147.27 91 140.07 91 136.207Z" fill="white"/>
<path d="M72 32.2266C72 21.1005 78.1369 9.97437 88.0503 4.41132C97.9638 -1.15173 110.71 -1.61532 121.095 3.94773C128.176 7.65643 133.841 14.6102 132.897 22.4912C132.425 27.5907 128.648 32.2266 124.4 35.9353C120.151 39.644 115.902 42.8891 112.126 47.0614C106.461 54.4788 102.684 69.7772 90.4107 65.1413C80.0252 61.4326 72 42.4255 72 32.2266Z" fill="white"/>
<path d="M73.0954 302.249C77.121 305.788 82.3207 307.979 87.6882 308.148C91.0428 308.316 94.5652 307.642 96.7457 305.114C99.5972 301.912 99.2617 296.687 102.113 293.485C104.126 291.294 107.481 290.452 110.332 291.631C113.016 292.811 114.861 295.845 114.693 298.878C114.525 300.901 113.519 302.923 114.358 304.777C115.196 306.8 117.712 307.642 119.893 307.305C122.073 306.968 123.919 305.451 125.596 304.103C129.621 301.238 133.815 298.541 138.344 296.182C140.021 295.339 141.866 294.496 143.879 294.496C145.724 294.496 147.904 295.508 148.408 297.362C148.911 298.878 148.24 300.564 148.743 302.081C149.414 304.103 151.93 304.946 154.111 304.777C156.291 304.609 158.136 303.429 160.317 302.923C162.329 302.249 164.845 302.249 166.355 303.597C168.536 305.451 168.032 309.328 166.02 311.35C164.007 313.372 161.155 314.384 158.304 315.058C142.537 319.271 126.602 322.979 110.332 324.327C94.062 325.675 77.4564 324.664 61.8572 319.777C59.3412 318.934 56.6575 318.091 54.477 316.406C53.3028 315.563 49.7804 312.361 50.9546 310.507C51.7932 309.159 56.8252 309.833 58.3348 309.496C63.87 308.653 69.0698 306.125 73.0954 302.249Z" fill="#236FBD"/>
<path d="M33.5103 323.147C30.9943 322.979 27.9751 322.81 27.1365 320.451C26.2978 318.26 28.3106 316.069 30.6589 315.395C32.8394 314.889 35.1877 315.563 37.5359 315.732C39.8842 316.069 42.4002 315.732 43.7421 313.878C45.4194 311.687 44.2453 307.979 41.897 306.294C39.5487 304.608 36.5295 304.271 33.6781 303.934C30.8266 303.597 27.8074 303.26 25.6269 301.575C23.4463 299.889 22.2722 296.182 24.285 293.991C25.4591 292.642 27.4719 292.305 29.317 292.305C35.6909 292.137 41.897 295.002 46.2581 299.721C48.6063 302.417 50.4514 305.62 52.7997 308.316C55.1479 311.013 58.3349 313.372 61.8573 313.372C65.3797 313.372 69.0698 310.17 68.5666 306.631C68.0634 303.26 64.3733 301.406 61.1863 300.226C57.9994 298.878 54.477 296.687 54.477 293.316C54.477 290.451 56.993 288.26 59.6767 287.755C62.3605 287.249 65.2119 287.923 67.8957 288.766C72.089 290.114 76.6178 291.8 79.1338 295.507C81.6498 299.215 81.8175 304.271 84.1658 308.148C86.6818 312.698 91.8815 315.226 97.0812 315.732C102.281 316.237 107.313 315.057 112.345 313.541C126.938 309.159 140.692 302.08 152.601 292.811C154.781 291.126 157.297 289.103 159.981 288.935C162.833 288.766 165.852 291.294 165.013 294.159C164.342 296.519 161.491 297.193 159.31 297.867C153.272 299.721 147.737 303.26 143.711 308.316C143.04 309.159 142.201 310.507 142.705 311.518C143.208 312.529 144.717 312.698 145.892 312.192C147.066 311.687 147.904 310.844 148.911 310.339C153.607 308.316 158.136 313.878 163.168 314.552C167.026 315.057 170.548 312.529 174.239 311.013C177.929 309.496 183.128 309.496 184.638 313.035C185.812 315.732 183.967 319.102 181.451 320.619C176.084 323.653 169.542 320.956 163.336 320.788C154.446 320.451 145.556 326.012 142.201 334.27C140.692 337.81 140.189 341.686 137.673 344.72C134.653 348.427 129.789 349.607 125.093 350.45C112.513 353.146 99.9327 355.674 87.185 355.506C77.121 355.337 65.8829 353.315 57.3285 347.753C54.1415 345.731 53.8061 343.54 53.1351 340.001C52.2965 335.787 50.1159 332.248 47.2645 329.214C43.4066 326.012 38.5423 323.484 33.5103 323.147Z" fill="white"/>
<path d="M170.716 315.9C171.387 314.889 172.226 314.215 173.232 313.709C174.238 313.204 175.077 312.698 176.251 312.361C177.258 312.024 178.432 311.855 179.774 312.024C180.445 312.192 180.948 312.361 181.619 312.698C181.954 312.866 182.122 313.204 182.29 313.372C182.457 313.709 182.457 314.046 182.457 314.215C181.451 313.541 180.612 313.709 179.774 313.878C178.935 314.046 177.929 314.383 176.922 314.72C174.909 315.057 173.064 315.732 170.716 315.9Z" fill="#BFDFFF"/>
<path d="M25.9623 296.519C27.3042 295.676 28.8138 295.17 30.3234 295.002C31.833 294.833 33.5103 294.833 35.0199 295.339C36.5295 295.676 38.0391 296.35 39.2133 297.361C40.5551 298.204 41.5615 299.552 42.2325 300.901C40.8906 300.226 39.5487 299.552 38.2069 299.047C36.865 298.541 35.6909 298.035 34.349 297.698C31.833 296.856 28.9815 296.687 25.9623 296.519Z" fill="#BFDFFF"/>
<path d="M60.8508 291.126C62.1927 290.957 63.5346 291.126 64.7087 291.463C66.0506 291.8 67.2247 292.137 68.3988 292.811C69.573 293.317 70.7471 294.159 71.7535 295.002C72.7599 295.845 73.7663 297.024 73.934 298.373C72.9276 297.53 71.7535 297.024 70.7471 296.519L67.3924 295.002C65.2119 293.822 63.0314 292.811 60.8508 291.126Z" fill="#BFDFFF"/>
<path d="M52.1287 341.181C48.9418 341.855 46.0903 343.372 44.0775 345.562C43.5743 346.068 43.2388 346.742 42.9034 347.248C42.7356 347.753 42.7356 348.259 42.9034 348.596C43.4066 349.439 44.7484 350.113 46.258 350.619C47.7676 351.124 49.2772 351.63 50.7868 352.135L53.1351 352.809C53.9738 352.978 54.9802 353.484 55.6511 354.158C55.9866 354.495 56.322 355.169 56.4898 355.506C56.6575 356.012 56.6575 356.349 56.8252 356.686C56.993 357.36 57.3284 357.865 57.9994 358.203C59.1735 359.045 60.8508 359.045 62.5282 359.045C61.0186 359.551 59.3412 359.888 57.4962 359.214C56.6575 358.877 55.8188 358.203 55.4834 357.191C55.1479 356.349 54.9802 355.675 54.6447 355.337C53.806 354.663 52.1287 354.495 50.4514 354.158C48.774 353.821 47.2644 353.315 45.7548 352.641C44.9162 352.304 44.2452 351.967 43.4066 351.461C42.5679 350.956 41.7292 350.281 41.226 349.27C40.7228 348.259 40.7228 346.911 41.226 346.068C41.7292 345.057 42.2324 344.383 42.9034 343.877C45.2516 342.023 48.774 340.843 52.1287 341.181Z" fill="white"/>
<path d="M72.7599 364.27C82.8239 365.955 92.8879 367.135 102.952 367.472C105.468 367.472 107.984 367.472 110.332 366.966C111.506 366.798 112.68 366.292 113.687 365.787C114.693 365.281 115.867 364.607 117.041 364.101C119.39 362.753 121.906 362.079 124.589 361.742C127.105 361.405 129.789 361.405 132.305 361.405C127.273 362.247 122.241 363.09 118.048 365.787C117.041 366.461 115.867 367.135 114.693 367.809C113.519 368.483 112.177 368.989 110.835 369.326C108.152 370 105.468 370 102.952 370C92.5524 369.494 82.3207 367.809 72.7599 364.27Z" fill="white"/>
<path d="M137.337 357.191C139.518 357.023 141.531 356.517 143.376 355.675C144.382 355.169 145.221 354.663 146.059 354.158C146.898 353.652 147.737 352.809 147.737 352.304C147.737 351.967 147.569 351.798 147.569 351.798C147.569 351.798 147.401 351.798 147.066 351.63C146.898 351.461 146.395 351.461 146.059 350.956C145.556 350.619 145.388 349.776 145.556 349.102C145.724 348.428 146.059 348.259 146.395 347.922C147.066 347.416 147.737 347.248 148.24 347.079L154.278 345.057C155.285 344.72 156.459 344.383 157.297 344.046C157.633 343.877 157.968 343.709 158.304 343.54C158.472 343.372 158.639 343.034 158.639 342.866C158.639 342.697 158.639 342.529 158.304 342.36C158.136 342.192 157.633 342.023 157.13 341.855C156.291 341.686 155.117 341.518 154.111 341.349C149.917 340.675 145.724 340.169 141.363 339.664C145.724 339.158 150.085 338.99 154.278 339.495C155.452 339.664 156.459 339.664 157.633 339.832C158.304 340.001 158.807 340.169 159.478 340.506C160.149 340.844 160.652 341.686 160.82 342.697C160.82 344.551 159.31 345.731 158.136 346.237C156.962 346.742 156.123 346.911 154.949 347.248L148.743 349.102C148.24 349.27 147.737 349.439 147.569 349.607C147.401 349.607 147.401 349.776 147.401 349.607C147.401 349.439 147.401 349.27 147.401 349.27C147.401 349.27 147.401 349.27 147.737 349.439C147.904 349.607 148.408 349.607 148.743 349.944C149.414 350.619 149.582 351.63 149.414 352.304C149.246 353.147 148.743 353.652 148.24 354.158C147.737 354.663 147.233 354.832 146.73 355.169C145.724 355.675 144.717 356.18 143.711 356.517C141.698 357.36 139.35 357.528 137.337 357.191Z" fill="white"/>
<path d="M73.0954 346.911C71.5858 345.899 70.2439 344.888 69.0698 343.708C67.8956 342.529 66.5538 341.349 65.7151 339.664C64.8765 338.147 64.3732 335.956 65.5474 334.271C66.0506 333.428 67.057 332.754 68.0634 332.585C69.0698 332.417 70.0762 332.585 70.9148 332.922C72.5922 333.596 74.1018 334.776 75.4436 335.619L79.637 338.484C82.4884 340.338 85.3399 342.36 88.0236 344.383L86.3463 345.394C86.0108 343.54 85.8431 341.349 87.0172 339.327C87.5204 338.315 88.5268 337.473 89.701 337.136C90.7074 336.799 92.0492 336.63 93.2234 337.304C94.3975 337.978 94.9007 339.158 95.4039 340.001C95.7394 340.843 96.0748 341.686 96.4103 341.855C96.7458 342.192 97.0812 342.192 97.7522 342.023C98.2554 341.855 98.9263 341.18 99.4295 340.675C100.436 339.495 101.275 337.641 102.616 336.293C103.958 334.776 106.139 333.596 108.655 334.102C109.829 334.439 110.835 335.282 111.506 336.293C111.842 336.799 112.009 337.473 112.009 338.147C112.009 338.821 111.674 339.495 111.339 340.001C111.003 340.506 110.668 340.843 110.5 341.012C110.332 341.18 110.332 341.518 110.332 341.518C110.332 341.686 110.332 341.518 110.164 341.518C110.164 341.518 110.332 341.518 110.668 341.349C111.171 341.012 111.842 340.169 112.68 339.664C113.351 338.99 114.022 338.484 114.861 337.978C116.371 336.799 117.88 335.787 119.39 334.945C122.577 333.091 125.931 331.574 129.454 330.394C130.292 330.057 131.131 329.72 132.137 329.72C132.641 329.72 133.144 329.72 133.647 329.72C134.15 329.889 134.821 330.226 135.157 330.731C135.492 331.237 135.66 331.911 135.492 332.417C135.492 332.922 135.157 333.428 134.989 333.933C134.486 334.776 133.815 335.45 133.312 336.124C130.796 338.821 128.112 341.349 125.093 343.371C127.944 341.012 130.46 338.484 132.641 335.619C133.144 334.945 133.815 334.271 134.15 333.428C134.486 332.754 134.653 331.911 134.15 331.405C133.815 330.9 132.976 330.731 132.305 330.9C131.467 331.068 130.628 331.405 129.789 331.743C126.435 332.922 123.248 334.608 120.228 336.63C118.719 337.641 117.377 338.652 115.867 339.832C115.196 340.338 114.525 341.012 113.855 341.518C113.184 342.023 112.68 342.697 111.674 343.371C111.171 343.708 110.668 344.046 109.661 343.877C109.158 343.877 108.823 343.54 108.487 343.203C108.152 342.866 107.984 342.36 107.984 342.023C107.984 341.18 108.152 340.506 108.487 340.001C108.823 339.495 109.158 339.158 109.326 338.821C109.661 338.315 109.661 337.978 109.326 337.304C108.99 336.799 108.487 336.293 107.984 336.293C106.81 335.956 105.3 336.63 104.294 337.81C103.791 338.315 103.287 339.158 102.784 339.832C102.281 340.506 101.778 341.349 101.107 342.192C100.436 343.034 99.5972 343.708 98.5908 344.214C98.0876 344.383 97.4167 344.551 96.7458 344.551C96.0748 344.551 95.4039 344.214 94.9007 343.708C93.8943 342.697 93.5588 341.686 93.2234 340.843C92.8879 340.001 92.5524 339.495 92.217 339.327C91.3783 338.821 89.5332 339.327 89.03 340.506C88.1914 341.855 88.0236 343.54 88.3591 345.225C88.5268 345.731 88.0236 346.405 87.5204 346.405C87.185 346.405 87.0172 346.405 86.6818 346.236C83.8303 344.214 81.1466 342.192 78.4628 340.169L74.2695 337.136C72.9276 336.124 71.5858 334.945 70.0762 334.439C69.4052 334.102 68.5666 333.933 67.8956 334.102C67.2247 334.102 66.5538 334.608 66.2183 335.113C65.3797 336.293 65.3797 338.147 66.2183 339.495C66.8892 341.012 68.0634 342.192 69.2375 343.54C70.4116 344.551 71.5858 345.731 73.0954 346.911Z" fill="#BFDFFF"/>
<path d="M1.64101 310.17C2.98288 308.99 4.99568 308.653 6.84074 308.653C13.3823 308.99 14.5565 317.08 8.35034 319.271C3.31834 321.125 -3.05552 314.384 1.64101 310.17Z" fill="white"/>
<path d="M13.0469 278.317C20.5948 274.778 26.9687 287.081 18.2466 288.935C11.8727 290.452 5.66659 281.856 13.0469 278.317Z" fill="white"/>
<path d="M32.8394 276.631C34.0135 275.283 35.6909 274.609 37.3682 274.272C39.5487 273.766 42.0647 273.766 44.2453 274.609C52.1287 277.643 50.2837 288.429 42.4002 289.946C36.0263 290.957 27.472 282.53 32.8394 276.631Z" fill="white"/>
<path d="M33.1748 261.295C39.5487 263.486 33.8458 269.89 28.9815 268.71C22.6076 266.857 27.4719 259.441 33.1748 261.295Z" fill="white"/>
<path d="M176.419 276.126C183.632 276.126 184.47 284.553 178.096 286.744C174.574 287.924 168.703 287.081 168.536 282.362C168.368 278.149 172.897 276.126 176.419 276.126Z" fill="white"/>
</svg>
