<svg width="574" height="476" viewBox="0 0 574 476" fill="none" xmlns="http://www.w3.org/2000/svg">
<g clip-path="url(#clip0_1314_512)">
<path d="M34.5333 467.12H574V469.453H34.5333V467.12Z" fill="#CACACA"/>
<path d="M436.867 458.992H421.529L414.231 400.166H436.869L436.867 458.992Z" fill="#FFB8B8"/>
<path d="M391.946 473.152L440.153 473.154L440.154 454.633L410.573 454.632C405.633 454.631 400.895 456.583 397.402 460.056C393.909 463.529 391.947 468.24 391.946 473.152L391.946 473.152Z" fill="#2F2E41"/>
<path d="M518.476 456.06L503.271 458.075L488.217 400.724L510.656 397.75L518.476 456.06Z" fill="#FFB8B8"/>
<path d="M475.832 476L523.616 469.665L521.154 451.307L491.832 455.194C486.935 455.843 482.499 458.4 479.498 462.302C476.498 466.204 475.179 471.131 475.832 476V476V476Z" fill="#2F2E41"/>
<path d="M496.685 216.037L410.357 219.769L414.11 437.468L436.63 434.98L454.146 286.945L495.434 444.932L517.954 441.2L496.685 216.037Z" fill="#2F2E41"/>
<path d="M439.132 86.6606L469.159 80.5615L487.926 217.28C487.926 217.28 432.876 253.356 415.36 216.036L439.132 86.6606Z" fill="#0181FF"/>
<path d="M452.23 70.6036C435.259 70.6036 421.501 56.9242 421.501 40.0498C421.501 23.1754 435.259 9.496 452.23 9.496C469.201 9.496 482.959 23.1754 482.959 40.0498C482.959 56.9242 469.201 70.6036 452.23 70.6036Z" fill="#FFB8B8"/>
<path d="M469.159 79.1966L512.949 92.8806C512.949 92.8806 491.68 198.62 526.712 253.356C526.712 253.356 482.922 299.384 464.155 196.132C464.155 196.132 449.141 112.785 469.159 79.1966Z" fill="#2F2E41"/>
<path d="M439.132 86.6606L406.603 106.564C406.603 106.564 389.087 252.112 406.603 265.796C424.118 279.48 439.132 86.6606 439.132 86.6606Z" fill="#2F2E41"/>
<path d="M393.078 286.903C394.412 285.643 395.451 284.108 396.123 282.406C396.795 280.703 397.083 278.875 396.968 277.05C396.852 275.225 396.336 273.447 395.454 271.842C394.573 270.237 393.348 268.843 391.867 267.759L405.092 225.295L382.781 231.739L373.643 271.076C371.977 273.671 371.326 276.784 371.814 279.824C372.302 282.865 373.894 285.622 376.29 287.573C378.686 289.524 381.718 290.533 384.812 290.41C387.906 290.286 390.847 289.039 393.078 286.903V286.903Z" fill="#FFB8B8"/>
<path d="M505.46 274.622C506.945 273.542 508.173 272.152 509.059 270.549C509.944 268.946 510.466 267.17 510.586 265.345C510.707 263.52 510.423 261.691 509.756 259.987C509.088 258.283 508.053 256.745 506.724 255.481L525.307 215.05L502.35 218.6L488.222 256.451C486.236 258.813 485.19 261.817 485.282 264.895C485.375 267.972 486.599 270.909 488.724 273.149C490.849 275.389 493.726 276.776 496.811 277.048C499.895 277.319 502.973 276.456 505.46 274.622H505.46Z" fill="#FFB8B8"/>
<path d="M501.689 94.1252L512.949 92.8812L541.726 186.181L512.949 250.869L490.429 237.185L515.452 183.693L495.434 126.469L501.689 94.1252Z" fill="#2F2E41"/>
<path d="M412.859 105.321L406.603 106.565L376.576 252.113L396.594 258.333L420.366 172.497L412.859 105.321Z" fill="#2F2E41"/>
<path d="M473.346 52.596C472.931 49.5937 471.74 46.7498 469.888 44.343C468.036 41.9362 465.587 40.0491 462.781 38.8664C456.866 36.4549 450.193 37.4735 443.817 37.9347C437.441 38.396 430.343 37.9954 425.741 33.5825C421.538 29.5512 420.593 22.8612 422.623 17.4163C424.653 11.9715 429.249 7.74425 434.47 5.14305C439.791 2.71674 445.492 1.21868 451.324 0.714425C459.845 -0.309236 468.596 -0.439722 476.901 1.71473C485.207 3.86919 483.065 8.48716 487.932 15.5169C492.799 22.5466 494.257 32.1241 490.547 39.8198C488.064 44.9691 483.614 48.8669 479.281 52.6153" fill="#2F2E41"/>
<path d="M160.695 213.155C139.568 213.155 122.442 196.025 122.442 174.894C122.442 153.763 139.568 136.632 160.695 136.632C181.822 136.632 198.949 153.763 198.949 174.894C198.949 196.025 181.822 213.155 160.695 213.155Z" fill="#0181FF"/>
<path d="M152.781 202.722C160.545 202.722 168.134 200.419 174.589 196.105C181.044 191.791 186.075 185.659 189.046 178.485C192.017 171.311 192.795 163.417 191.28 155.801C189.766 148.185 186.027 141.189 180.538 135.699C175.048 130.208 168.054 126.468 160.439 124.953C152.825 123.438 144.933 124.216 137.76 127.187C130.587 130.159 124.457 135.191 120.144 141.648C115.83 148.104 113.528 155.695 113.528 163.46C113.54 173.869 117.679 183.849 125.038 191.209C132.397 198.57 142.374 202.71 152.781 202.722V202.722ZM152.781 126.198C160.149 126.198 167.352 128.384 173.478 132.478C179.605 136.572 184.38 142.392 187.2 149.201C190.019 156.009 190.757 163.502 189.32 170.73C187.882 177.958 184.334 184.597 179.124 189.809C173.914 195.02 167.276 198.569 160.049 200.006C152.822 201.444 145.332 200.706 138.525 197.886C131.717 195.066 125.899 190.29 121.805 184.162C117.712 178.034 115.527 170.83 115.527 163.46C115.538 153.581 119.467 144.11 126.451 137.124C133.435 130.139 142.904 126.21 152.781 126.198V126.198Z" fill="#3F3D56"/>
<path d="M174.947 156.372C175.347 156.628 175.796 156.797 176.266 156.867C176.736 156.937 177.215 156.907 177.673 156.779L208.134 149.155C210.688 152.691 214.118 155.502 218.086 157.312C222.055 159.122 226.426 159.869 230.77 159.48C234.847 159.109 238.772 157.746 242.202 155.51C245.632 153.274 248.462 150.232 250.447 146.65C252.432 143.069 253.511 139.056 253.589 134.961C253.668 130.867 252.744 126.816 250.897 123.161C249.051 119.506 246.339 116.358 242.997 113.992C239.655 111.626 235.786 110.114 231.725 109.587C227.665 109.06 223.538 109.535 219.703 110.97C215.869 112.405 212.443 114.756 209.726 117.819C207.494 120.343 205.791 123.289 204.717 126.482C203.643 129.676 203.22 133.052 203.474 136.412L175.283 150.244C174.494 150.609 173.874 151.262 173.55 152.069C173.226 152.877 173.221 153.777 173.538 154.587C173.805 155.317 174.299 155.943 174.947 156.372V156.372Z" fill="#3F3D56"/>
<path d="M228.515 145.896C222.201 145.896 217.083 140.776 217.083 134.461C217.083 128.146 222.201 123.027 228.515 123.027C234.829 123.027 239.947 128.146 239.947 134.461C239.947 140.776 234.829 145.896 228.515 145.896Z" fill="#0181FF"/>
<path d="M135.735 82.7586C136.428 83.2 137.251 83.3925 138.068 83.3045C138.935 83.2314 139.741 82.8304 140.322 82.1834C140.903 81.5363 141.215 80.6919 141.196 79.8223L141.168 48.4141C144.784 46.9694 148.015 44.7028 150.604 41.7935C153.194 38.8843 155.071 35.4122 156.087 31.652C157.103 27.8918 157.23 23.9467 156.458 20.1289C155.687 16.311 154.037 12.7252 151.641 9.65506C147.628 4.51404 141.772 1.13699 135.314 0.239098C128.855 -0.658795 122.301 0.992974 117.038 4.84459C111.776 8.6962 108.219 14.4452 107.121 20.8742C106.023 27.3032 107.47 33.9072 111.155 39.2879C113.063 42.0645 115.508 44.4301 118.347 46.2449C121.185 48.0597 124.358 49.2867 127.679 49.8535L134.277 80.5604C134.361 81.0058 134.533 81.4299 134.783 81.8075C135.034 82.1852 135.357 82.5086 135.735 82.7586Z" fill="#E6E6E6"/>
<path d="M131.846 36.5156C125.532 36.5156 120.414 31.3961 120.414 25.081C120.414 18.7659 125.532 13.6464 131.846 13.6464C138.159 13.6464 143.278 18.7659 143.278 25.081C143.278 31.3961 138.159 36.5156 131.846 36.5156Z" fill="#CCCCCC"/>
<path d="M11.3781 157.433C14.6701 159.572 18.4165 160.913 22.3184 161.347C26.2202 161.781 30.1694 161.297 33.851 159.933C37.006 158.753 39.8923 156.952 42.3393 154.636C44.7864 152.321 46.7444 149.538 48.0977 146.453L79.4812 147.478C80.3448 147.506 81.1883 147.214 81.8491 146.657C82.5099 146.1 82.9413 145.319 83.0602 144.463C83.1791 143.607 82.9771 142.737 82.493 142.021C82.009 141.305 81.2771 140.794 80.4386 140.585L49.9651 133.015C49.4388 129.155 48.0216 125.471 45.8258 122.254C43.6299 119.037 40.7157 116.375 37.3136 114.479C33.9115 112.584 30.1149 111.506 26.2244 111.331C22.3338 111.157 18.4561 111.89 14.8979 113.473C10.7747 115.308 7.22222 118.221 4.61455 121.905C2.00688 125.589 0.440441 129.908 0.0801808 134.407C-0.280079 138.907 0.579122 143.42 2.56738 147.472C4.55563 151.524 7.5994 154.965 11.3782 157.433L11.3781 157.433Z" fill="#E6E6E6"/>
<path d="M25.0735 147.852C18.7596 147.852 13.6413 142.733 13.6413 136.417C13.6413 130.102 18.7596 124.983 25.0735 124.983C31.3873 124.983 36.5056 130.102 36.5056 136.417C36.5056 142.733 31.3873 147.852 25.0735 147.852Z" fill="#CCCCCC"/>
<path d="M99.9387 257.905C105.377 261.428 111.967 262.711 118.33 261.484C124.692 260.258 130.333 256.618 134.074 251.326C137.814 246.034 139.363 239.501 138.397 233.093C137.431 226.684 134.024 220.898 128.89 216.945L137.476 186.735L136.996 186.598L137.476 186.735C137.713 185.904 137.633 185.014 137.253 184.238C136.873 183.462 136.219 182.854 135.417 182.531C134.615 182.209 133.723 182.195 132.911 182.491C132.099 182.788 131.426 183.375 131.021 184.138L116.305 211.881C111.968 211.414 107.585 212.082 103.585 213.82C99.5843 215.558 96.1046 218.307 93.4868 221.796C91.4319 224.544 89.9618 227.684 89.1675 231.022C88.3731 234.36 88.2713 237.825 88.8683 241.204C89.4654 244.583 90.7485 247.804 92.6387 250.667C94.5288 253.53 96.9857 255.976 99.8578 257.853L99.9387 257.905Z" fill="#3F3D56"/>
<path d="M113.584 248.291C107.27 248.291 102.152 243.172 102.152 236.857C102.152 230.542 107.27 225.422 113.584 225.422C119.898 225.422 125.016 230.542 125.016 236.857C125.016 243.172 119.898 248.291 113.584 248.291Z" fill="#0181FF"/>
<path d="M244.239 276.962C248.114 279.474 252.607 280.868 257.224 280.991C261.84 281.114 266.401 279.961 270.405 277.659C274.409 275.357 277.7 271.996 279.917 267.944C282.134 263.892 283.191 259.307 282.972 254.693C282.752 250.079 281.264 245.615 278.672 241.792C276.08 237.969 272.484 234.936 268.279 233.025C264.075 231.114 259.425 230.4 254.841 230.961C250.257 231.523 245.917 233.338 242.298 236.207L215.069 220.566C214.32 220.135 213.438 219.997 212.593 220.178C211.748 220.36 211 220.847 210.493 221.547C209.986 222.247 209.757 223.11 209.848 223.969C209.939 224.829 210.345 225.624 210.988 226.202L234.342 247.196C232.383 252.546 232.295 258.402 234.092 263.808C235.89 269.214 239.467 273.851 244.239 276.962H244.239Z" fill="#E6E6E6"/>
<path d="M258.657 267.811C252.343 267.811 247.225 262.692 247.225 256.376C247.225 250.061 252.343 244.942 258.657 244.942C264.971 244.942 270.089 250.061 270.089 256.376C270.089 262.692 264.971 267.811 258.657 267.811Z" fill="#CCCCCC"/>
</g>
<defs>
<clipPath id="clip0_1314_512">
<rect width="574" height="476" fill="white" transform="matrix(-1 0 0 1 574 0)"/>
</clipPath>
</defs>
</svg>
