<svg width="185" height="514" viewBox="0 0 185 514" fill="none" xmlns="http://www.w3.org/2000/svg">
<path d="M101.805 427.456C100.498 428.381 98.2564 428.196 97.1358 426.901C96.0152 425.607 95.6417 423.757 96.3887 422.092C97.1358 420.612 98.63 419.502 100.311 419.132C102.179 418.762 104.42 419.502 105.727 420.982C107.035 422.462 103.299 426.161 101.805 427.456Z" fill="white"/>
<path d="M97.3694 384.062C98.7771 383.118 100.361 382.929 101.945 383.118C102.648 383.118 103.176 383.307 103.88 383.496C111.095 385.949 107.751 391.233 102.121 391.044C98.6012 391.044 91.2106 388.025 97.3694 384.062Z" fill="white"/>
<path d="M91.0001 334.279C91.0001 330.066 93.314 325.853 97.0518 323.747C100.79 321.641 105.595 321.465 109.511 323.572C112.181 324.976 114.317 327.609 113.961 330.593C113.783 332.524 112.359 334.279 110.757 335.683C109.155 337.087 107.553 338.316 106.129 339.896C103.994 342.704 102.57 348.497 97.9418 346.742C94.0259 345.337 91.0001 338.141 91.0001 334.279Z" fill="white"/>
<path d="M76.7337 246.771C66.123 241.236 58.538 229.905 58.1203 217.776C57.7026 205.647 63.5446 193.381 73.9704 186.342C80.9985 181.501 90.4232 179.612 97.4736 184.424C102.104 187.407 104.663 193.28 106.105 199.137C107.548 204.994 108.548 210.621 110.665 216.263C114.946 225.302 127.673 236.48 117.201 245.763C108.544 253.725 86.4602 251.846 76.7337 246.771Z" fill="white"/>
<path d="M54.5356 42.1548C70.232 27.601 93.8614 21.603 114.524 28.1471C135.187 34.6911 152.318 51.8544 157.894 73.6104C161.816 88.3337 159.328 105.327 146.989 114.32C139.185 120.332 127.763 121.131 117.039 120.059C106.315 118.987 96.2445 117.309 85.4765 117.502C67.6895 119.306 41.2251 134.053 31.8993 110.877C23.7064 91.5468 40.1472 55.4957 54.5356 42.1548Z" fill="white"/>
<path d="M73.0954 446.276C77.121 449.814 82.3207 452.004 87.6882 452.172C91.0428 452.341 94.5652 451.667 96.7457 449.14C99.5972 445.939 99.2617 440.717 102.113 437.516C104.126 435.326 107.481 434.483 110.332 435.663C113.016 436.842 114.861 439.874 114.693 442.907C114.525 444.928 113.519 446.95 114.358 448.803C115.196 450.825 117.712 451.667 119.893 451.33C122.073 450.993 123.919 449.477 125.596 448.129C129.621 445.265 133.815 442.57 138.344 440.211C140.021 439.369 141.866 438.527 143.879 438.527C145.724 438.527 147.904 439.537 148.408 441.391C148.911 442.907 148.24 444.591 148.743 446.108C149.414 448.129 151.93 448.972 154.111 448.803C156.291 448.635 158.136 447.455 160.317 446.95C162.329 446.276 164.845 446.276 166.355 447.624C168.536 449.477 168.032 453.352 166.02 455.373C164.007 457.395 161.155 458.406 158.304 459.08C142.537 463.291 126.602 466.998 110.332 468.345C94.062 469.693 77.4564 468.682 61.8572 463.797C59.3412 462.954 56.6575 462.112 54.477 460.427C53.3028 459.585 49.7804 456.384 50.9546 454.531C51.7932 453.183 56.8252 453.857 58.3348 453.52C63.87 452.678 69.0698 450.151 73.0954 446.276Z" fill="#236FBD"/>
<path d="M33.5103 467.166C30.9943 466.998 27.9751 466.829 27.1365 464.471C26.2978 462.28 28.3106 460.09 30.6589 459.417C32.8394 458.911 35.1877 459.585 37.5359 459.753C39.8842 460.09 42.4002 459.753 43.7421 457.9C45.4194 455.71 44.2453 452.004 41.897 450.319C39.5487 448.635 36.5295 448.298 33.6781 447.961C30.8266 447.624 27.8074 447.287 25.6269 445.602C23.4463 443.918 22.2722 440.211 24.285 438.021C25.4591 436.673 27.4719 436.336 29.317 436.336C35.6909 436.168 41.897 439.032 46.2581 443.749C48.6063 446.445 50.4514 449.645 52.7997 452.341C55.1479 455.036 58.3349 457.395 61.8573 457.395C65.3797 457.395 69.0698 454.194 68.5666 450.656C68.0634 447.287 64.3733 445.434 61.1863 444.254C57.9994 442.907 54.477 440.717 54.477 437.347C54.477 434.483 56.993 432.293 59.6767 431.788C62.3605 431.282 65.2119 431.956 67.8957 432.799C72.089 434.146 76.6178 435.831 79.1338 439.537C81.6498 443.244 81.8175 448.298 84.1658 452.172C86.6818 456.721 91.8815 459.248 97.0812 459.753C102.281 460.259 107.313 459.08 112.345 457.563C126.938 453.183 140.692 446.108 152.601 436.842C154.781 435.157 157.297 433.136 159.981 432.967C162.833 432.799 165.852 435.326 165.013 438.19C164.342 440.548 161.491 441.222 159.31 441.896C153.272 443.749 147.737 447.287 143.711 452.341C143.04 453.183 142.201 454.531 142.705 455.542C143.208 456.553 144.717 456.721 145.892 456.216C147.066 455.71 147.904 454.868 148.911 454.362C153.607 452.341 158.136 457.9 163.168 458.574C167.026 459.08 170.548 456.553 174.239 455.036C177.929 453.52 183.128 453.52 184.638 457.058C185.812 459.753 183.967 463.123 181.451 464.639C176.084 467.671 169.542 464.976 163.336 464.807C154.446 464.471 145.556 470.03 142.201 478.285C140.692 481.823 140.189 485.697 137.673 488.73C134.653 492.436 129.789 493.615 125.093 494.458C112.513 497.153 99.9327 499.68 87.185 499.512C77.121 499.343 65.8829 497.322 57.3285 491.762C54.1415 489.741 53.8061 487.551 53.1351 484.013C52.2965 479.801 50.1159 476.263 47.2645 473.231C43.4066 470.03 38.5423 467.503 33.5103 467.166Z" fill="white"/>
<path d="M170.716 459.923C171.387 458.912 172.226 458.238 173.232 457.732C174.238 457.227 175.077 456.721 176.251 456.384C177.258 456.047 178.432 455.879 179.774 456.047C180.445 456.216 180.948 456.384 181.619 456.721C181.954 456.89 182.122 457.227 182.29 457.395C182.457 457.732 182.457 458.069 182.457 458.238C181.451 457.564 180.612 457.732 179.774 457.901C178.935 458.069 177.929 458.407 176.922 458.744C174.909 459.081 173.064 459.755 170.716 459.923Z" fill="#BFDFFF"/>
<path d="M25.9624 440.548C27.3043 439.706 28.8139 439.2 30.3235 439.032C31.8331 438.863 33.5104 438.863 35.02 439.369C36.5296 439.706 38.0392 440.38 39.2133 441.39C40.5552 442.233 41.5616 443.581 42.2325 444.928C40.8907 444.254 39.5488 443.581 38.2069 443.075C36.8651 442.57 35.6909 442.064 34.3491 441.727C31.8331 440.885 28.9816 440.717 25.9624 440.548Z" fill="#BFDFFF"/>
<path d="M60.8508 435.157C62.1927 434.989 63.5346 435.157 64.7087 435.494C66.0506 435.831 67.2247 436.168 68.3988 436.842C69.573 437.347 70.7471 438.19 71.7535 439.032C72.7599 439.874 73.7663 441.054 73.934 442.401C72.9276 441.559 71.7535 441.054 70.7471 440.548L67.3924 439.032C65.2119 437.853 63.0314 436.842 60.8508 435.157Z" fill="#BFDFFF"/>
<path d="M52.1287 485.192C48.9418 485.866 46.0903 487.382 44.0775 489.572C43.5743 490.078 43.2388 490.752 42.9034 491.257C42.7356 491.762 42.7356 492.268 42.9034 492.605C43.4066 493.447 44.7484 494.121 46.258 494.626C47.7676 495.132 49.2772 495.637 50.7868 496.143L53.1351 496.816C53.9738 496.985 54.9802 497.49 55.6511 498.164C55.9866 498.501 56.322 499.175 56.4898 499.512C56.6575 500.017 56.6575 500.354 56.8252 500.691C56.993 501.365 57.3284 501.87 57.9994 502.207C59.1735 503.05 60.8508 503.05 62.5282 503.05C61.0186 503.555 59.3412 503.892 57.4962 503.218C56.6575 502.881 55.8188 502.207 55.4834 501.197C55.1479 500.354 54.9802 499.68 54.6447 499.343C53.806 498.67 52.1287 498.501 50.4514 498.164C48.774 497.827 47.2644 497.322 45.7548 496.648C44.9162 496.311 44.2452 495.974 43.4066 495.469C42.5679 494.963 41.7292 494.289 41.226 493.279C40.7228 492.268 40.7228 490.92 41.226 490.078C41.7292 489.067 42.2324 488.393 42.9034 487.888C45.2516 486.034 48.774 484.855 52.1287 485.192Z" fill="white"/>
<path d="M72.7599 508.272C82.8239 509.957 92.8879 511.136 102.952 511.473C105.468 511.473 107.984 511.473 110.332 510.968C111.506 510.799 112.68 510.294 113.687 509.788C114.693 509.283 115.867 508.609 117.041 508.104C119.39 506.756 121.906 506.082 124.589 505.745C127.105 505.408 129.789 505.408 132.305 505.408C127.273 506.251 122.241 507.093 118.048 509.788C117.041 510.462 115.867 511.136 114.693 511.81C113.519 512.484 112.177 512.989 110.835 513.326C108.152 514 105.468 514 102.952 514C92.5524 513.495 82.3207 511.81 72.7599 508.272Z" fill="white"/>
<path d="M137.337 501.196C139.518 501.028 141.53 500.523 143.376 499.68C144.382 499.175 145.221 498.669 146.059 498.164C146.898 497.659 147.737 496.816 147.737 496.311C147.737 495.974 147.569 495.805 147.569 495.805C147.569 495.805 147.401 495.805 147.066 495.637C146.898 495.468 146.395 495.468 146.059 494.963C145.556 494.626 145.388 493.784 145.556 493.11C145.724 492.436 146.059 492.268 146.395 491.931C147.066 491.425 147.737 491.257 148.24 491.088L154.278 489.067C155.285 488.73 156.459 488.393 157.297 488.056C157.633 487.887 157.968 487.719 158.304 487.551C158.472 487.382 158.639 487.045 158.639 486.877C158.639 486.708 158.639 486.54 158.304 486.371C158.136 486.203 157.633 486.034 157.13 485.866C156.291 485.697 155.117 485.529 154.11 485.36C149.917 484.687 145.724 484.181 141.363 483.676C145.724 483.17 150.085 483.002 154.278 483.507C155.452 483.676 156.459 483.676 157.633 483.844C158.304 484.013 158.807 484.181 159.478 484.518C160.149 484.855 160.652 485.697 160.82 486.708C160.82 488.561 159.31 489.741 158.136 490.246C156.962 490.751 156.123 490.92 154.949 491.257L148.743 493.11C148.24 493.278 147.737 493.447 147.569 493.615C147.401 493.615 147.401 493.784 147.401 493.615C147.401 493.447 147.401 493.278 147.401 493.278C147.401 493.278 147.401 493.278 147.737 493.447C147.904 493.615 148.408 493.615 148.743 493.952C149.414 494.626 149.582 495.637 149.414 496.311C149.246 497.153 148.743 497.659 148.24 498.164C147.737 498.669 147.233 498.838 146.73 499.175C145.724 499.68 144.717 500.186 143.711 500.523C141.698 501.365 139.35 501.533 137.337 501.196Z" fill="white"/>
<path d="M73.0954 490.92C71.5858 489.909 70.2439 488.898 69.0698 487.719C67.8956 486.54 66.5538 485.361 65.7151 483.676C64.8765 482.16 64.3732 479.97 65.5474 478.285C66.0506 477.443 67.057 476.769 68.0634 476.6C69.0698 476.432 70.0762 476.6 70.9148 476.937C72.5922 477.611 74.1018 478.79 75.4436 479.633L79.637 482.497C82.4884 484.35 85.3399 486.371 88.0236 488.393L86.3463 489.404C86.0108 487.551 85.8431 485.361 87.0172 483.339C87.5204 482.328 88.5268 481.486 89.701 481.149C90.7074 480.812 92.0492 480.643 93.2234 481.317C94.3975 481.991 94.9007 483.171 95.4039 484.013C95.7394 484.855 96.0748 485.698 96.4103 485.866C96.7458 486.203 97.0812 486.203 97.7522 486.034C98.2554 485.866 98.9263 485.192 99.4295 484.687C100.436 483.507 101.275 481.654 102.616 480.307C103.958 478.79 106.139 477.611 108.655 478.116C109.829 478.453 110.835 479.296 111.506 480.307C111.842 480.812 112.009 481.486 112.009 482.16C112.009 482.834 111.674 483.507 111.339 484.013C111.003 484.518 110.668 484.855 110.5 485.024C110.332 485.192 110.332 485.529 110.332 485.529C110.332 485.698 110.332 485.529 110.164 485.529C110.164 485.529 110.332 485.529 110.668 485.361C111.171 485.024 111.842 484.181 112.68 483.676C113.351 483.002 114.022 482.497 114.861 481.991C116.371 480.812 117.88 479.801 119.39 478.959C122.577 477.106 125.931 475.589 129.454 474.41C130.292 474.073 131.131 473.736 132.137 473.736C132.641 473.736 133.144 473.736 133.647 473.736C134.15 473.905 134.821 474.242 135.157 474.747C135.492 475.253 135.66 475.926 135.492 476.432C135.492 476.937 135.157 477.443 134.989 477.948C134.486 478.79 133.815 479.464 133.312 480.138C130.796 482.834 128.112 485.361 125.093 487.382C127.944 485.024 130.46 482.497 132.641 479.633C133.144 478.959 133.815 478.285 134.15 477.443C134.486 476.769 134.653 475.926 134.15 475.421C133.815 474.916 132.976 474.747 132.305 474.916C131.467 475.084 130.628 475.421 129.789 475.758C126.435 476.937 123.248 478.622 120.228 480.643C118.719 481.654 117.377 482.665 115.867 483.844C115.196 484.35 114.525 485.024 113.855 485.529C113.184 486.034 112.68 486.708 111.674 487.382C111.171 487.719 110.668 488.056 109.661 487.888C109.158 487.888 108.823 487.551 108.487 487.214C108.152 486.877 107.984 486.371 107.984 486.034C107.984 485.192 108.152 484.518 108.487 484.013C108.823 483.507 109.158 483.171 109.326 482.834C109.661 482.328 109.661 481.991 109.326 481.317C108.99 480.812 108.487 480.307 107.984 480.307C106.81 479.97 105.3 480.643 104.294 481.823C103.791 482.328 103.287 483.171 102.784 483.844C102.281 484.518 101.778 485.361 101.107 486.203C100.436 487.045 99.5972 487.719 98.5908 488.225C98.0876 488.393 97.4167 488.561 96.7458 488.561C96.0748 488.561 95.4039 488.225 94.9007 487.719C93.8943 486.708 93.5588 485.698 93.2234 484.855C92.8879 484.013 92.5524 483.507 92.217 483.339C91.3783 482.834 89.5332 483.339 89.03 484.518C88.1914 485.866 88.0236 487.551 88.3591 489.235C88.5268 489.741 88.0236 490.415 87.5204 490.415C87.185 490.415 87.0172 490.415 86.6818 490.246C83.8303 488.225 81.1466 486.203 78.4628 484.181L74.2695 481.149C72.9276 480.138 71.5858 478.959 70.0762 478.453C69.4052 478.116 68.5666 477.948 67.8956 478.116C67.2247 478.116 66.5538 478.622 66.2183 479.127C65.3797 480.307 65.3797 482.16 66.2183 483.507C66.8892 485.024 68.0634 486.203 69.2375 487.551C70.4116 488.561 71.5858 489.741 73.0954 490.92Z" fill="#BFDFFF"/>
<path d="M1.64101 454.194C2.98288 453.015 4.99568 452.678 6.84074 452.678C13.3823 453.015 14.5565 461.101 8.35034 463.291C3.31834 465.144 -3.05552 458.406 1.64101 454.194Z" fill="white"/>
<path d="M13.0469 422.354C20.5948 418.816 26.9687 431.114 18.2466 432.967C11.8727 434.483 5.66659 425.892 13.0469 422.354Z" fill="white"/>
<path d="M32.8394 420.669C34.0135 419.321 35.6909 418.647 37.3682 418.31C39.5487 417.805 42.0647 417.805 44.2453 418.647C52.1287 421.68 50.2837 432.462 42.4002 433.978C36.0263 434.989 27.472 426.565 32.8394 420.669Z" fill="white"/>
<path d="M33.1748 405.338C39.5487 407.528 33.8458 413.93 28.9815 412.751C22.6076 410.898 27.4719 403.485 33.1748 405.338Z" fill="white"/>
<path d="M176.419 420.164C183.632 420.164 184.47 428.587 178.096 430.777C174.574 431.956 168.703 431.114 168.536 426.397C168.368 422.185 172.897 420.164 176.419 420.164Z" fill="white"/>
</svg>
