<svg width="575" height="274" viewBox="0 0 575 274" fill="none" xmlns="http://www.w3.org/2000/svg"><path d="M14.258 73.789l.354 13.863.17 6.708c.031 1.192.044 2.385.092 3.578.029.732-.028 2.115.874 2.324a3.1 3.1 0 0 0 1.865-.655c.99-.546 1.966-1.118 2.948-1.677l5.528-3.145 11.424-6.498c.296-.15.645-.169.973-.053.328.115.609.356.784.672.175.316.23.683.155 1.022a1.235 1.235 0 0 1-.561.796c-6.632 3.773-13.224 7.627-19.9 11.319-1.097.767-2.454 1.066-3.815.841a4.009 4.009 0 0 1-1.9-1.363 4.18 4.18 0 0 1-.859-2.214 43.711 43.711 0 0 1-.24-5.776l-.154-6.037-.354-13.863c.007-.353.146-.68.387-.912.24-.231.565-.35.904-.329.34.02.667.178.915.439.247.26.394.605.41.96z" fill="#3F3D56"/><path d="M158.497 34.812c-21.662 3.945-37.495 21.44-58.994 25.916-4.915 1.083-10.032 1.256-15.128.511a86.56 86.56 0 0 1-13.186-3.55c-8.809-2.88-18.257-5.792-26.509-1.128-10.867 6.142-14.359 19.61-17.317 31.434-.419 1.67-2.958.827-2.54-.846 2.719-10.864 5.757-22.42 14.09-29.832 3.699-3.397 8.379-5.464 13.421-5.93 4.482-.21 9.02.398 13.413 1.8 4.552 1.3 9.02 2.985 13.586 4.217 4.803 1.35 9.735 1.822 14.573 1.396 10.428-1.018 19.896-5.692 28.781-10.755 11.154-6.357 22.188-13.56 35.103-15.913 1.629-.296 2.348 2.381.707 2.68zm122.589 18.466l1.017 56.911V262c.03 1.7-2.652 1.235-2.682-.445l-.727-192.525-.289-16.197c-.03-1.7 2.651-1.235 2.681.445z" fill="#3F3D56"/><path d="M295.728 243.293c-2.024 10.66-6.27 20.653-12.481 29.37a1.215 1.215 0 0 1-.467.355 1.322 1.322 0 0 1-.593.108 1.495 1.495 0 0 1-1.083-.562l-19.079-23.575c-1.114-1.376.991-2.88 2.107-1.501l19.079 23.575-2.143-.1c5.952-8.345 10.028-17.91 11.979-28.116.312-1.64 2.995-1.204 2.681.446zM526.217 52.129l21.023 53.828 5.925 15.172c.629 1.609-1.801 2.514-2.424.919l-21.023-53.829-5.926-15.171c-.628-1.61 1.802-2.515 2.425-.92z" fill="#3F3D56"/><path d="M559.828 101.959c1.95 11.085 1.751 22.555-.583 33.702a1.476 1.476 0 0 1-.26.564c-.124.166-.282.3-.46.393a1.236 1.236 0 0 1-.567.141 1.189 1.189 0 0 1-.56-.137l-24.609-13.864a1.296 1.296 0 0 1-.584-.792 1.472 1.472 0 0 1 .106-1.022c.157-.318.421-.562.736-.68s.656-.102.952.046l24.61 13.863-1.847.96c2.256-10.669 2.471-21.652.634-32.275-.297-1.702 2.132-2.617 2.432-.899z" fill="#3F3D56"/></svg>