<svg width="187" height="218" viewBox="0 0 187 218" fill="none" xmlns="http://www.w3.org/2000/svg"><path d="M147.022 218H39.979a40.045 40.045 0 0 1-28.256-11.71A39.966 39.966 0 0 1 0 178.062V129.03a39.964 39.964 0 0 1 11.723-28.228A40.044 40.044 0 0 1 39.979 89.09h107.043a40.042 40.042 0 0 1 28.255 11.712A39.965 39.965 0 0 1 187 129.03v49.032a39.962 39.962 0 0 1-11.723 28.227A40.039 40.039 0 0 1 147.022 218zM39.979 93.272a35.852 35.852 0 0 0-25.297 10.485A35.783 35.783 0 0 0 4.185 129.03v49.032a35.78 35.78 0 0 0 10.496 25.272 35.85 35.85 0 0 0 25.297 10.484h107.043a35.849 35.849 0 0 0 25.297-10.484 35.78 35.78 0 0 0 10.495-25.272V129.03a35.784 35.784 0 0 0-10.495-25.273 35.853 35.853 0 0 0-25.297-10.485H39.979z" fill="#0181FF"/><path d="M33.639 191.385h95.011a37.59 37.59 0 0 0 26.555-10.989 37.5 37.5 0 0 0 10.999-26.528v-41.032a37.341 37.341 0 0 0-2.477-13.31 37.42 37.42 0 0 1 10.986 13.19 37.383 37.383 0 0 1 3.938 16.701v41.032a37.489 37.489 0 0 1-10.999 26.528 37.546 37.546 0 0 1-12.183 8.133 37.59 37.59 0 0 1-14.371 2.856H46.087a37.555 37.555 0 0 1-21.313-6.646 37.504 37.504 0 0 1-13.763-17.562 37.36 37.36 0 0 0 22.628 7.627zM95.379 5.75c-19.844 0-37.517 5.112-47.392 18.583 10.557-7.676 27.76-13.997 40.817-13.89 29.816-.358 48.841 18.766 51.271 43.164v14.075h10.8V49.823c0-18.737-24.768-44.072-55.496-44.072z" fill="#0181FF" fill-opacity=".25"/><path d="M158.296 93.83H28.704V55.736C28.704 25.004 57.77 0 93.5 0c35.729 0 64.796 25.004 64.796 55.737v38.092zM32.89 89.646h121.22v-33.91c0-28.428-27.189-51.555-60.61-51.555S32.89 27.309 32.89 55.737v33.91z" fill="#0181FF"/><path d="M126.689 79.287H60.311a11.281 11.281 0 0 1-7.961-3.3 11.26 11.26 0 0 1-3.302-7.953v-15.16c0-21.136 19.941-38.331 44.452-38.331 24.51 0 44.452 17.195 44.452 38.331v15.16a11.26 11.26 0 0 1-3.302 7.953 11.283 11.283 0 0 1-7.961 3.3zm-33.19-60.562c-22.202 0-40.265 15.319-40.265 34.15v15.159a7.075 7.075 0 0 0 2.074 4.997 7.089 7.089 0 0 0 5.003 2.074h66.378a7.09 7.09 0 0 0 5.002-2.074 7.074 7.074 0 0 0 2.075-4.997v-15.16c0-18.83-18.063-34.15-40.266-34.15z" fill="#0181FF"/><path fill-rule="evenodd" clip-rule="evenodd" d="M116.277 154.01c0 12.049-9.777 21.817-21.838 21.817-12.06 0-21.837-9.768-21.837-21.817s9.777-21.817 21.837-21.817c12.061 0 21.838 9.768 21.838 21.817zm7.279 0c0 16.065-13.036 29.089-29.117 29.089-16.08 0-29.117-13.024-29.117-29.089 0-16.065 13.037-29.089 29.117-29.089 16.081 0 29.117 13.024 29.117 29.089zm-29.117 14.544c8.041 0 14.559-6.511 14.559-14.544 0-8.033-6.518-14.544-14.559-14.544-8.04 0-14.558 6.511-14.558 14.544 0 8.033 6.518 14.544 14.558 14.544z" fill="#0181FF"/></svg>