<svg width="147" height="30" viewBox="0 0 147 30" fill="none" xmlns="http://www.w3.org/2000/svg"><path d="M17.976 1.855v3.486h-6.924V24.02H6.924V5.341H0V1.855h17.976zm-.256 11.258h8.745v3.55H17.72v-3.55zm16.268 8.124c1.04 0 1.798-.118 2.275-.352.477-.256.715-.682.715-1.28 0-.554-.26-1.012-.78-1.375-.498-.362-1.333-.757-2.503-1.183a25.272 25.272 0 0 1-1.983-.8 7.28 7.28 0 0 1-1.527-1.023 4.381 4.381 0 0 1-1.04-1.375c-.239-.555-.358-1.226-.358-2.015 0-1.535.574-2.74 1.723-3.614 1.148-.896 2.708-1.344 4.68-1.344.997 0 1.95.096 2.861.288.91.17 1.593.341 2.048.512l-.715 3.134c-.434-.192-.986-.362-1.658-.511-.672-.171-1.452-.256-2.34-.256-.802 0-1.452.138-1.95.415-.5.256-.748.661-.748 1.216 0 .277.043.522.13.735.108.214.281.416.52.608.238.17.552.352.942.544.39.17.867.352 1.43.543a20 20 0 0 1 2.373 1.024c.65.32 1.182.693 1.593 1.12.434.404.748.873.943 1.407.195.533.292 1.172.292 1.919 0 1.599-.606 2.814-1.82 3.646-1.192.81-2.904 1.215-5.136 1.215-1.495 0-2.698-.128-3.608-.384-.91-.234-1.55-.426-1.918-.575l.683-3.23c.585.234 1.278.458 2.08.67.824.214 1.756.32 2.796.32zm9.655-5.501c0-1.472.217-2.762.65-3.87.455-1.11 1.051-2.026 1.788-2.75a7.051 7.051 0 0 1 2.535-1.664 7.77 7.77 0 0 1 2.926-.576c2.34 0 4.16.715 5.461 2.143 1.322 1.429 1.983 3.561 1.983 6.397 0 .213-.011.458-.033.735 0 .256-.01.49-.032.704H47.706c.109 1.343.585 2.388 1.43 3.134.867.725 2.113 1.088 3.739 1.088.953 0 1.82-.086 2.6-.256.802-.17 1.43-.352 1.886-.544l.52 3.166c-.217.107-.52.224-.91.352-.369.107-.802.203-1.3.288-.477.107-.998.192-1.561.256s-1.138.096-1.723.096c-1.495 0-2.795-.213-3.9-.64-1.106-.447-2.016-1.055-2.731-1.823a7.618 7.618 0 0 1-1.593-2.75c-.347-1.066-.52-2.228-.52-3.486zm11.41-1.728a4.85 4.85 0 0 0-.228-1.503 3.328 3.328 0 0 0-.683-1.247 2.74 2.74 0 0 0-1.072-.832c-.412-.213-.91-.32-1.495-.32-.607 0-1.138.118-1.593.352a3.609 3.609 0 0 0-1.17.864 4.185 4.185 0 0 0-.716 1.247 6.67 6.67 0 0 0-.357 1.44h7.314zm7.16 1.664c0-1.237.195-2.388.585-3.455.39-1.087.943-2.025 1.658-2.814a7.838 7.838 0 0 1 2.666-1.855c1.04-.448 2.21-.672 3.51-.672 1.604 0 3.12.288 4.551.864l-.845 3.166a8.94 8.94 0 0 0-1.56-.48 8.214 8.214 0 0 0-1.82-.191c-1.54 0-2.71.48-3.511 1.439-.802.938-1.203 2.27-1.203 3.998 0 1.663.38 2.985 1.138 3.965.758.96 2.037 1.44 3.835 1.44.672 0 1.333-.064 1.983-.192a9.437 9.437 0 0 0 1.69-.48l.553 3.198c-.433.214-1.094.405-1.983.576-.866.17-1.766.256-2.698.256-1.451 0-2.72-.213-3.803-.64-1.062-.447-1.95-1.055-2.665-1.823a7.824 7.824 0 0 1-1.56-2.782c-.347-1.088-.52-2.26-.52-3.518zm30.22 7.836c-.758.191-1.744.383-2.958.575-1.213.213-2.546.32-3.998.32-1.365 0-2.514-.192-3.446-.576-.91-.384-1.646-.917-2.21-1.599-.542-.682-.932-1.492-1.17-2.43-.239-.96-.358-2.005-.358-3.135v-9.37h3.934v8.762c0 1.791.26 3.07.78 3.838.541.768 1.473 1.152 2.795 1.152a18.6 18.6 0 0 0 1.495-.064c.542-.043.943-.096 1.203-.16V7.292h3.933v16.215zm14.693-12.73a11.03 11.03 0 0 0-1.365-.32c-.563-.127-1.224-.191-1.983-.191-.433 0-.899.042-1.397.128-.477.085-.813.16-1.008.223V24.02H97.44V8.092c.758-.278 1.7-.533 2.828-.768 1.148-.256 2.416-.384 3.803-.384.26 0 .563.022.91.064.347.022.693.064 1.04.128.347.043.683.107 1.008.192.325.064.585.128.78.192l-.683 3.262zm7.39 13.242h-3.934V7.291h3.934V24.02zm.422-21.621c0 .725-.238 1.3-.715 1.727-.477.426-1.04.64-1.69.64-.672 0-1.246-.214-1.723-.64-.477-.427-.715-1.002-.715-1.727 0-.747.238-1.333.715-1.76.477-.426 1.051-.639 1.723-.639.65 0 1.213.213 1.69.64.477.426.715 1.012.715 1.759zm4.4.479l3.934-.64v5.054h6.046v3.23h-6.046v6.813c0 1.343.216 2.302.65 2.878.433.576 1.17.864 2.21.864.715 0 1.344-.075 1.886-.224a12.8 12.8 0 0 0 1.332-.416l.65 3.07c-.455.192-1.051.384-1.787.576-.737.213-1.604.32-2.601.32-1.213 0-2.232-.16-3.055-.48-.802-.32-1.442-.778-1.918-1.375-.477-.618-.813-1.354-1.008-2.207-.195-.874-.293-1.866-.293-2.974V2.878zM147 7.292c-1.755 6.354-3.792 12.111-6.111 17.27-.434.96-.878 1.781-1.333 2.464a7.332 7.332 0 0 1-1.528 1.695 5.251 5.251 0 0 1-1.885.96c-.693.212-1.495.319-2.405.319a8.81 8.81 0 0 1-1.821-.192c-.585-.128-1.029-.266-1.333-.416l.716-3.102c.78.299 1.549.448 2.308.448 1.018 0 1.809-.245 2.372-.736.586-.469 1.095-1.205 1.528-2.207a92.262 92.262 0 0 1-3.575-7.676 86.24 86.24 0 0 1-3.023-8.827h4.193c.217.896.477 1.866.78 2.91.325 1.045.672 2.111 1.04 3.199a98.015 98.015 0 0 0 1.17 3.198 60.357 60.357 0 0 0 1.236 2.975 87.393 87.393 0 0 0 1.95-6.045 210.15 210.15 0 0 0 1.658-6.237H147z" fill="#066BFF"/></svg>